<svg width="60" height="60" viewBox="0 0 60 60" fill="none" xmlns="http://www.w3.org/2000/svg">
<g clip-path="url(#clip0_80_1118)">
<g clip-path="url(#clip1_80_1118)">
<path d="M60 19.6716V39.7383C59.9867 39.9809 59.964 40.2229 59.9607 40.4656C59.9273 42.6876 59.9007 44.9096 59.862 47.1323C59.8619 47.5321 59.8289 47.9312 59.7633 48.3256C58.968 52.6496 56.6087 55.8716 52.8047 58.0296C51.0327 59.0349 49.122 59.6203 47.0593 59.6296C45.182 59.6416 43.3047 59.6643 41.4273 59.6876C40.774 59.6956 40.12 59.7189 39.4667 59.7349H17.8667C17.3467 59.7189 16.826 59.7003 16.306 59.6863C14.8393 59.6483 13.3613 59.7256 11.9113 59.5529C8.22467 59.1143 5.24467 57.3323 2.95333 54.4329C1.2 52.2183 0.164667 49.7029 0.127333 46.8316C0.0993333 44.6983 0.0697778 42.5649 0.0386667 40.4316C0.0386667 40.2443 0.0133333 40.0576 0 39.8703V19.5383C0.0133333 19.3736 0.036 19.2089 0.038 19.0436C0.0726667 16.7883 0.1 14.5336 0.139333 12.2783C0.14191 11.9008 0.174007 11.5241 0.235333 11.1516C0.88 7.51028 2.72267 4.59695 5.678 2.40495C7.90267 0.758281 10.392 -0.166385 13.2073 -0.145052C15.484 -0.128385 17.762 -0.182385 20.0393 -0.211719C20.782 -0.219052 21.524 -0.244385 22.2667 -0.261719H37.6C37.7333 -0.249719 37.8627 -0.227719 37.9947 -0.226385C41.1047 -0.191052 44.2153 -0.159719 47.328 -0.121719C47.7495 -0.12286 48.1703 -0.0905362 48.5867 -0.0250521C52.2193 0.604281 55.1253 2.44161 57.3093 5.38428C58.966 7.61895 59.8933 10.1223 59.882 12.9456C59.8747 14.8556 59.928 16.7669 59.958 18.6789C59.9627 19.0089 59.9853 19.3383 60 19.6716ZM2.35067 29.7023C2.35067 35.3352 2.35289 40.9678 2.35733 46.6003C2.35733 47.3336 2.342 48.0876 2.516 48.7869C3.43133 52.4536 5.59333 55.1149 9.09 56.6183C10.0753 57.0423 11.09 57.4296 12.1933 57.4296C23.8693 57.4345 35.5456 57.4376 47.222 57.4389C47.953 57.444 48.6811 57.3459 49.3847 57.1476C52.98 56.1229 55.5573 53.9556 56.956 50.4589C57.444 49.2376 57.7207 47.9869 57.7173 46.6403C57.6871 35.2416 57.6838 23.8432 57.7073 12.4449C57.712 11.7463 57.6178 11.0505 57.4273 10.3783C56.3607 6.64495 54.0647 4.03428 50.4127 2.64895C49.3247 2.23628 48.2207 1.99295 47.0373 2.02228C45.05 2.07095 43.0607 2.02761 41.072 2.03028C31.64 2.04361 22.208 2.05917 12.776 2.07695C12.3316 2.06903 11.8873 2.09667 11.4473 2.15961C6.03867 3.04161 2.26133 8.03028 2.33333 12.7063C2.41467 18.3703 2.35067 24.0369 2.35067 29.7023Z" fill="black"/>
<path d="M12.9102 44.0663C13.3408 42.6097 13.7502 41.2277 14.1575 39.8443C16.6264 31.463 19.095 23.0821 21.5635 14.7017C21.6968 14.2543 21.8448 13.8123 21.9675 13.363C22.0215 13.163 22.1215 13.1037 22.3208 13.105C23.3535 13.113 24.3875 13.1157 25.4202 13.1017C25.6642 13.0983 25.7635 13.1777 25.8342 13.413C26.6215 16.0283 27.4228 18.639 28.2175 21.2517C30.4953 28.7397 32.7722 36.2285 35.0482 43.7183C35.1535 44.065 35.1195 44.127 34.7422 44.1317C33.7648 44.1443 32.7868 44.1317 31.8088 44.1537C31.5488 44.159 31.5288 43.9917 31.4788 43.825C30.5606 40.7961 29.6428 37.7674 28.7255 34.739C28.5582 34.189 28.5588 34.1923 27.9982 34.193C25.2095 34.193 22.4215 34.199 19.6328 34.1883C19.3462 34.1883 19.2328 34.277 19.1555 34.5497C18.2682 37.6443 17.3635 40.7343 16.4755 43.829C16.4035 44.0803 16.2988 44.1583 16.0428 44.1523C15.1875 44.1323 14.3322 44.1417 13.4768 44.1323C13.3042 44.1297 13.1315 44.093 12.9102 44.0663ZM23.9062 18.4263L23.7895 18.4443C22.5895 22.511 21.3955 26.5777 20.1715 30.735C22.6975 30.8443 25.1635 30.769 27.7188 30.7963L23.9062 18.4263Z" fill="black"/>
<path d="M42.5352 44.1274H39.2852V21.8867C39.4025 21.8867 39.5105 21.8867 39.6185 21.8867C40.4505 21.9047 41.2852 21.9367 42.1158 21.9341C42.4152 21.9341 42.4818 22.0321 42.4825 22.3174C42.4905 28.0583 42.5043 33.7989 42.5238 39.5394C42.5278 40.8727 42.5314 42.2061 42.5345 43.5394L42.5352 44.1274Z" fill="black"/>
<path d="M42.705 14.4106C42.7277 15.3746 41.917 16.2546 40.9943 16.2673C40.055 16.2806 39.157 15.396 39.137 14.4386C39.119 13.578 40.0037 12.67 40.8783 12.6486C41.3538 12.6415 41.8128 12.8228 42.155 13.1529C42.4973 13.4831 42.695 13.9352 42.705 14.4106Z" fill="black"/>
</g>
</g>
<defs>
<clipPath id="clip0_80_1118">
<rect width="60" height="60" fill="black"/>
</clipPath>
<clipPath id="clip1_80_1118">
<rect width="60" height="60" fill="black" transform="translate(0 -0.261719)"/>
</clipPath>
</defs>
</svg>
