<svg width="60" height="60" viewBox="0 0 60 60" fill="none" xmlns="http://www.w3.org/2000/svg">
<g clip-path="url(#clip0_76_1051)">
<g clip-path="url(#clip1_76_1051)">
<path d="M12 30.1507C12 21.142 12 12.133 12 3.12374C12 1.58682 12.8564 0.424204 14.2444 0.0904826C14.5226 0.0269613 14.8074 -0.00331576 15.0927 0.000287509C25.3688 0.000287509 35.6454 0.000287509 45.9226 0.000287509C47.7492 0.000287509 49.0009 1.26302 49.0009 3.09939C49.0009 21.1324 49.0009 39.1654 49.0009 57.1984C49.0009 59.0817 47.7501 60.3255 45.8585 60.3255H15.1171C13.2499 60.3246 12 59.0871 12 57.2228C12 48.199 12 39.175 12 30.1507ZM14.9664 54.4033H45.7719V4.70576H14.9664V54.4033ZM30.384 2.93073H36.1092C36.6913 2.93073 36.9855 2.72147 36.9792 2.32191C36.9729 1.92234 36.6841 1.73294 36.0903 1.73023H24.685C24.5498 1.72371 24.4142 1.72854 24.2798 1.74466C23.9531 1.80239 23.7726 2.01525 23.778 2.33905C23.7834 2.66285 23.9711 2.86939 24.2987 2.9181C24.4333 2.93196 24.5688 2.93587 24.7039 2.92982L30.384 2.93073ZM30.5005 59.327C30.9101 59.327 31.3106 59.2058 31.6514 58.9788C31.9923 58.7517 32.2584 58.429 32.416 58.0511C32.5737 57.6732 32.616 57.2572 32.5376 56.8554C32.4592 56.4535 32.2636 56.0839 31.9753 55.7929C31.6871 55.502 31.3192 55.3028 30.918 55.2205C30.5167 55.1381 30.1 55.1762 29.7204 55.33C29.3408 55.4839 29.0152 55.7466 28.7846 56.085C28.5541 56.4234 28.4289 56.8224 28.4248 57.2318C28.422 57.5059 28.4737 57.7779 28.5768 58.032C28.6799 58.2861 28.8323 58.5172 29.0254 58.7121C29.2184 58.9069 29.4481 59.0616 29.7013 59.1671C29.9545 59.2727 30.2261 59.327 30.5005 59.327Z" fill="black"/>
<path d="M18.3083 20.7217C18.3083 19.7629 18.3002 18.8032 18.3083 17.8444C18.306 17.6021 18.3916 17.3671 18.5493 17.1829C18.707 16.9987 18.9261 16.8779 19.166 16.8427C19.406 16.8075 19.6506 16.8603 19.8546 16.9914C20.0586 17.1225 20.2082 17.323 20.2757 17.5558C20.3104 17.7011 20.3253 17.8503 20.3199 17.9996C20.3199 19.7872 20.3199 21.5758 20.3199 23.3644C20.315 23.6919 20.4172 24.0121 20.6108 24.2765C20.8044 24.5408 21.079 24.7348 21.3929 24.8291C22.0246 25.0267 22.7358 24.812 23.0814 24.2483C23.2553 23.9706 23.3548 23.6528 23.3702 23.3256C23.3955 21.5677 23.3819 19.808 23.3828 18.0501C23.3785 17.9296 23.3833 17.809 23.3973 17.6893C23.4334 17.4551 23.5509 17.2411 23.7291 17.0847C23.9073 16.9284 24.1349 16.8397 24.3719 16.8343C24.604 16.8274 24.8312 16.9015 25.0145 17.0439C25.1978 17.1863 25.3257 17.388 25.3764 17.6144C25.4005 17.7213 25.4127 17.8305 25.4125 17.94C25.4125 19.7593 25.4278 21.5776 25.4125 23.3959C25.4079 24.1539 25.1607 24.8905 24.707 25.4979C24.2533 26.1052 23.6169 26.5515 22.8911 26.7713C22.1653 26.9911 21.3881 26.9729 20.6734 26.7193C19.9587 26.4657 19.344 25.9902 18.9193 25.3622C18.5202 24.7815 18.3091 24.0923 18.3146 23.3878C18.3146 22.4985 18.3146 21.6092 18.3146 20.7199L18.3083 20.7217Z" fill="black"/>
<path d="M30.2538 24.1333C29.8657 24.9017 29.5056 25.6251 29.1356 26.3439C29.0448 26.5413 28.8917 26.7034 28.6998 26.8054C28.508 26.9074 28.2879 26.9436 28.0734 26.9086C27.6881 26.8617 27.3163 26.573 27.2612 26.1753C27.2241 25.9023 27.2635 25.6245 27.3749 25.3725C27.8938 24.2821 28.4452 23.2079 28.9993 22.1327C29.0455 22.0524 29.069 21.961 29.067 21.8683C29.0651 21.7756 29.038 21.6853 28.9885 21.6069C28.4284 20.5137 27.8758 19.4163 27.3307 18.3148C27.2297 18.1284 27.1911 17.9147 27.2205 17.7048C27.2499 17.495 27.3458 17.3 27.494 17.1485C27.7792 16.8509 28.2341 16.721 28.5914 16.9185C28.8306 17.0552 29.0293 17.2529 29.1672 17.4913C29.5444 18.1714 29.8756 18.8767 30.2502 19.6244C30.4541 19.2248 30.6373 18.8668 30.8196 18.5087C31.01 18.1344 31.1887 17.7547 31.3909 17.3867C31.6751 16.8689 32.2446 16.6922 32.7446 16.9492C32.8636 17.0087 32.9696 17.0915 33.0562 17.1925C33.1428 17.2936 33.2083 17.4109 33.2488 17.5377C33.2893 17.6644 33.3041 17.798 33.2922 17.9305C33.2803 18.063 33.242 18.1918 33.1795 18.3094C32.6308 19.42 32.0734 20.5257 31.5073 21.6267C31.4619 21.702 31.438 21.7882 31.438 21.8761C31.438 21.964 31.4619 22.0502 31.5073 22.1255C32.0677 23.2187 32.6173 24.3173 33.1678 25.4158C33.3528 25.7856 33.3483 26.1527 33.1046 26.4937C33.0011 26.6493 32.8542 26.7712 32.6821 26.8445C32.5101 26.9177 32.3203 26.9391 32.1363 26.9058C31.7753 26.8571 31.5199 26.647 31.3566 26.3205C31.0001 25.6079 30.6382 24.8936 30.2538 24.1333Z" fill="black"/>
<path d="M42.4307 14.8922C42.4082 15.0142 42.378 15.1347 42.3404 15.253C40.6667 19.9107 38.9911 24.5677 37.3137 29.2242C37.1007 29.8141 36.5511 30.0838 36.0006 29.888C35.4501 29.6923 35.2038 29.125 35.4149 28.5351C37.0911 23.8678 38.7691 19.2011 40.4489 14.535C40.6429 13.9939 41.0887 13.7377 41.6221 13.8315C42.0796 13.9136 42.4271 14.3348 42.4307 14.8922Z" fill="black"/>
<path d="M24.4099 38.3429C24.4099 37.413 24.4017 36.484 24.4099 35.555C24.418 34.7965 25.0687 34.313 25.7491 34.5412C26.176 34.6846 26.4305 35.0589 26.4314 35.5604C26.4314 37.3796 26.4314 39.198 26.4314 41.0163C26.4328 41.4208 26.595 41.8082 26.8822 42.0932C27.1694 42.3782 27.5581 42.5375 27.9628 42.5361C28.3676 42.5347 28.7552 42.3726 29.0404 42.0855C29.3255 41.7985 29.4849 41.41 29.4835 41.0055C29.4877 39.1968 29.4877 37.3884 29.4835 35.5802C29.4835 35.1401 29.6468 34.801 30.0421 34.598C30.6829 34.2697 31.4861 34.6882 31.496 35.4143C31.5203 37.441 31.5628 39.4731 31.4527 41.4961C31.3561 43.2703 29.7263 44.5817 27.8789 44.5628C26.1327 44.5474 24.5768 43.1801 24.4496 41.4547C24.3729 40.4219 24.4351 39.3802 24.4351 38.3402L24.4099 38.3429Z" fill="black"/>
<path d="M33.3225 39.5089C33.3225 38.1704 33.3225 36.831 33.3225 35.4925C33.3225 35.046 33.5553 34.7349 33.9542 34.5581C34.326 34.3939 34.8043 34.4787 35.048 34.8034C35.2111 35.013 35.3079 35.2664 35.3259 35.5313C35.3449 38.2083 35.3386 40.8862 35.3341 43.5632C35.3377 43.6935 35.3151 43.8232 35.2675 43.9446C35.22 44.066 35.1485 44.1766 35.0573 44.2699C34.9661 44.3631 34.8571 44.437 34.7367 44.4873C34.6164 44.5376 34.4871 44.5632 34.3567 44.5625C33.7656 44.5679 33.327 44.1539 33.3234 43.555C33.3171 42.2102 33.3225 40.8573 33.3225 39.5089Z" fill="black"/>
</g>
</g>
<defs>
<clipPath id="clip0_76_1051">
<rect width="60" height="60" fill="black"/>
</clipPath>
<clipPath id="clip1_76_1051">
<rect width="37" height="60.3261" fill="black" transform="translate(12)"/>
</clipPath>
</defs>
</svg>
