<svg width="60" height="60" viewBox="0 0 60 60" fill="none" xmlns="http://www.w3.org/2000/svg">
<g clip-path="url(#clip0_80_1119)">
<path d="M30.2037 53.1827C24.6203 53.1827 19.0323 53.1827 13.449 53.1827C9.54704 53.1827 7.57535 51.0037 7.36804 47.0879C7.18736 43.674 6.77953 40.2759 6.14726 36.9162C5.9514 35.7139 5.44322 34.584 4.67357 33.6397C3.90392 32.6955 2.89978 31.9699 1.76163 31.5355C1.35624 31.3743 1.02916 30.6142 1.00152 30.0844C0.973876 29.5546 1.3286 28.8728 1.69253 28.7485C4.61781 27.7304 5.9031 25.3533 6.41905 22.6629C6.97688 19.6326 7.31253 16.5656 7.42332 13.4863C7.59377 9.22045 9.63917 7.03685 13.9234 7.03685C24.8107 7.01228 35.6949 7 46.5761 7C50.6945 7 52.7491 9.30337 52.961 13.4126C53.1486 16.882 53.5936 20.3328 54.2924 23.7363C54.4929 24.8798 55.005 25.9459 55.7722 26.8171C56.5395 27.6884 57.5322 28.3312 58.6412 28.6748C59.6316 29.0018 59.885 31.1163 58.9728 31.4388C54.2832 33.194 53.7764 37.3124 53.2513 41.3709C53.0445 43.4206 52.9415 45.4794 52.9426 47.5394C52.8459 50.9668 50.6392 53.1688 47.1335 53.1827C41.4902 53.1827 35.847 53.1827 30.2037 53.1827ZM35.6258 29.5731C38.307 27.8317 39.7259 25.6712 38.9796 22.5478C38.2194 19.3553 35.9022 17.895 32.8664 17.6784C29.3745 17.4297 25.8595 17.4665 22.3538 17.5264C21.93 17.5264 21.1606 18.4478 21.156 18.9084C21.0915 26.5234 21.1238 34.1384 21.1238 41.7579C21.1238 42.6793 21.4509 43.1169 22.4413 43.1077C26.0116 43.0662 29.5818 43.186 33.1428 43.0294C36.8558 42.8681 39.7489 40.445 40.2787 37.3769C40.9098 33.7191 39.4541 31.1716 35.6258 29.5731Z" fill="black"/>
<path d="M29.3495 39.5567C25.6641 39.4139 25.6641 39.4139 25.6641 35.816C25.6641 31.7068 25.6641 31.67 29.8562 31.7298C30.9991 31.7101 32.1404 31.826 33.256 32.0753C35.0987 32.536 35.9555 33.7706 35.9509 35.5627C35.9463 37.3547 35.0895 38.5985 33.2468 39.073C31.9599 39.3206 30.6579 39.4822 29.3495 39.5567Z" fill="black"/>
<path d="M29.0467 28.0518C25.3014 28.0933 25.6745 28.6138 25.6699 24.7165C25.6699 20.962 25.154 21.243 29.1803 21.243C29.9274 21.2299 30.6747 21.2561 31.4191 21.3214C33.6764 21.5471 34.6715 22.5375 34.6945 24.5046C34.7176 26.4717 33.5244 27.7938 31.4698 28.0334C30.6631 28.0862 29.8541 28.0923 29.0467 28.0518Z" fill="black"/>
</g>
<defs>
<clipPath id="clip0_80_1119">
<rect width="58.5333" height="46.2103" fill="black" transform="translate(1 7)"/>
</clipPath>
</defs>
</svg>
