<svg width="60" height="60" viewBox="0 0 60 60" fill="none" xmlns="http://www.w3.org/2000/svg">
<g clip-path="url(#clip0_80_1115)">
<path d="M7 13.1051V12.8359H7.45165H53.2419C53.206 13.135 53.1791 13.3683 53.1462 13.6046C52.1651 20.4542 51.183 27.3017 50.2 34.1473C49.3126 40.3727 48.4293 46.5971 47.5499 52.8205C47.5441 52.973 47.4877 53.1192 47.3897 53.2362C47.2917 53.3531 47.1576 53.4342 47.0085 53.4666C42.821 54.8485 38.6335 56.2443 34.446 57.6541C33.0372 58.1237 31.6374 58.6142 30.2316 59.0958H30.0312C29.8936 59.0359 29.762 58.9672 29.6214 58.9193C24.2076 57.1247 18.7938 55.2971 13.368 53.5144C13.1723 53.4682 12.9978 53.3575 12.8725 53.2002C12.7472 53.0429 12.6784 52.8481 12.677 52.647C12.5066 51.2592 12.2912 49.8773 12.0788 48.4924C11.5823 45.0248 11.0838 41.5572 10.5833 38.0895C10.0828 34.6219 9.58428 31.1542 9.08776 27.6866C8.56134 23.7723 8.01597 19.862 7.45165 15.9556C7.31406 14.9955 7.15254 14.0533 7 13.1051ZM17.702 38.8672C17.7499 39.3787 17.7918 39.8423 17.8396 40.3059C18.0669 42.5821 18.3002 44.8583 18.5156 47.1345C18.5091 47.2605 18.5525 47.384 18.6365 47.4781C18.7206 47.5722 18.8383 47.6293 18.9643 47.637C22.5984 48.5343 26.2296 49.4496 29.8637 50.3499C30.0494 50.395 30.2433 50.395 30.429 50.3499C34.0781 49.4526 37.7242 48.5313 41.3763 47.631C41.4852 47.6175 41.5849 47.5629 41.6549 47.4784C41.725 47.3939 41.7601 47.2859 41.7532 47.1764C41.9117 45.5283 42.0852 43.8862 42.2497 42.2381C42.5728 39.0018 42.8958 35.7674 43.2188 32.5351C43.2966 31.7634 43.3654 30.9917 43.4432 30.1751H33.2406C33.3454 30.0573 33.4752 29.9643 33.6205 29.903C37.1579 28.1322 40.6964 26.3645 44.2358 24.5998C44.3508 24.559 44.449 24.4809 44.5145 24.3779C44.5801 24.275 44.6094 24.153 44.5977 24.0315C44.5798 22.3595 44.5977 20.6875 44.5977 19.0155C44.5977 18.8869 44.5798 18.7582 44.5708 18.6386H15.6741L16.2514 24.4293H31.8259C29.9505 25.4373 28.0661 26.3705 26.1817 27.3067L17.364 31.6797C17.1756 31.7724 16.9842 31.8262 17.0171 32.1223C17.1547 33.3876 17.2743 34.6588 17.4029 35.9748H36.6355C36.3932 38.3438 36.1599 40.6648 35.9057 42.9799C35.9057 43.0876 35.7142 43.2312 35.5856 43.279C33.8538 43.7217 32.119 44.1494 30.3812 44.5741C30.2388 44.6096 30.0899 44.6096 29.9475 44.5741C28.3801 44.1464 26.8158 43.7157 25.2575 43.2641C25.1763 43.2282 25.1041 43.1746 25.0462 43.1074C24.9882 43.0401 24.946 42.9608 24.9225 42.8752C24.8208 42.3907 24.7789 41.8941 24.7101 41.4036L24.3482 38.8672H17.702Z" fill="black"/>
<path d="M33.4436 1C33.4436 1.49951 33.4197 2.00201 33.4107 2.49553C33.4107 2.79464 33.4107 3.07281 33.4107 3.39285H29.6121V3.86843H33.3838V9.31217C33.1176 9.38695 27.2431 9.39891 26.8752 9.31217V6.87445H30.644L30.6679 6.41084C29.4027 6.37196 28.1584 6.41084 26.8693 6.38691C26.8364 5.92928 26.8693 5.48959 26.8543 5.02897C26.8393 4.56834 26.8543 4.13165 26.8543 3.69794V1H33.4436Z" fill="black"/>
<path d="M41.2924 1V3.39285C40.0182 3.4108 38.765 3.39285 37.4968 3.39285V3.85946C37.8062 3.88341 38.1168 3.8894 38.427 3.87741C38.7411 3.87741 39.0551 3.87741 39.3722 3.87741H41.2715V9.34807H34.742C34.742 8.5315 34.742 7.72392 34.742 6.87745H38.5317V6.40785H34.754C34.754 6.24035 34.733 6.10874 34.733 5.97115V1.41576C34.733 1.27817 34.7151 1.13759 34.7031 1H41.2924Z" fill="black"/>
<path d="M25.524 1V3.73683C25.1053 3.76674 24.6895 3.73683 24.2737 3.73683C23.858 3.73683 23.4333 3.73683 23.0145 3.73683H21.7433V6.48263C22.3684 6.50954 22.9936 6.48263 23.6187 6.48263H25.4672C25.5575 7.37713 25.5715 8.2777 25.5091 9.17458C25.2578 9.24338 19.3744 9.25534 18.9975 9.17458C18.9975 9.07887 18.9766 8.97717 18.9766 8.87548V1.27817C18.9766 1.18545 18.9945 1.09272 19.0035 1H25.524Z" fill="black"/>
</g>
<defs>
<clipPath id="clip0_80_1115">
<rect width="46.2419" height="58.0925" fill="black" transform="translate(7 1)"/>
</clipPath>
</defs>
</svg>
