<svg width="60" height="60" viewBox="0 0 60 60" fill="none" xmlns="http://www.w3.org/2000/svg">
<path d="M24.3343 51.578V49.0849H23.7308C17.8302 49.0849 11.9296 49.0832 6.02894 49.0798C3.11215 49.0758 1.00603 46.9619 1 44.0379C1 31.7208 1 19.4033 1 7.08555C1 4.67458 2.36485 2.82731 4.59871 2.18554C4.9692 2.07695 5.35247 2.01898 5.73827 2.01318C7.63216 2 9.52707 2 11.421 2C12.2105 2 12.7989 2.55154 12.7798 3.2501C12.7607 3.96994 12.2004 4.46673 11.3908 4.46673C9.64776 4.46673 7.90373 4.46673 6.1607 4.46673C4.48807 4.47383 3.45412 5.49885 3.45412 7.1768C3.4501 16.8592 3.4501 26.5409 3.45412 36.222V36.6549H57.5494V36.1297C57.5494 26.5156 57.5494 16.9011 57.5494 7.28629C57.5494 5.47249 56.5496 4.47383 54.7453 4.47383H21.8067C21.6227 4.47383 21.4376 4.47991 21.2546 4.46369C20.9496 4.44368 20.664 4.30618 20.4569 4.07968C20.2498 3.85318 20.1371 3.55504 20.1421 3.24705C20.1362 2.93232 20.2515 2.6275 20.4638 2.39666C20.6761 2.16581 20.9689 2.02691 21.2807 2.00912C21.4306 1.99899 21.5824 2.00912 21.7333 2.00912C32.8292 2.00912 43.9263 2.00912 55.0249 2.00912C57.8411 2.00912 59.9925 4.15548 59.9945 7.00241C60.0018 18.914 60.0018 30.8262 59.9945 42.7391C59.9945 43.5107 59.6274 44.0075 59.0007 44.1038C58.3379 44.2052 57.7636 43.8645 57.5977 43.243C57.5566 43.0455 57.5407 42.8434 57.5504 42.6418C57.5504 41.5134 57.5504 40.3859 57.5504 39.2271H3.48932C3.47096 39.3443 3.45887 39.4624 3.45312 39.5809C3.45312 41.0673 3.44306 42.5546 3.45312 44.0419C3.46317 45.5293 4.50416 46.5898 5.98669 46.6101C7.3606 46.6283 8.73551 46.6151 10.1104 46.6151H52.0518C52.8624 46.6151 53.2959 46.9071 53.4599 47.553C53.5057 47.7241 53.5137 47.9033 53.4832 48.0779C53.4528 48.2525 53.3846 48.4182 53.2836 48.5633C53.1825 48.7084 53.0511 48.8293 52.8985 48.9176C52.746 49.0058 52.576 49.0591 52.4008 49.0738C52.2509 49.0869 52.099 49.0788 51.9482 49.0788H36.6793V51.578C37.0816 51.578 37.4839 51.578 37.8802 51.578C38.1082 51.5683 38.334 51.6275 38.5284 51.748C38.7228 51.8685 38.8771 52.0448 38.9715 52.2543C39.7952 53.8957 40.621 55.5371 41.4256 57.1887C41.8541 58.0678 41.2758 58.9944 40.3001 58.9954C33.7625 59.0015 27.2249 59.0015 20.6873 58.9954C19.7127 58.9954 19.1494 58.0688 19.5809 57.1827C20.3614 55.5767 21.1691 53.9839 21.9556 52.381C22.2312 51.8193 22.6486 51.5405 23.2772 51.576C23.6101 51.5922 23.945 51.578 24.3343 51.578ZM22.6838 56.4871H38.3147C37.9215 55.6902 37.5674 54.9481 37.1812 54.2232C37.1249 54.1167 36.9116 54.0427 36.7718 54.0427C32.5851 54.0326 28.3983 54.0326 24.2116 54.0427C24.0748 54.0427 23.8686 54.1258 23.8092 54.2333C23.4291 54.9562 23.076 55.6973 22.6858 56.4861L22.6838 56.4871ZM26.8075 51.5425H34.1498V49.0839C31.7801 49.0839 29.4578 49.0839 27.1344 49.0961C27.0268 49.0961 26.8326 49.2633 26.8256 49.3587C26.7964 50.0785 26.8085 50.7994 26.8085 51.5415L26.8075 51.5425Z" fill="black"/>
<path d="M17.0576 23.01L21.8156 25.4651C22.6174 25.8785 23.4215 26.286 24.2201 26.7053C24.9741 27.0982 25.2059 27.7905 24.8077 28.4111C24.4312 29.0003 23.6478 29.1781 22.9188 28.8039C19.8491 27.2327 16.7852 25.6513 13.7271 24.0598C12.7576 23.5531 12.7576 22.4532 13.7271 21.9455C16.7968 20.3429 19.8767 18.7524 22.9667 17.1739C23.1182 17.0909 23.2865 17.0362 23.4619 17.0128C23.6372 16.9895 23.8159 16.9981 23.9875 17.0381C24.159 17.0781 24.32 17.1487 24.4609 17.2457C24.6017 17.3427 24.7197 17.4642 24.8077 17.6031C25.1917 18.2237 24.9915 18.8964 24.2582 19.2794C22.0495 20.4322 19.8288 21.5684 17.6136 22.7115C17.446 22.7979 17.2817 22.8892 17.0576 23.01Z" fill="black"/>
<path d="M43.9466 22.9924L37.5181 19.6843C37.2352 19.5382 36.9468 19.4 36.6726 19.2421C36.0022 18.8568 35.8106 18.1715 36.1991 17.5861C36.286 17.4512 36.4018 17.3333 36.5397 17.2391C36.6776 17.1448 36.8349 17.0763 37.0025 17.0373C37.1701 16.9984 37.3446 16.9898 37.5159 17.0121C37.6872 17.0345 37.8518 17.0873 38.0003 17.1675C41.1019 18.7526 44.1977 20.3468 47.2877 21.9502C48.2257 22.4404 48.2421 23.5493 47.3083 24.0366C44.2234 25.6452 41.1276 27.2382 38.0209 28.8154C37.3027 29.1821 36.5594 28.9841 36.1937 28.384C35.8117 27.7555 36.0228 27.0849 36.7455 26.7113C38.9743 25.5563 41.2056 24.4069 43.4395 23.263C43.5929 23.1836 43.7431 23.1013 43.9466 22.9924Z" fill="black"/>
<path d="M27.4515 34C26.4084 34 25.7639 33.1411 26.0813 32.1663C26.5823 30.6217 27.0862 29.0771 27.5929 27.5325C29.0492 23.0877 30.5043 18.6426 31.9582 14.1971C32.1107 13.729 32.3407 13.3264 32.877 13.1235C33.4132 12.9205 33.9741 12.9603 34.4366 13.2985C34.8991 13.6366 35.1155 14.0951 34.9384 14.6405C34.1701 17.0082 33.4013 19.3759 32.6322 21.7436C31.4219 25.4504 30.2116 29.1551 29.0013 32.8577C28.7565 33.6103 28.2337 33.9968 27.4515 34Z" fill="black"/>
<path d="M30.4763 44.9856C30.0513 44.9856 29.6253 45.0064 29.2014 44.9856C28.4863 44.9428 27.9959 44.3214 28 43.4848C28 43.2909 28.0321 43.0989 28.0944 42.9199C28.1567 42.741 28.248 42.5786 28.363 42.4421C28.4781 42.3056 28.6145 42.1978 28.7646 42.1248C28.9146 42.0519 29.0752 42.0152 29.2371 42.017C30.086 41.995 30.937 41.9937 31.7859 42.017C32.109 42.0254 32.4166 42.1844 32.6433 42.4602C32.87 42.7359 32.998 43.1067 33 43.4936C33.002 43.8805 32.8779 44.2531 32.654 44.5322C32.4301 44.8113 32.1242 44.9748 31.8012 44.988C31.3609 45.0149 30.9176 44.988 30.4732 44.988L30.4763 44.9856Z" fill="black"/>
<path d="M16.4683 4.99967C16.0776 4.99772 15.7037 4.8409 15.4284 4.56361C15.1532 4.28631 14.9992 3.91117 15.0001 3.52047C14.9961 3.2216 15.0814 2.92833 15.2451 2.67828C15.4088 2.42823 15.6435 2.23279 15.9191 2.11704C16.1947 2.00129 16.4986 1.97051 16.7917 2.02864C17.0849 2.08678 17.3541 2.23117 17.5646 2.44331C17.7752 2.65545 17.9176 2.92565 17.9735 3.21926C18.0294 3.51287 17.9964 3.8165 17.8786 4.0912C17.7608 4.3659 17.5636 4.59914 17.3123 4.761C17.0611 4.92287 16.7672 5.00598 16.4683 4.99967Z" fill="black"/>
<path d="M57.6521 46.0006C58.106 45.989 58.5461 46.1577 58.8758 46.4698C59.2055 46.7819 59.3979 47.2118 59.411 47.6655C59.4346 48.5715 58.6294 49.3928 57.709 49.4025C57.2553 49.3978 56.8217 49.2148 56.5019 48.8932C56.1821 48.5715 56.0018 48.137 56 47.6835C56.001 47.243 56.1744 46.8203 56.4831 46.5058C56.7918 46.1913 57.2113 46.01 57.6521 46.0006Z" fill="black"/>
</svg>
