<svg width="60" height="60" viewBox="0 0 60 60" fill="none" xmlns="http://www.w3.org/2000/svg">
<g clip-path="url(#clip0_80_1116)">
<path d="M60 19.6716V39.7383C59.9867 39.9809 59.964 40.2229 59.9607 40.4656C59.9273 42.6876 59.9007 44.9096 59.862 47.1323C59.8619 47.5321 59.8289 47.9312 59.7633 48.3256C58.968 52.6496 56.6087 55.8716 52.8047 58.0296C51.0327 59.0349 49.122 59.6203 47.0593 59.6296C45.182 59.6416 43.3047 59.6643 41.4273 59.6876C40.774 59.6956 40.12 59.7189 39.4667 59.7349H17.8667C17.3467 59.7189 16.826 59.7003 16.306 59.6863C14.8393 59.6483 13.3613 59.7256 11.9113 59.5529C8.22467 59.1143 5.24467 57.3323 2.95333 54.4329C1.2 52.2183 0.164667 49.7029 0.127333 46.8316C0.0993333 44.6983 0.0697778 42.5649 0.0386667 40.4316C0.0386667 40.2443 0.0133333 40.0576 0 39.8703V19.5383C0.0133333 19.3736 0.036 19.2089 0.038 19.0436C0.0726667 16.7883 0.1 14.5336 0.139333 12.2783C0.14191 11.9008 0.174007 11.5241 0.235333 11.1516C0.88 7.51028 2.72267 4.59695 5.678 2.40495C7.90267 0.758281 10.392 -0.166385 13.2073 -0.145052C15.484 -0.128385 17.762 -0.182385 20.0393 -0.211719C20.782 -0.219052 21.524 -0.244385 22.2667 -0.261719H37.6C37.7333 -0.249719 37.8627 -0.227719 37.9947 -0.226385C41.1047 -0.191052 44.2153 -0.159719 47.328 -0.121719C47.7495 -0.12286 48.1703 -0.0905362 48.5867 -0.0250521C52.2193 0.604281 55.1253 2.44161 57.3093 5.38428C58.966 7.61895 59.8933 10.1223 59.882 12.9456C59.8747 14.8556 59.928 16.7669 59.958 18.6789C59.9627 19.0089 59.9853 19.3383 60 19.6716ZM2.35067 29.7023C2.35067 35.3352 2.35289 40.9678 2.35733 46.6003C2.35733 47.3336 2.342 48.0876 2.516 48.7869C3.43133 52.4536 5.59333 55.1149 9.09 56.6183C10.0753 57.0423 11.09 57.4296 12.1933 57.4296C23.8693 57.4345 35.5456 57.4376 47.222 57.4389C47.953 57.444 48.6811 57.3459 49.3847 57.1476C52.98 56.1229 55.5573 53.9556 56.956 50.4589C57.444 49.2376 57.7207 47.9869 57.7173 46.6403C57.6871 35.2416 57.6838 23.8432 57.7073 12.4449C57.712 11.7463 57.6178 11.0505 57.4273 10.3783C56.3607 6.64495 54.0647 4.03428 50.4127 2.64895C49.3247 2.23628 48.2207 1.99295 47.0373 2.02228C45.05 2.07095 43.0607 2.02761 41.072 2.03028C31.64 2.04361 22.208 2.05917 12.776 2.07695C12.3316 2.06903 11.8873 2.09667 11.4473 2.15961C6.03867 3.04161 2.26133 8.03028 2.33333 12.7063C2.41467 18.3703 2.35067 24.0369 2.35067 29.7023Z" fill="black"/>
<g clip-path="url(#clip1_80_1116)">
<path d="M23.4218 50.8842C23.0648 50.8196 22.7077 50.7661 22.3538 50.6883C19.3323 50.0213 16.9377 47.5094 16.5001 44.4685C16.092 41.6483 16.9953 39.2835 19.1441 37.3964C19.1696 37.3745 19.1951 37.3511 19.2303 37.318C17.3906 35.7612 16.4026 33.78 16.4037 31.3745C16.4037 28.9781 17.3931 27.005 19.2328 25.439C18.5589 24.8876 17.9806 24.2293 17.5212 23.4904C14.7782 19.1205 17.2957 13.1504 22.3507 12.0759C22.965 11.9471 23.5908 11.8811 24.2185 11.879C28.0856 11.8617 31.9532 11.8678 35.8203 11.8703C39.565 11.8703 42.6548 14.2855 43.4199 17.936C44.0187 20.7893 43.1542 23.2329 41.0181 25.2243C40.9559 25.2823 40.8901 25.3362 40.8274 25.3927C40.8117 25.4119 40.7978 25.4325 40.7861 25.4543C42.5992 26.9969 43.5704 28.9618 43.5994 31.3465C43.6198 33.0382 43.1078 34.5844 42.0831 35.9392C40.8656 37.549 39.2554 38.5473 37.2602 38.8958C35.2649 39.2443 33.4247 38.8256 31.6921 37.7337V38.0191C31.6921 39.7571 31.7033 41.4956 31.6895 43.2336C31.6691 45.8121 30.6057 47.8768 28.5426 49.4199C27.4419 50.2457 26.1872 50.7112 24.8137 50.8404C24.7567 50.8506 24.7006 50.8653 24.6459 50.8842H23.4218ZM28.2952 15.2695H28.0106C26.7279 15.2695 25.4451 15.2629 24.1624 15.2741C23.8148 15.2774 23.4682 15.3123 23.127 15.3784C20.9394 15.8042 19.4037 18.1258 19.8684 20.2942C20.3157 22.3889 22.0105 23.757 24.1624 23.759C25.4453 23.759 26.728 23.759 28.0106 23.759H28.2942L28.2952 15.2695ZM31.7048 23.7453C31.7823 23.7499 31.8323 23.756 31.8823 23.756C33.2411 23.756 34.6003 23.7626 35.9596 23.7514C36.2737 23.75 36.5867 23.7142 36.8929 23.6445C38.9994 23.1505 40.3847 21.2451 40.1847 19.1352C39.972 16.891 38.1563 15.2685 35.9223 15.2685C34.6058 15.2685 33.2892 15.2685 31.9726 15.2685C31.8838 15.2685 31.7951 15.2761 31.7048 15.2807V23.7453ZM28.2993 27.1516C28.2587 27.1438 28.2176 27.1384 28.1764 27.1353C26.783 27.1353 25.3895 27.1099 23.9971 27.1404C21.7402 27.1913 19.928 28.9262 19.8046 31.115C19.7688 31.6952 19.8528 32.2765 20.0514 32.823C20.2501 33.3695 20.5591 33.8694 20.9594 34.2919C21.3597 34.7143 21.8427 35.0503 22.3785 35.2788C22.9143 35.5074 23.4914 35.6238 24.0741 35.6207H28.2993V27.1516ZM28.308 39.0331C28.2269 39.0275 28.1769 39.0209 28.1269 39.0209C26.7411 39.0209 25.3559 39.0184 23.9706 39.0209C23.7585 39.0235 23.547 39.0418 23.3376 39.0759C21.0006 39.4437 19.3869 41.7841 19.8816 44.0792C20.3809 46.3952 22.4976 47.8203 24.8463 47.4209C26.6473 47.1156 28.1432 45.5028 28.2636 43.6824C28.3202 42.8383 28.2988 41.9887 28.3059 41.141C28.3126 40.447 28.308 39.7531 28.308 39.0331ZM40.2021 31.3979C40.2048 30.2708 39.759 29.1888 38.9626 28.3894C38.1662 27.59 37.0843 27.1386 35.9545 27.1343C33.6358 27.1221 31.7043 29.0397 31.6941 31.3633C31.6839 33.6869 33.5991 35.6172 35.9223 35.6207C38.2864 35.6248 40.198 33.7388 40.2021 31.3979Z" fill="black"/>
</g>
</g>
<defs>
<clipPath id="clip0_80_1116">
<rect width="60" height="60" fill="black"/>
</clipPath>
<clipPath id="clip1_80_1116">
<rect width="27.2131" height="39.0164" fill="black" transform="translate(16.3945 11.8672)"/>
</clipPath>
</defs>
</svg>
