<svg width="60" height="60" viewBox="0 0 60 60" fill="none" xmlns="http://www.w3.org/2000/svg">
<g clip-path="url(#clip0_81_1145)">
<g clip-path="url(#clip1_81_1145)">
<path d="M60 19.6716V39.7383C59.9867 39.9809 59.964 40.2229 59.9607 40.4656C59.9273 42.6876 59.9007 44.9096 59.862 47.1323C59.8619 47.5321 59.8289 47.9312 59.7633 48.3256C58.968 52.6496 56.6087 55.8716 52.8047 58.0296C51.0327 59.0349 49.122 59.6203 47.0593 59.6296C45.182 59.6416 43.3047 59.6643 41.4273 59.6876C40.774 59.6956 40.12 59.7189 39.4667 59.7349H17.8667C17.3467 59.7189 16.826 59.7003 16.306 59.6863C14.8393 59.6483 13.3613 59.7256 11.9113 59.5529C8.22467 59.1143 5.24467 57.3323 2.95333 54.4329C1.2 52.2183 0.164667 49.7029 0.127333 46.8316C0.0993333 44.6983 0.0697778 42.5649 0.0386667 40.4316C0.0386667 40.2443 0.0133333 40.0576 0 39.8703V19.5383C0.0133333 19.3736 0.036 19.2089 0.038 19.0436C0.0726667 16.7883 0.1 14.5336 0.139333 12.2783C0.14191 11.9008 0.174007 11.5241 0.235333 11.1516C0.88 7.51028 2.72267 4.59695 5.678 2.40495C7.90267 0.758281 10.392 -0.166385 13.2073 -0.145052C15.484 -0.128385 17.762 -0.182385 20.0393 -0.211719C20.782 -0.219052 21.524 -0.244385 22.2667 -0.261719H37.6C37.7333 -0.249719 37.8627 -0.227719 37.9947 -0.226385C41.1047 -0.191052 44.2153 -0.159719 47.328 -0.121719C47.7495 -0.12286 48.1703 -0.0905362 48.5867 -0.0250521C52.2193 0.604281 55.1253 2.44161 57.3093 5.38428C58.966 7.61895 59.8933 10.1223 59.882 12.9456C59.8747 14.8556 59.928 16.7669 59.958 18.6789C59.9627 19.0089 59.9853 19.3383 60 19.6716ZM2.35067 29.7023C2.35067 35.3352 2.35289 40.9678 2.35733 46.6003C2.35733 47.3336 2.342 48.0876 2.516 48.7869C3.43133 52.4536 5.59333 55.1149 9.09 56.6183C10.0753 57.0423 11.09 57.4296 12.1933 57.4296C23.8693 57.4345 35.5456 57.4376 47.222 57.4389C47.953 57.444 48.6811 57.3459 49.3847 57.1476C52.98 56.1229 55.5573 53.9556 56.956 50.4589C57.444 49.2376 57.7207 47.9869 57.7173 46.6403C57.6871 35.2416 57.6838 23.8432 57.7073 12.4449C57.712 11.7463 57.6178 11.0505 57.4273 10.3783C56.3607 6.64495 54.0647 4.03428 50.4127 2.64895C49.3247 2.23628 48.2207 1.99295 47.0373 2.02228C45.05 2.07095 43.0607 2.02761 41.072 2.03028C31.64 2.04361 22.208 2.05917 12.776 2.07695C12.3316 2.06903 11.8873 2.09667 11.4473 2.15961C6.03867 3.04161 2.26133 8.03028 2.33333 12.7063C2.41467 18.3703 2.35067 24.0369 2.35067 29.7023Z" fill="black"/>
<g clip-path="url(#clip2_81_1145)">
<path d="M26.549 13.069V12.0961C26.549 11.5116 27.0344 11.024 27.6855 11.0144C28.9194 10.9963 30.1534 10.9953 31.3873 11.0114C32.0581 11.0211 32.5439 11.5123 32.5451 12.1188C32.5451 12.4275 32.5451 12.7361 32.5451 13.0656H48.4547C48.609 12.5587 48.9252 12.1042 49.3637 11.7589C50.2624 11.0523 51.5741 10.9363 52.646 11.4725C53.6771 11.9887 54.2472 13.0745 54.0531 14.1526C53.863 15.2084 52.9166 16.0916 51.753 16.2664C50.8382 16.4036 50.0201 16.2135 49.3205 15.6342C48.9561 15.3326 48.7105 14.9719 48.539 14.5617C48.4901 14.4438 48.4354 14.3757 48.2688 14.3757C44.6161 14.3814 40.963 14.3831 37.3098 14.3806C37.2654 14.3806 37.2209 14.3843 37.1144 14.3888C40.838 15.7941 43.8443 17.9338 46.1221 20.8828C48.3955 23.8251 49.5842 27.1054 49.761 30.7044C50.1094 30.7044 50.4434 30.7044 50.7778 30.7044C51.5371 30.7044 52.043 31.157 52.0446 31.842C52.0476 32.9018 52.0476 33.9615 52.0446 35.0211C52.0446 35.6533 51.5231 36.1289 50.8238 36.1297C49.8301 36.1297 48.8364 36.1215 47.8427 36.1163C47.5761 36.1163 47.3051 36.1397 47.0443 36.104C46.452 36.0226 46.0477 35.5834 46.0448 35.0397C46.0399 33.9613 46.0399 32.8828 46.0448 31.8044C46.0477 31.1782 46.5602 30.7156 47.2524 30.7051C47.5938 30.6999 47.9356 30.7051 48.3107 30.7051C48.1252 27.1169 46.8621 23.8998 44.4674 21.0535C41.0305 16.9688 36.2313 15.0871 32.5451 14.6067C32.5451 14.8369 32.5451 15.0637 32.5451 15.2909C32.5451 15.9748 32.038 16.4322 31.2816 16.4326C30.1162 16.4326 28.9508 16.4326 27.7854 16.4326C27.0578 16.4326 26.5466 15.9696 26.5429 15.3106C26.5429 15.0823 26.5429 14.854 26.5429 14.5885C22.2414 15.2504 18.6193 17.0101 15.6937 19.8988C12.6088 22.9441 10.9994 26.5554 10.7728 30.7037H11.7879C12.5175 30.7037 13.0383 31.1607 13.042 31.8193C13.0485 32.8605 13.0485 33.9018 13.042 34.943C13.0395 35.4395 12.831 35.8355 12.2983 36.0345C12.1218 36.0959 11.9342 36.1273 11.7451 36.1271C10.6074 36.1356 9.46972 36.1319 8.3312 36.1312C7.54971 36.1312 7.04215 35.6738 7.04215 34.9717C7.04215 33.9245 7.04215 32.8771 7.04215 31.8297C7.04215 31.167 7.54971 30.7066 8.27897 30.7044C8.62077 30.7044 8.96257 30.7044 9.27434 30.7044C9.97056 23.0239 14.1696 17.5822 21.8716 14.3791H12.3292C11.8232 14.3791 11.3173 14.385 10.8114 14.3757C10.667 14.3731 10.6173 14.4189 10.5733 14.5379C10.162 15.6498 8.96915 16.3801 7.69737 16.3099C6.41449 16.2392 5.33027 15.4021 5.06497 14.2761C4.74662 12.9332 5.62724 11.5978 7.0693 11.2327C7.77604 11.051 8.53292 11.1211 9.18423 11.4285C9.83555 11.736 10.3318 12.2575 10.5708 12.8856C10.593 12.944 10.6148 13.002 10.6399 13.069H26.549ZM11.5871 32.0201H8.49244V34.8092H11.5871V32.0201ZM47.4947 32.0145V34.8017H50.589V32.0145H47.4947ZM31.0883 15.118V12.3338H28.0034V15.118H31.0883ZM9.27105 13.7365C9.27105 12.9968 8.65162 12.4442 7.81953 12.4442C7.09727 12.4442 6.43917 13.0422 6.43917 13.6971C6.44246 14.4241 7.07711 15.0053 7.86683 15.0046C8.23758 15.0005 8.59191 14.8657 8.85424 14.6288C9.11657 14.3919 9.26614 14.0717 9.27105 13.7365ZM49.8161 13.7224C49.8171 14.0606 49.9656 14.3848 50.2295 14.6247C50.4933 14.8645 50.8512 15.0004 51.2253 15.0031C51.9969 15.0031 52.6464 14.4226 52.6488 13.7298C52.6513 13.0299 52.0121 12.4461 51.2426 12.445C51.0557 12.4428 50.8703 12.4743 50.6971 12.5376C50.5238 12.6009 50.3663 12.6947 50.2335 12.8136C50.1008 12.9325 49.9955 13.0741 49.9238 13.2301C49.8522 13.3861 49.8156 13.5534 49.8161 13.7224Z" fill="black"/>
<path d="M34.9358 39.6114C36.4654 40.0105 36.9216 41.1949 36.8085 42.0093C36.7191 42.6509 36.3886 43.1654 35.8172 43.5529C35.2475 43.9404 34.5886 44.0055 33.8742 43.9717C33.9293 44.1331 33.9729 44.2721 34.0247 44.4086C34.3812 45.345 34.7376 46.2809 35.0941 47.2163C35.3409 47.8637 35.6222 48.503 35.8205 49.1627C36.117 50.1481 35.3051 51.0016 34.2312 50.9986C31.8674 50.9912 29.5031 50.996 27.1393 50.9964C26.3928 50.9964 25.6463 50.9986 24.8997 50.9964C23.6625 50.9964 22.9222 50.0407 23.3265 48.9831C23.9397 47.3777 24.544 45.7689 25.1515 44.1617C25.1712 44.1096 25.1873 44.0565 25.2111 43.9869C24.9277 43.9758 24.6562 43.978 24.3885 43.9497C23.8337 43.8936 23.3171 43.6665 22.9256 43.3067C22.5341 42.9469 22.2914 42.4763 22.2383 41.9738C22.1852 41.4714 22.325 40.9677 22.6342 40.5474C22.9433 40.1271 23.403 39.8158 23.936 39.6657C24.001 39.6471 24.0668 39.6308 24.1503 39.6085C24.1257 39.5575 24.1039 39.5088 24.0784 39.4616C23.6753 38.7178 23.2763 37.9741 22.8666 37.2329C22.3807 36.3543 21.8895 35.4779 21.3929 34.6038C21.214 34.2903 21.2214 33.9972 21.395 33.6837C23.1998 30.4326 25.0013 27.1785 26.7996 23.9217C27.4336 22.7755 28.0673 21.6294 28.7007 20.4833C28.8718 20.1746 29.1531 19.9999 29.5352 19.9961C29.9252 19.9928 30.2131 20.1683 30.3883 20.4844C31.727 22.9031 33.065 25.3221 34.4023 27.7416L37.2403 32.8734C37.3966 33.1557 37.5501 33.4394 37.7096 33.7202C37.8799 34.0177 37.8655 34.3059 37.6981 34.6067C36.7985 36.2222 35.9033 37.8401 35.0127 39.4605C34.9847 39.5095 34.9617 39.5586 34.9358 39.6114ZM28.6254 24.4549L28.5843 24.4397C28.5489 24.4984 28.5119 24.5564 28.4786 24.6163C26.7469 27.749 25.0142 30.8813 23.2804 34.0132C23.2533 34.0546 23.2391 34.1018 23.2391 34.1499C23.2391 34.198 23.2533 34.2452 23.2804 34.2866C23.8598 35.3246 24.4356 36.3641 25.0079 37.4051C25.3814 38.0801 25.7569 38.7543 26.1259 39.4311C26.1773 39.5252 26.232 39.5683 26.3562 39.5679C28.481 39.5642 30.6062 39.5642 32.7315 39.5679C32.8549 39.5679 32.9142 39.5307 32.9639 39.4318C33.0849 39.1968 33.2185 38.967 33.3469 38.7353C34.158 37.2691 34.9702 35.8033 35.7835 34.3379C35.8596 34.2014 35.8583 34.0991 35.7835 33.963C34.9033 32.3828 34.0276 30.8007 33.1564 29.2168C32.3812 27.8173 31.6059 26.4178 30.8305 25.0183C30.7235 24.8253 30.6141 24.6338 30.5059 24.4415C30.4919 24.4552 30.4811 24.4713 30.4741 24.4888C30.467 24.5062 30.4638 24.5248 30.4648 24.5434C30.4648 26.9108 30.4638 29.2784 30.4619 31.6462C30.4619 31.7623 30.5063 31.8147 30.619 31.8694C31.554 32.3245 32.2046 32.9906 32.2947 33.976C32.4424 35.6 30.858 36.8811 29.0754 36.6164C27.5782 36.3932 26.5302 35.0545 26.835 33.7191C27.0254 32.8831 27.6008 32.2929 28.4189 31.8969C28.5913 31.814 28.6291 31.7266 28.6291 31.5704C28.625 29.2895 28.624 27.0087 28.6262 24.7279L28.6254 24.4549ZM24.8722 49.5022H34.2114C34.181 49.4141 34.1588 49.3449 34.1329 49.2772C33.4868 47.5686 32.8416 45.8594 32.1972 44.1498C32.1467 44.0141 32.0837 43.972 31.927 43.9724C30.7141 43.9765 29.5003 43.9724 28.2881 43.9698C27.8452 43.9698 27.4026 43.9698 26.9658 43.9698C26.2649 45.8266 25.571 47.6555 24.8722 49.5022ZM29.5258 42.4868H30.5541C31.8086 42.4868 33.0631 42.4868 34.3176 42.4868C34.5866 42.4868 34.8189 42.4161 34.9913 42.2265C35.1969 42.0011 35.2405 41.7479 35.1036 41.4797C34.9518 41.1822 34.6816 41.0539 34.3282 41.0539H27.994C26.9043 41.0539 25.8146 41.0539 24.7249 41.0539C24.3186 41.0539 24.0076 41.2536 23.9089 41.5634C23.7555 42.0468 24.1335 42.4842 24.713 42.4853C26.3174 42.4885 27.9217 42.489 29.5258 42.4868ZM28.6324 34.124C28.6285 34.2326 28.6482 34.3407 28.6905 34.4423C28.7328 34.5439 28.7968 34.637 28.8789 34.7163C28.9609 34.7955 29.0595 34.8594 29.1688 34.9042C29.2782 34.949 29.3963 34.9739 29.5163 34.9775C29.6363 34.9811 29.756 34.9632 29.8683 34.925C29.9807 34.8868 30.0837 34.8289 30.1714 34.7547C30.259 34.6805 30.3296 34.5914 30.3792 34.4925C30.4288 34.3936 30.4563 34.2869 30.4603 34.1783C30.4654 33.9592 30.3761 33.7468 30.2111 33.5861C30.0461 33.4254 29.8185 33.3291 29.5764 33.3174C29.0873 33.2992 28.646 33.6767 28.6324 34.124Z" fill="black"/>
</g>
</g>
</g>
<defs>
<clipPath id="clip0_81_1145">
<rect width="60" height="60" fill="black"/>
</clipPath>
<clipPath id="clip1_81_1145">
<rect width="60" height="60" fill="black" transform="translate(0 -0.261719)"/>
</clipPath>
<clipPath id="clip2_81_1145">
<rect width="49.0909" height="40" fill="black" transform="translate(5 11)"/>
</clipPath>
</defs>
</svg>
