<svg width="60" height="60" viewBox="0 0 60 60" fill="none" xmlns="http://www.w3.org/2000/svg">
<g clip-path="url(#clip0_76_1052)">
<g clip-path="url(#clip1_76_1052)">
<path d="M50.9765 12.8984C50.818 14.7619 50.6774 16.5685 50.5099 18.3721C49.5448 29.2356 48.5757 40.1032 47.6026 50.9747C47.5817 51.2349 47.5398 51.4922 47.5039 51.7494C47.3603 52.7694 47.5368 54.0555 46.9775 54.7405C46.4181 55.4254 45.1499 55.4015 44.1838 55.6707C39.9215 56.8671 35.6593 58.0635 31.385 59.2031C30.8208 59.3603 30.226 59.3717 29.6562 59.236C24.6671 57.8841 19.696 56.4543 14.7009 55.1233C13.8245 54.89 13.6211 54.4443 13.5553 53.6607C13.0368 47.6167 12.5024 41.5728 11.9521 35.5288C11.31 28.2506 10.6589 20.9773 9.99892 13.709C9.97499 13.4608 9.99892 13.2065 9.99892 12.8984H50.9765ZM19.1247 39.3484C19.355 42.0404 19.5404 44.5649 19.8246 47.0714C19.8635 47.3944 20.3869 47.8132 20.7608 47.9208C23.7518 48.8002 26.7728 49.6317 29.7908 50.4363C30.2524 50.548 30.7345 50.5429 31.1936 50.4214C34.1847 49.6257 37.1399 48.7553 40.1279 47.9836C40.9445 47.7743 41.1628 47.3525 41.2197 46.5928C41.3961 44.2179 41.6384 41.846 41.8448 39.4741C42.0631 36.9616 42.2695 34.4461 42.4939 31.787H23.71C23.5664 30.0133 23.4318 28.3712 23.2912 26.6125H29.6143C33.7121 26.6125 37.8098 26.6274 41.9076 26.5856C42.2815 26.5856 42.9395 26.2715 42.9754 26.0292C43.2027 24.5337 43.2745 23.0082 43.4301 21.411H17.5334C17.5633 21.8387 17.5783 22.1678 17.6082 22.4968C18.003 26.9086 18.4367 31.3174 18.7717 35.7352C18.8465 36.7193 19.0918 37.0573 20.1297 37.0453C25.2324 36.9915 30.3352 37.0214 35.4379 37.0214H36.751C36.5656 39.172 36.413 41.17 36.1977 43.162C36.1707 43.3954 35.8238 43.6705 35.5636 43.7872C35.1598 43.9666 34.6842 43.9756 34.2744 44.1431C31.717 45.202 29.1896 45.1212 26.6053 44.1431C24.8884 43.5 24.8376 43.6316 24.6252 41.7503C24.6064 41.1925 24.5413 40.6373 24.4308 40.0902C24.3471 39.7911 23.9971 39.3754 23.7488 39.3634C22.2623 39.3155 20.7847 39.3484 19.1247 39.3484Z" fill="black"/>
<path d="M35.2595 4.47164C36.2167 2.46164 37.105 0.822535 39.5338 1.77968V9.15266C39.4068 9.2064 39.2744 9.24651 39.1389 9.2723C37.099 9.43382 37.099 9.43082 37.096 7.41185V5.81163L36.8209 5.76378L35.2206 8.15663L33.6294 5.78471L33.4051 5.81462V9.20949H30.9883V1.78566C33.42 0.75374 34.2575 2.55137 35.2595 4.47164Z" fill="black"/>
<path d="M16.1607 1.67765L16.2923 4.0705H18.5835C18.6972 3.24497 18.5566 2.24595 18.9903 1.74345C19.3223 1.36059 20.3781 1.60287 21.1917 1.561V9.3258C20.3991 9.25701 19.3701 9.4604 18.9215 9.04165C18.4728 8.6229 18.7001 7.59697 18.6224 6.76545H16.403C16.2535 7.60594 16.3133 8.56009 15.8796 9.15831C15.6403 9.48732 14.5695 9.21514 13.8008 9.21514V1.67765H16.1607Z" fill="black"/>
<path d="M22.5391 3.89308V1.67969H29.5232V3.99178L27.3248 4.15031V9.05566C27.1513 9.18128 27.1244 9.21717 27.0945 9.22017C24.92 9.58508 24.8123 9.49534 24.8123 7.33879C24.8123 7.11446 24.8123 6.89013 24.8123 6.66879C24.7883 5.88812 25.0187 4.93995 24.6508 4.3866C24.3756 3.95888 23.3347 4.04562 22.5391 3.89308Z" fill="black"/>
<path d="M41.1055 1.67687C43.5312 1.41664 43.5312 1.41664 43.5312 3.72575V6.82449H47.1654V9.21734H41.1055V1.67687Z" fill="black"/>
</g>
</g>
<defs>
<clipPath id="clip0_76_1052">
<rect width="60" height="60" fill="black"/>
</clipPath>
<clipPath id="clip1_76_1052">
<rect width="108.815" height="58.3108" fill="black" transform="translate(10 1)"/>
</clipPath>
</defs>
</svg>
