<svg width="60" height="60" viewBox="0 0 60 60" fill="none" xmlns="http://www.w3.org/2000/svg">
<g clip-path="url(#clip0_80_1117)">
<g clip-path="url(#clip1_80_1117)">
<path d="M29.8805 -0.412199C35.5322 -0.412199 41.1861 -0.468029 46.8442 -0.399315C53.7843 -0.311275 59.683 5.25025 59.844 12.1817C60.0587 21.5869 59.9986 30.9986 59.9879 40.4081C59.9879 43.2618 60.0823 46.1757 59.5584 48.9565C58.4504 54.911 52.8803 59.431 46.8421 59.4783C35.7849 59.5527 24.7291 59.5599 13.6748 59.4998C6.94728 59.4547 1.62626 55.0956 0.25413 48.7138C0.0648692 47.6945 -0.0171754 46.6581 0.00933745 45.6217C0.00933745 34.3162 -0.057229 23.0106 0.108113 11.7072C0.1983 5.61958 6.20431 -0.218941 12.279 -0.360663C18.1433 -0.485207 24.0141 -0.386431 29.8869 -0.386431L29.8805 -0.412199ZM2.27689 29.4654C2.27689 35.4027 2.22321 41.3421 2.29407 47.288C2.35205 52.3578 7.46263 57.2537 12.5539 57.2558C24.0355 57.2558 35.5301 57.273 47.001 57.2279C48.1711 57.1937 49.3294 56.9831 50.4367 56.603C54.7313 55.2245 57.7611 50.6722 57.7268 46.2487C57.6344 35.1601 57.6645 24.0714 57.7268 12.9827C57.772 10.6087 57.0506 8.28335 55.6696 6.35181C53.7972 3.70848 51.1818 1.87253 47.9737 1.84247C36.0626 1.6986 24.1493 1.76732 12.2382 1.84247C7.20281 1.87468 2.34131 6.83066 2.29407 11.8704C2.23609 17.7325 2.27689 23.599 2.27689 29.4654Z" fill="black"/>
<path d="M14.6246 43.895H11.3672V12.8815C11.7816 12.8622 12.1295 12.83 12.4795 12.8321C15.84 12.8686 19.2027 13.0125 22.5589 12.9266C26.3275 12.8321 28.8935 14.9601 29.9199 18.1639C31.1987 22.0441 30.9859 26.2616 29.323 29.9934C28.3309 32.276 26.2781 33.4076 23.8581 33.5837C21.2598 33.7727 18.6423 33.719 16.0354 33.7662C15.606 33.7662 15.1765 33.7662 14.6246 33.7662V43.895ZM14.5817 30.4959C17.5428 30.4959 20.3365 30.6311 23.1108 30.4486C25.0198 30.3219 26.6066 29.2204 26.9094 27.2277C27.2401 25.0632 27.4634 22.8042 27.2186 20.6462C26.8514 17.4252 24.9897 16.0466 21.7236 15.9908C19.6858 15.9565 17.6438 15.9736 15.6081 15.8963C14.805 15.8684 14.5581 16.1111 14.5667 16.9206C14.6032 20.2811 14.5817 23.6438 14.5817 27.0129V30.4959Z" fill="black"/>
<path d="M46.9903 22.3875C46.6167 23.3838 46.3096 24.2106 46.0777 24.829C44.4823 24.5885 43.0243 24.2514 41.5555 24.1848C40.6991 24.1859 39.8575 24.4078 39.1119 24.829C37.2158 25.8597 37.1041 28.2282 38.9422 29.3383C40.2435 30.1221 41.7187 30.6267 43.1295 31.2237C44.2461 31.6961 45.4335 32.031 46.5007 32.5936C48.9487 33.882 50.1404 35.9778 49.9493 38.7478C49.7711 41.3353 48.3281 43.1756 45.9489 43.9507C42.4917 45.0781 39.0367 45.0781 35.9832 42.6624C34.6562 41.6123 33.997 40.1865 33.8359 38.3849L36.81 38.1595C38.2078 41.3095 41.6693 42.5528 44.755 41.0583C47.1406 39.9031 47.4284 36.9312 45.1694 35.544C43.7865 34.698 42.1804 34.217 40.6794 33.5621C39.4705 33.036 38.1864 32.628 37.0848 31.9323C35.2596 30.7749 34.1237 29.0828 34.3749 26.8174C34.639 24.4339 35.8909 22.6301 38.1713 21.7841C41.1196 20.6997 44.0356 20.9896 46.9903 22.3875Z" fill="black"/>
</g>
</g>
<defs>
<clipPath id="clip0_80_1117">
<rect width="60" height="60" fill="black"/>
</clipPath>
<clipPath id="clip1_80_1117">
<rect width="60" height="59.9742" fill="black" transform="translate(0 -0.433594)"/>
</clipPath>
</defs>
</svg>
