<svg width="60" height="60" viewBox="0 0 60 60" fill="none" xmlns="http://www.w3.org/2000/svg">
<g clip-path="url(#clip0_81_1140)">
<g clip-path="url(#clip1_81_1140)">
<path d="M60 19.6716V39.7383C59.9867 39.9809 59.964 40.2229 59.9607 40.4656C59.9273 42.6876 59.9007 44.9096 59.862 47.1323C59.8619 47.5321 59.8289 47.9312 59.7633 48.3256C58.968 52.6496 56.6087 55.8716 52.8047 58.0296C51.0327 59.0349 49.122 59.6203 47.0593 59.6296C45.182 59.6416 43.3047 59.6643 41.4273 59.6876C40.774 59.6956 40.12 59.7189 39.4667 59.7349H17.8667C17.3467 59.7189 16.826 59.7003 16.306 59.6863C14.8393 59.6483 13.3613 59.7256 11.9113 59.5529C8.22467 59.1143 5.24467 57.3323 2.95333 54.4329C1.2 52.2183 0.164667 49.7029 0.127333 46.8316C0.0993333 44.6983 0.0697778 42.5649 0.0386667 40.4316C0.0386667 40.2443 0.0133333 40.0576 0 39.8703V19.5383C0.0133333 19.3736 0.036 19.2089 0.038 19.0436C0.0726667 16.7883 0.1 14.5336 0.139333 12.2783C0.14191 11.9008 0.174007 11.5241 0.235333 11.1516C0.88 7.51028 2.72267 4.59695 5.678 2.40495C7.90267 0.758281 10.392 -0.166385 13.2073 -0.145052C15.484 -0.128385 17.762 -0.182385 20.0393 -0.211719C20.782 -0.219052 21.524 -0.244385 22.2667 -0.261719H37.6C37.7333 -0.249719 37.8627 -0.227719 37.9947 -0.226385C41.1047 -0.191052 44.2153 -0.159719 47.328 -0.121719C47.7495 -0.12286 48.1703 -0.0905362 48.5867 -0.0250521C52.2193 0.604281 55.1253 2.44161 57.3093 5.38428C58.966 7.61895 59.8933 10.1223 59.882 12.9456C59.8747 14.8556 59.928 16.7669 59.958 18.6789C59.9627 19.0089 59.9853 19.3383 60 19.6716ZM2.35067 29.7023C2.35067 35.3352 2.35289 40.9678 2.35733 46.6003C2.35733 47.3336 2.342 48.0876 2.516 48.7869C3.43133 52.4536 5.59333 55.1149 9.09 56.6183C10.0753 57.0423 11.09 57.4296 12.1933 57.4296C23.8693 57.4345 35.5456 57.4376 47.222 57.4389C47.953 57.444 48.6811 57.3459 49.3847 57.1476C52.98 56.1229 55.5573 53.9556 56.956 50.4589C57.444 49.2376 57.7207 47.9869 57.7173 46.6403C57.6871 35.2416 57.6838 23.8432 57.7073 12.4449C57.712 11.7463 57.6178 11.0505 57.4273 10.3783C56.3607 6.64495 54.0647 4.03428 50.4127 2.64895C49.3247 2.23628 48.2207 1.99295 47.0373 2.02228C45.05 2.07095 43.0607 2.02761 41.072 2.03028C31.64 2.04361 22.208 2.05917 12.776 2.07695C12.3316 2.06903 11.8873 2.09667 11.4473 2.15961C6.03867 3.04161 2.26133 8.03028 2.33333 12.7063C2.41467 18.3703 2.35067 24.0369 2.35067 29.7023Z" fill="black"/>
</g>
<g clip-path="url(#clip2_81_1140)">
<path d="M9.03675 19.3516C11.177 20.6069 13.2001 21.7644 15.1829 22.9621C19.2745 25.4227 23.3544 27.9002 27.4227 30.3946C27.7289 30.5831 28.0614 31.0318 28.0632 31.3618C28.1017 38.3996 28.0947 45.4375 28.0947 52.4753C28.0947 52.6168 28.0649 52.7582 28.0387 52.9991C27.8119 52.9359 27.5911 52.8529 27.3789 52.7512C21.4521 49.1639 15.5317 45.5655 9.61776 41.9561C9.45235 41.8418 9.31358 41.6933 9.2109 41.5206C9.10822 41.348 9.04404 41.1553 9.02275 40.9557C9 33.9475 9 26.9376 9 19.9295C9 19.7898 9.01925 19.6501 9.03675 19.3516Z" fill="black"/>
<path d="M32.1016 52.8879V47.7478C32.1016 42.2773 32.1016 36.8067 32.1016 31.3361C32.1016 30.863 32.1821 30.547 32.6651 30.3008C38.4729 27.3478 44.2748 24.3774 50.071 21.3896C50.2197 21.3145 50.3772 21.2516 50.6782 21.1172C50.6782 21.7335 50.6782 22.2416 50.6782 22.7496C50.6992 29.3842 50.729 36.0187 50.722 42.6532C50.722 42.9832 50.5067 43.4825 50.2425 43.6205C44.332 46.6991 38.4081 49.7551 32.4708 52.7883C32.3504 52.8306 32.227 52.8639 32.1016 52.8879Z" fill="black"/>
<path d="M48.6005 18.1737C45.2264 19.9196 41.9924 21.5957 38.76 23.2631C36.0702 24.6493 33.3822 26.0426 30.6696 27.387C30.3529 27.5441 29.7946 27.5616 29.5093 27.387C23.5155 23.6838 17.5426 19.9493 11.4297 16.1362C11.7587 15.9389 11.9827 15.787 12.2225 15.6648C17.7059 12.841 23.1923 10.0161 28.6816 7.19005C29.2066 6.91943 29.5951 6.93864 30.1114 7.24243C36.072 10.775 42.0437 14.2907 48.0265 17.7896C48.1683 17.8769 48.3083 17.9781 48.6005 18.1737Z" fill="black"/>
</g>
</g>
<defs>
<clipPath id="clip0_81_1140">
<rect width="60" height="60" fill="black"/>
</clipPath>
<clipPath id="clip1_81_1140">
<rect width="60" height="60" fill="black" transform="translate(0 -0.261719)"/>
</clipPath>
<clipPath id="clip2_81_1140">
<rect width="41.7209" height="46" fill="black" transform="translate(9 7)"/>
</clipPath>
</defs>
</svg>
