<svg width="60" height="60" viewBox="0 0 60 60" fill="none" xmlns="http://www.w3.org/2000/svg">
<g clip-path="url(#clip0_76_1050)">
<path d="M23.258 51.5802V49.088H22.6444C16.6949 49.088 10.7453 49.0863 4.79571 49.0829C1.86081 49.0829 -0.266846 46.9657 -0.268874 44.0427C-0.274959 31.7299 -0.274959 19.4168 -0.268874 7.1033C-0.268874 4.69317 1.10629 2.84656 3.35868 2.205C3.73257 2.09638 4.11937 2.03843 4.50871 2.03271C6.41629 2.01953 8.3259 2.01953 10.2355 2.01953C11.0316 2.01953 11.6259 2.57088 11.6056 3.26919C11.5863 3.98878 11.0225 4.4854 10.2051 4.4854C8.4476 4.4854 6.6901 4.4854 4.9316 4.4854C3.24611 4.4854 2.20257 5.51209 2.20257 7.18945C2.20257 16.8685 2.20257 26.5468 2.20257 36.2245V36.6573H56.7467V36.1323C56.7467 26.5215 56.7467 16.9104 56.7467 7.29891C56.7467 5.48574 55.7397 4.48743 53.9193 4.48743H20.7074C20.5219 4.48743 20.3353 4.49351 20.1507 4.47729C19.8432 4.45729 19.5553 4.31984 19.3464 4.09342C19.1376 3.86699 19.024 3.56896 19.0291 3.26108C19.0244 2.94732 19.1412 2.6439 19.3551 2.41422C19.5691 2.18455 19.8636 2.0464 20.1771 2.02865C20.3292 2.01852 20.4813 2.02865 20.6334 2.02865C31.822 2.02865 43.0113 2.02865 54.2012 2.02865C57.0408 2.02865 59.21 4.17425 59.2121 7.02019C59.2202 18.9276 59.2202 30.8357 59.2121 42.7444C59.2121 43.5157 58.8419 44.0123 58.2101 44.1086C57.5418 44.2099 56.9627 43.8694 56.7903 43.2481C56.7489 43.0506 56.7329 42.8486 56.7426 42.6471C56.7426 41.5191 56.7426 40.392 56.7426 39.2336H2.23806C2.22488 39.3603 2.20257 39.4738 2.20155 39.5873C2.20155 41.0731 2.19243 42.5599 2.20155 44.0468C2.21068 45.5336 3.26132 46.5937 4.75615 46.614C6.14146 46.6322 7.52778 46.619 8.9141 46.619H51.2034C52.0208 46.619 52.4579 46.9109 52.6232 47.5565C52.6693 47.7277 52.6772 47.9069 52.6463 48.0814C52.6155 48.2559 52.5466 48.4216 52.4446 48.5666C52.3427 48.7116 52.2101 48.8325 52.0563 48.9206C51.9024 49.0088 51.7311 49.0621 51.5543 49.0768C51.4032 49.09 51.2501 49.0819 51.098 49.0819H35.7034V51.5802C36.1091 51.5802 36.5147 51.5802 36.9143 51.5802C37.1443 51.5702 37.372 51.6293 37.5681 51.7498C37.7642 51.8702 37.9197 52.0466 38.0146 52.2562C38.8452 53.8971 39.6778 55.5379 40.4891 57.1889C40.9212 58.0677 40.339 58.994 39.3543 58.995C32.7631 59.0011 26.1713 59.0011 19.5787 58.995C18.597 58.995 18.0281 58.0687 18.4632 57.1829C19.2501 55.5775 20.0645 53.9852 20.8575 52.3829C21.1354 51.8214 21.5563 51.5427 22.1911 51.5782C22.5258 51.5944 22.8645 51.5802 23.258 51.5802ZM21.5938 56.4876H37.3544C36.9579 55.691 36.6009 54.9491 36.2115 54.2244C36.1547 54.118 35.9407 54.044 35.7988 54.044C31.5773 54.0339 27.3561 54.0339 23.1353 54.044C22.9964 54.044 22.7885 54.1271 22.7296 54.2346C22.3433 54.9572 21.9873 55.6981 21.5938 56.4866V56.4876ZM25.7517 51.5447H33.1549V49.0869C30.7646 49.0869 28.423 49.0869 26.0813 49.0991C25.9718 49.0991 25.7771 49.2663 25.77 49.3616C25.7396 50.0812 25.7507 50.8018 25.7507 51.5437L25.7517 51.5447Z" fill="black"/>
<path d="M29.4622 44.1223C29.0403 44.1223 28.6174 44.1395 28.1966 44.1223C27.4867 44.0868 26.9999 43.572 27.0039 42.8787C27.0039 42.7181 27.0358 42.559 27.0976 42.4107C27.1595 42.2624 27.2501 42.1278 27.3643 42.0148C27.4785 41.9017 27.614 41.8123 27.7629 41.7519C27.9118 41.6914 28.0713 41.661 28.232 41.6625C29.0758 41.6443 29.9196 41.6432 30.7674 41.6625C31.0881 41.6695 31.3935 41.8012 31.6185 42.0297C31.8436 42.2582 31.9706 42.5654 31.9726 42.886C31.9746 43.2066 31.8514 43.5154 31.6292 43.7466C31.4069 43.9779 31.1032 44.1134 30.7826 44.1243C30.3445 44.1466 29.9054 44.1243 29.4642 44.1243L29.4622 44.1223Z" fill="black"/>
<path d="M56.2381 46.0277C56.5697 46.0195 56.8911 46.1429 57.132 46.3707C57.373 46.5986 57.5139 46.9126 57.524 47.2439C57.5402 47.9058 56.952 48.5058 56.2796 48.5129C55.9482 48.5094 55.6315 48.3757 55.3979 48.1407C55.1643 47.9058 55.0326 47.5884 55.0312 47.2571C55.0322 46.9354 55.159 46.6267 55.3844 46.3971C55.6099 46.1674 55.9162 46.0349 56.2381 46.0277Z" fill="black"/>
<path d="M15.2835 4.48485C15.1229 4.48486 14.9639 4.4531 14.8157 4.39141C14.6674 4.32972 14.5328 4.23932 14.4197 4.12541C14.3066 4.01151 14.2172 3.87635 14.1565 3.72774C14.0959 3.57913 14.0653 3.42 14.0665 3.25952C14.0631 3.01194 14.1339 2.76901 14.2696 2.56187C14.4053 2.35473 14.5998 2.19284 14.8282 2.09695C15.0567 2.00107 15.3085 1.97557 15.5516 2.02373C15.7946 2.07188 16.0176 2.1915 16.1922 2.36723C16.3667 2.54296 16.4847 2.76679 16.5311 3.01001C16.5775 3.25323 16.5501 3.50475 16.4524 3.7323C16.3548 3.95985 16.1913 4.15306 15.9831 4.28715C15.7748 4.42123 15.5312 4.49008 15.2835 4.48485Z" fill="black"/>
<path d="M9.05322 20.1386C9.05322 19.0612 9.04511 17.9828 9.05322 16.9055C9.05131 16.6334 9.14787 16.3698 9.32508 16.1633C9.50229 15.9567 9.74823 15.8212 10.0176 15.7816C10.2869 15.7419 10.5615 15.8009 10.7908 15.9477C11.02 16.0945 11.1884 16.3191 11.265 16.5802C11.3037 16.7434 11.3201 16.9112 11.3137 17.0788C11.3137 19.0886 11.3137 21.0984 11.3137 23.1082C11.3083 23.4762 11.423 23.8361 11.6406 24.1331C11.8582 24.4301 12.1668 24.6481 12.5195 24.7541C13.2294 24.9751 14.0296 24.7349 14.417 24.1014C14.6078 23.7881 14.715 23.4311 14.7283 23.0646C14.7577 21.0893 14.7415 19.1119 14.7425 17.1366C14.7376 17.0012 14.7431 16.8657 14.7587 16.7312C14.7996 16.4679 14.9318 16.2274 15.1322 16.0517C15.3327 15.8761 15.5885 15.7765 15.855 15.7704C16.1156 15.7627 16.3708 15.846 16.5766 16.006C16.7824 16.166 16.926 16.3927 16.9827 16.647C17.0102 16.7671 17.0242 16.8898 17.0243 17.0129C17.0243 19.0562 17.0405 21.1004 17.0243 23.1436C17.0201 23.9964 16.7425 24.8254 16.2323 25.509C15.7221 26.1925 15.0061 26.6947 14.1894 26.9418C13.3728 27.1889 12.4983 27.168 11.6944 26.8821C10.8905 26.5962 10.1994 26.0603 9.72256 25.3531C9.2741 24.7006 9.03692 23.9261 9.04309 23.1345V20.1386H9.05322Z" fill="black"/>
<path d="M37.5744 20.1047C37.5744 19.0608 37.5652 18.0168 37.5744 16.9729C37.5835 16.1206 38.3147 15.5763 39.0793 15.8337C39.559 15.9949 39.845 16.4155 39.846 16.979C39.846 19.0233 39.841 21.0665 39.846 23.1097C39.8476 23.5643 40.0299 23.9996 40.3526 24.3198C40.6754 24.6401 41.1122 24.8191 41.567 24.8175C42.0218 24.8159 42.4574 24.6338 42.7778 24.3112C43.0983 23.9887 43.2774 23.5521 43.2758 23.0976C43.2812 21.0658 43.2812 19.0337 43.2758 17.0013C43.2758 16.5067 43.4594 16.1256 43.9046 15.8976C44.6236 15.5287 45.5272 15.9989 45.5373 16.8148C45.5647 19.0922 45.6124 21.3756 45.4887 23.6489C45.3802 25.6425 43.5496 27.1161 41.4727 27.0949C39.5103 27.0776 37.762 25.5411 37.619 23.6023C37.5338 22.4418 37.6028 21.2712 37.6028 20.1026L37.5744 20.1047Z" fill="black"/>
<path d="M22.4751 23.9748C22.039 24.8383 21.6343 25.6511 21.2185 26.4589C21.1165 26.6806 20.9445 26.8628 20.7289 26.9774C20.5132 27.092 20.2659 27.1328 20.0249 27.0934C19.5919 27.0396 19.1741 26.7163 19.1122 26.2684C19.0698 25.9621 19.1137 25.6501 19.239 25.3673C19.8221 24.142 20.4427 22.9349 21.0644 21.7258C21.1163 21.6357 21.1427 21.5331 21.1405 21.4292C21.1384 21.3252 21.1078 21.2238 21.0522 21.1359C20.4221 19.9069 19.8011 18.6738 19.1893 17.4366C19.0758 17.2272 19.0324 16.9871 19.0655 16.7512C19.0985 16.5154 19.2062 16.2964 19.3728 16.1262C19.6933 15.7917 20.2044 15.6458 20.606 15.8677C20.875 16.021 21.0983 16.2432 21.253 16.5113C21.6779 17.2745 22.0491 18.068 22.47 18.9082C22.7002 18.4582 22.9061 18.0569 23.1099 17.6545C23.3239 17.2339 23.5247 16.8072 23.7519 16.3937C24.0713 15.812 24.7112 15.6133 25.2731 15.9022C25.4067 15.9693 25.5256 16.0625 25.6227 16.1763C25.7198 16.29 25.7931 16.4221 25.8384 16.5646C25.8837 16.7071 25.8999 16.8572 25.8863 17.0061C25.8726 17.155 25.8293 17.2997 25.7588 17.4316C25.1436 18.6795 24.5175 19.9221 23.8806 21.1593C23.8297 21.2439 23.8027 21.3407 23.8027 21.4395C23.8027 21.5382 23.8297 21.6351 23.8806 21.7197C24.5104 22.9481 25.128 24.1826 25.7467 25.417C25.9556 25.8325 25.9495 26.245 25.6757 26.6282C25.5595 26.8031 25.3947 26.9401 25.2015 27.0224C25.0083 27.1048 24.7952 27.1287 24.5885 27.0913C24.1768 27.0366 23.8959 26.8004 23.7123 26.4336C23.3137 25.6359 22.9081 24.8322 22.4751 23.9748Z" fill="black"/>
<path d="M36.1594 13.5922C36.1346 13.7294 36.1007 13.8648 36.058 13.9976C34.1778 19.2313 32.2949 24.4644 30.4093 29.6968C30.1699 30.3587 29.5533 30.6627 28.9337 30.4428C28.3141 30.2229 28.0392 29.5854 28.2755 28.9225C30.1591 23.6779 32.0451 18.434 33.9334 13.1908C34.1504 12.5827 34.6524 12.2949 35.2517 12.4003C35.7649 12.4925 36.1553 12.9678 36.1594 13.5922Z" fill="black"/>
<path d="M47.5854 21.4167C47.5854 19.9126 47.5854 18.4076 47.5854 16.9035C47.5854 16.3968 47.8471 16.0522 48.2953 15.8535C48.7121 15.6691 49.2496 15.7633 49.5234 16.1292C49.7071 16.3645 49.8159 16.6494 49.8358 16.9471C49.8571 19.9552 49.851 22.9643 49.8449 25.9674C49.849 26.1138 49.8236 26.2596 49.7701 26.396C49.7167 26.5324 49.6364 26.6567 49.5339 26.7615C49.4314 26.8662 49.3089 26.9493 49.1737 27.0058C49.0384 27.0623 48.8932 27.0911 48.7466 27.0903C48.0823 27.0964 47.5895 26.6312 47.5854 25.9582C47.5783 24.4481 47.5844 22.9319 47.5854 21.4167Z" fill="black"/>
</g>
<defs>
<clipPath id="clip0_76_1050">
<rect width="60" height="60" fill="black"/>
</clipPath>
</defs>
</svg>
