<svg width="100" height="20" viewBox="0 0 100 20" fill="none" xmlns="http://www.w3.org/2000/svg">
<path d="M1 19V1.02617C1.15382 1.01691 1.29381 1.00091 1.43207 1.00091H36.3523C37.0903 1.00091 36.9961 0.9487 36.9961 1.63501C36.9961 7.23555 36.9961 12.8367 36.9961 18.4383C36.9961 18.9975 36.9961 18.9975 36.4474 18.9975H1V19ZM18.5197 18.0602C18.5197 17.8303 18.5197 17.651 18.5197 17.4707C18.5197 12.4594 18.5137 7.44973 18.5293 2.43669C18.5293 2.00554 18.4048 1.89691 17.9727 1.89859C12.7879 1.91206 7.60296 1.91543 2.41807 1.9087C2.26511 1.9087 2.11216 1.92385 1.95834 1.93228V18.0602H18.5197ZM19.4703 13.8388C20.98 14.1663 21.6238 15.0969 21.6549 16.5646C21.6773 17.6476 22.704 18.2985 23.7997 18.0324C24.6759 17.8194 25.0493 17.2922 25.0959 16.1983C25.1555 14.8265 26.1165 13.9078 27.57 13.8345C29.0814 13.7579 30.1711 14.5756 30.3698 15.9398C30.4044 16.1756 30.4027 16.4156 30.4286 16.6522C30.5288 17.5457 31.2184 18.0964 32.2001 18.072C33.1273 18.0493 33.7858 17.4396 33.842 16.5562C33.8532 16.3743 33.8688 16.1924 33.8869 16.0114C33.9975 14.9225 34.6093 14.2371 35.6757 13.9373C35.9349 13.8649 36.0499 13.7604 36.0438 13.48C36.0257 12.6101 36.0386 11.7394 36.0343 10.8695C36.0266 10.7652 36.0107 10.6616 35.9868 10.5596C35.1382 10.776 34.8167 11.2417 34.783 12.2522C34.7346 13.6931 33.7262 14.6632 32.2148 14.7213C30.7509 14.7769 29.6223 13.8219 29.4875 12.4122C29.4676 12.2026 29.4625 11.9912 29.4348 11.7823C29.3717 11.3108 29.1514 10.9335 28.7124 10.6969C27.4231 10.0013 26.0586 10.7508 26.0197 12.1748C26.0197 12.2447 26.0197 12.3154 26.0154 12.3853C25.9229 13.7242 24.9231 14.643 23.4782 14.7162C22.0956 14.787 20.9592 13.944 20.738 12.6598C20.6862 12.3567 20.7069 12.0426 20.6594 11.7386C20.5522 11.0649 20.1305 10.659 19.4703 10.5908V13.8388ZM36.0041 2.04006C35.2704 2.1428 34.8738 2.62196 34.7943 3.47164C34.7675 3.76385 34.7778 4.06616 34.7035 4.34658C34.3821 5.54573 33.2345 6.28342 31.9115 6.17647C30.5444 6.06531 29.6223 5.20384 29.4918 3.91627C29.4694 3.69311 29.4599 3.46827 29.4314 3.24259C29.37 2.76932 29.1445 2.40048 28.7081 2.1588C27.7393 1.62407 26.0024 1.93649 26.0085 3.63501C26.0136 5.17353 24.9257 6.17479 23.3503 6.18068C21.8078 6.18573 20.7475 5.17942 20.6983 3.66616C20.6973 3.51191 20.6846 3.35794 20.6602 3.20553C20.5332 2.51501 20.1202 2.1108 19.4444 2.04259C19.4444 3.01101 19.4539 3.97943 19.4383 4.93858C19.4332 5.21395 19.5308 5.32679 19.8021 5.39752C20.8391 5.67037 21.4362 6.34657 21.6022 7.37731C21.6376 7.5971 21.6186 7.82531 21.6419 8.05099C21.7439 9.04214 22.5622 9.66277 23.5724 9.52214C24.5636 9.38404 25.0614 8.83162 25.089 7.79499C25.1046 7.18615 25.242 6.62363 25.6507 6.15373C26.3368 5.36384 27.5976 5.07079 28.7011 5.42784C29.7424 5.76468 30.3257 6.53268 30.4061 7.67457C30.4156 7.81436 30.4061 7.95583 30.4234 8.09562C30.502 8.95625 31.2011 9.5474 32.1361 9.54151C33.0711 9.53561 33.7659 8.94362 33.8368 8.08299C33.8601 7.80341 33.8653 7.52131 33.9154 7.24594C34.0502 6.49394 34.4339 5.8211 35.1788 5.61563C36.0213 5.38489 36.0983 4.9049 36.0429 4.21437C35.9954 3.58616 36.03 2.95122 36.0248 2.32133C36.023 2.22728 36.0161 2.13339 36.0041 2.04006ZM36.0378 6.275C35.2142 6.49478 34.8763 6.90657 34.7986 7.71499C34.7701 8.00804 34.7813 8.30951 34.7122 8.59162C34.4123 9.78572 33.2535 10.5529 31.94 10.4527C30.5573 10.3474 29.6068 9.46319 29.4936 8.16804C29.4763 7.97267 29.4668 7.77646 29.4469 7.57857C29.3821 6.91247 28.9993 6.46363 28.3408 6.27668C27.0532 5.91121 26.0672 6.61352 26.0275 7.92467C26.0275 7.99457 26.0275 8.0653 26.0206 8.1352C25.9186 9.51204 24.7779 10.4847 23.2942 10.4586C21.8389 10.4341 20.7588 9.42109 20.7017 8.04173C20.6983 7.77564 20.6665 7.51063 20.6067 7.25099C20.5494 6.99214 20.404 6.75976 20.1941 6.5916C19.9842 6.42344 19.7221 6.32937 19.4504 6.32468C19.4504 7.3352 19.4418 8.34572 19.4625 9.34867C19.4625 9.44804 19.6284 9.57351 19.7451 9.6333C20.0234 9.77561 20.344 9.84803 20.6015 10.0165C21.3602 10.5141 21.6229 11.2552 21.6385 12.1217C21.6557 13.1651 22.3099 13.795 23.3339 13.8059C24.3579 13.8169 25.0233 13.1962 25.0907 12.1739C25.1002 12.0341 25.0976 11.8935 25.1097 11.7529C25.216 10.5647 26.0776 9.73182 27.3565 9.57014C28.683 9.40172 29.8712 10.0341 30.2393 11.1398C30.3577 11.4935 30.3785 11.8817 30.4122 12.2573C30.4588 12.7735 30.6282 13.2156 31.0966 13.5044C31.367 13.6822 31.6811 13.7867 32.0066 13.8074C32.3321 13.8282 32.6574 13.7643 32.9493 13.6223C33.581 13.3369 33.8394 12.8215 33.8446 12.1604C33.8549 10.7701 34.6085 9.88088 35.7975 9.62404C35.8563 9.59779 35.9075 9.55787 35.9467 9.5078C35.9859 9.45772 36.0118 9.39903 36.0222 9.33688C36.0447 8.33225 36.0378 7.32425 36.0378 6.275ZM25.4087 1.94575H21.3118C21.4233 2.53522 21.5711 3.09943 21.6255 3.67037C21.7197 4.643 22.3436 5.25858 23.3287 5.27037C24.3139 5.28216 24.9706 4.69269 25.0899 3.731C25.165 3.14574 25.2981 2.56638 25.4122 1.94575H25.4087ZM30.0907 1.9407C30.2108 2.6228 30.3344 3.25943 30.4364 3.90027C30.5634 4.72384 31.2141 5.2611 32.1275 5.26784C33.0003 5.27458 33.6977 4.73395 33.829 3.95164C33.9405 3.28722 34.0554 2.62448 34.1747 1.9407H30.0907ZM29.9118 18.0602C29.7761 17.7099 29.6284 17.4194 29.5549 17.112C29.4815 16.8046 29.478 16.4729 29.4478 16.1512C29.3674 15.3091 28.8083 14.8114 27.856 14.7432C26.9625 14.68 26.24 15.1516 26.0767 15.9398C25.9315 16.6413 25.8235 17.3495 25.6982 18.0602H29.9118ZM34.478 18.0442H35.998V14.8493C35.3326 14.9613 34.9515 15.3545 34.8357 16.0046C34.7191 16.6809 34.6016 17.3571 34.4814 18.0442H34.478ZM19.453 14.8442C19.453 15.8766 19.453 16.8796 19.4608 17.8834C19.4713 17.9255 19.4927 17.9642 19.5229 17.9959C19.5532 18.0276 19.5913 18.0512 19.6336 18.0644C20.1288 18.0796 20.6248 18.0728 21.1442 18.0728C21.0068 17.7116 20.8529 17.4101 20.7804 17.0901C20.7034 16.7533 20.7199 16.3954 20.6663 16.051C20.5635 15.3638 20.1772 14.9672 19.4565 14.8442H19.453Z" fill="black"/>
<path d="M39.6602 8H38.0391L40.3281 2.14062H41.9492L44.2344 8H42.6133L42.2344 6.95703H40.0391L39.6602 8ZM40.5312 5.60938H41.7461L41.1367 3.9375L40.5312 5.60938ZM46.2227 8.07812C45.8841 8.07812 45.582 7.99089 45.3164 7.81641C45.0534 7.63932 44.8464 7.39844 44.6953 7.09375C44.5443 6.78646 44.4688 6.4375 44.4688 6.04688C44.4688 5.65365 44.5443 5.30469 44.6953 5C44.8464 4.69531 45.0534 4.45573 45.3164 4.28125C45.582 4.10417 45.8841 4.01562 46.2227 4.01562C46.4805 4.01562 46.7174 4.06771 46.9336 4.17188C47.1523 4.27604 47.3398 4.42057 47.4961 4.60547L47.5625 4.09375H48.8242V7.88672C48.8242 8.3138 48.724 8.6888 48.5234 9.01172C48.3229 9.33464 48.043 9.58464 47.6836 9.76172C47.3242 9.94141 46.9049 10.0312 46.4258 10.0312C45.7721 10.0312 45.1641 9.83464 44.6016 9.44141L45.168 8.25781C45.5065 8.58073 45.888 8.74219 46.3125 8.74219C46.5208 8.74219 46.7044 8.70312 46.8633 8.625C47.0247 8.54688 47.151 8.4375 47.2422 8.29688C47.3359 8.15885 47.3828 8.0013 47.3828 7.82422V7.60938C47.2318 7.75781 47.0573 7.8737 46.8594 7.95703C46.6641 8.03776 46.4518 8.07812 46.2227 8.07812ZM46.668 6.78906C46.8008 6.78906 46.9206 6.76172 47.0273 6.70703C47.1367 6.64974 47.2227 6.57031 47.2852 6.46875C47.3503 6.36719 47.3828 6.2513 47.3828 6.12109V5.96094C47.3828 5.83333 47.3503 5.72005 47.2852 5.62109C47.2201 5.52214 47.1328 5.44531 47.0234 5.39062C46.9167 5.33333 46.7982 5.30469 46.668 5.30469C46.5299 5.30469 46.4062 5.33724 46.2969 5.40234C46.1875 5.46484 46.1016 5.55208 46.0391 5.66406C45.9766 5.77604 45.9453 5.90365 45.9453 6.04688C45.9453 6.1901 45.9766 6.31771 46.0391 6.42969C46.1016 6.54167 46.1875 6.63021 46.2969 6.69531C46.4062 6.75781 46.5299 6.78906 46.668 6.78906ZM53.5508 8H52.4102L52.3633 7.37891C52.2279 7.60807 52.0482 7.78255 51.8242 7.90234C51.6003 8.01953 51.3385 8.07812 51.0391 8.07812C50.5547 8.07812 50.1758 7.92708 49.9023 7.625C49.6289 7.32292 49.4922 6.90495 49.4922 6.37109V4.09375H50.9336V5.97656C50.9336 6.23698 50.9831 6.4375 51.082 6.57812C51.1836 6.71875 51.3268 6.78906 51.5117 6.78906C51.7018 6.78906 51.849 6.71875 51.9531 6.57812C52.0573 6.4349 52.1094 6.23438 52.1094 5.97656V4.09375H53.5508V8ZM57.9648 8H56.7031L56.6328 7.57031C56.4896 7.73438 56.3164 7.86068 56.1133 7.94922C55.9102 8.03516 55.6888 8.07812 55.4492 8.07812C55.181 8.07812 54.9427 8.02734 54.7344 7.92578C54.526 7.82161 54.362 7.67969 54.2422 7.5C54.1224 7.31771 54.0625 7.11068 54.0625 6.87891C54.0625 6.63411 54.1276 6.41927 54.2578 6.23438C54.388 6.04948 54.5677 5.90495 54.7969 5.80078C55.0286 5.69401 55.293 5.64062 55.5898 5.64062C55.7513 5.64062 55.9102 5.65755 56.0664 5.69141C56.2227 5.72266 56.375 5.76953 56.5234 5.83203V5.76953C56.5234 5.64974 56.4844 5.54427 56.4062 5.45312C56.3307 5.36198 56.224 5.29036 56.0859 5.23828C55.9505 5.1862 55.7956 5.16016 55.6211 5.16016C55.444 5.16016 55.2721 5.1862 55.1055 5.23828C54.9414 5.29036 54.7943 5.36458 54.6641 5.46094L54.2969 4.40234C54.5833 4.27474 54.8672 4.17839 55.1484 4.11328C55.4297 4.04818 55.6992 4.01562 55.957 4.01562C56.3659 4.01562 56.7201 4.09505 57.0195 4.25391C57.3216 4.41016 57.5547 4.63281 57.7188 4.92188C57.8828 5.20833 57.9648 5.54688 57.9648 5.9375V8ZM55.7812 7.02734C55.8984 7.02734 56.013 7.0013 56.125 6.94922C56.2396 6.89714 56.3333 6.83073 56.4062 6.75C56.4792 6.66927 56.5156 6.58724 56.5156 6.50391V6.5C56.4219 6.44531 56.3177 6.40365 56.2031 6.375C56.0885 6.34375 55.974 6.32812 55.8594 6.32812C55.6953 6.32812 55.5651 6.35938 55.4688 6.42188C55.375 6.48177 55.3281 6.5651 55.3281 6.67188C55.3281 6.73958 55.3477 6.80078 55.3867 6.85547C55.4258 6.91016 55.4792 6.95312 55.5469 6.98438C55.6172 7.01302 55.6953 7.02734 55.7812 7.02734ZM58.3984 7.66797L58.6953 6.48047C58.7656 6.5638 58.8698 6.64453 59.0078 6.72266C59.1484 6.80078 59.3008 6.86458 59.4648 6.91406C59.6289 6.96094 59.7799 6.98438 59.918 6.98438C60.0221 6.98438 60.1016 6.96875 60.1562 6.9375C60.2109 6.90625 60.2383 6.86198 60.2383 6.80469C60.2383 6.74479 60.2122 6.69401 60.1602 6.65234C60.1081 6.60807 60.0378 6.56771 59.9492 6.53125C59.8633 6.49479 59.7643 6.45703 59.6523 6.41797C59.4857 6.35807 59.3099 6.28516 59.125 6.19922C58.9427 6.11068 58.7878 5.99089 58.6602 5.83984C58.5326 5.6862 58.4688 5.48177 58.4688 5.22656C58.4688 4.97917 58.5339 4.76562 58.6641 4.58594C58.7969 4.40365 58.9831 4.26302 59.2227 4.16406C59.4648 4.0651 59.7487 4.01562 60.0742 4.01562C60.6185 4.01562 61.1667 4.15234 61.7188 4.42578L61.3164 5.52344C61.2331 5.45052 61.1237 5.38151 60.9883 5.31641C60.8529 5.2513 60.7135 5.19792 60.5703 5.15625C60.4297 5.11458 60.3073 5.09375 60.2031 5.09375C60.1172 5.09375 60.0521 5.10938 60.0078 5.14062C59.9661 5.16927 59.9453 5.20964 59.9453 5.26172C59.9453 5.31901 59.9701 5.36979 60.0195 5.41406C60.0716 5.45573 60.1406 5.49479 60.2266 5.53125C60.3151 5.5651 60.4115 5.60156 60.5156 5.64062C60.6901 5.70052 60.8698 5.77474 61.0547 5.86328C61.2396 5.94922 61.3958 6.06901 61.5234 6.22266C61.6536 6.3737 61.7188 6.57812 61.7188 6.83594C61.7188 7.08854 61.6484 7.30859 61.5078 7.49609C61.3698 7.68099 61.1732 7.82422 60.918 7.92578C60.6654 8.02734 60.3659 8.07812 60.0195 8.07812C59.4414 8.07812 58.901 7.94141 58.3984 7.66797ZM67.6602 7.58984C67.1732 7.91536 66.6445 8.07812 66.0742 8.07812C65.6341 8.07812 65.2383 7.98698 64.8867 7.80469C64.5378 7.61979 64.2604 7.36849 64.0547 7.05078C63.8516 6.73307 63.75 6.3763 63.75 5.98047C63.75 5.60547 63.8411 5.27083 64.0234 4.97656C64.2057 4.67969 64.4531 4.44531 64.7656 4.27344C65.0807 4.10156 65.4362 4.01562 65.832 4.01562C66.2461 4.01562 66.6094 4.11068 66.9219 4.30078C67.2344 4.49089 67.4779 4.75521 67.6523 5.09375C67.8268 5.43229 67.9141 5.82552 67.9141 6.27344V6.39844H65.2969C65.3438 6.5 65.4089 6.59245 65.4922 6.67578C65.5755 6.75651 65.6797 6.82161 65.8047 6.87109C65.9297 6.92057 66.0755 6.94531 66.2422 6.94531C66.6094 6.94531 66.957 6.82812 67.2852 6.59375L67.6602 7.58984ZM65.2305 5.8125H66.5938C66.5807 5.6901 66.543 5.58203 66.4805 5.48828C66.4206 5.39453 66.3398 5.32161 66.2383 5.26953C66.1393 5.21484 66.0286 5.1875 65.9062 5.1875C65.7812 5.1875 65.6719 5.21615 65.5781 5.27344C65.4844 5.33073 65.4076 5.40625 65.3477 5.5C65.2904 5.59375 65.2513 5.69792 65.2305 5.8125ZM70.2188 8V2.14062H74.125V3.48828H71.7656V4.39453H73.9688V5.74219H71.7656V6.65234H74.1641V8H70.2188ZM78.9648 8H77.5234V6.11719C77.5234 5.85677 77.4727 5.65625 77.3711 5.51562C77.2721 5.375 77.1302 5.30469 76.9453 5.30469C76.7552 5.30469 76.6081 5.3763 76.5039 5.51953C76.3997 5.66016 76.3477 5.85938 76.3477 6.11719V8H74.9062V4.09375H76.0469L76.0938 4.71484C76.2318 4.48568 76.4115 4.3125 76.6328 4.19531C76.8568 4.07552 77.1185 4.01562 77.418 4.01562C77.9023 4.01562 78.2812 4.16667 78.5547 4.46875C78.8281 4.76823 78.9648 5.1862 78.9648 5.72266V8ZM83.3867 7.58984C82.8997 7.91536 82.3711 8.07812 81.8008 8.07812C81.3607 8.07812 80.9648 7.98698 80.6133 7.80469C80.2643 7.61979 79.987 7.36849 79.7812 7.05078C79.5781 6.73307 79.4766 6.3763 79.4766 5.98047C79.4766 5.60547 79.5677 5.27083 79.75 4.97656C79.9323 4.67969 80.1797 4.44531 80.4922 4.27344C80.8073 4.10156 81.1628 4.01562 81.5586 4.01562C81.9727 4.01562 82.3359 4.11068 82.6484 4.30078C82.9609 4.49089 83.2044 4.75521 83.3789 5.09375C83.5534 5.43229 83.6406 5.82552 83.6406 6.27344V6.39844H81.0234C81.0703 6.5 81.1354 6.59245 81.2188 6.67578C81.3021 6.75651 81.4062 6.82161 81.5312 6.87109C81.6562 6.92057 81.8021 6.94531 81.9688 6.94531C82.3359 6.94531 82.6836 6.82812 83.0117 6.59375L83.3867 7.58984ZM80.957 5.8125H82.3203C82.3073 5.6901 82.2695 5.58203 82.207 5.48828C82.1471 5.39453 82.0664 5.32161 81.9648 5.26953C81.8659 5.21484 81.7552 5.1875 81.6328 5.1875C81.5078 5.1875 81.3984 5.21615 81.3047 5.27344C81.2109 5.33073 81.1341 5.40625 81.0742 5.5C81.0169 5.59375 80.9779 5.69792 80.957 5.8125ZM85.668 8H84.2266V4.09375H85.4766L85.5234 4.70703C85.6536 4.48828 85.8229 4.31901 86.0312 4.19922C86.2396 4.07682 86.4779 4.01562 86.7461 4.01562C86.8372 4.01562 86.9297 4.02344 87.0234 4.03906C87.1172 4.05208 87.2122 4.07292 87.3086 4.10156L87.1289 5.39844C86.9388 5.33594 86.7617 5.30469 86.5977 5.30469C86.4076 5.30469 86.2422 5.34505 86.1016 5.42578C85.9635 5.50391 85.8568 5.61458 85.7812 5.75781C85.7057 5.90104 85.668 6.07161 85.668 6.26953V8ZM89.2383 8.07812C88.8997 8.07812 88.5977 7.99089 88.332 7.81641C88.069 7.63932 87.862 7.39844 87.7109 7.09375C87.5599 6.78646 87.4844 6.4375 87.4844 6.04688C87.4844 5.65365 87.5599 5.30469 87.7109 5C87.862 4.69531 88.069 4.45573 88.332 4.28125C88.5977 4.10417 88.8997 4.01562 89.2383 4.01562C89.4961 4.01562 89.7331 4.06771 89.9492 4.17188C90.168 4.27604 90.3555 4.42057 90.5117 4.60547L90.5781 4.09375H91.8398V7.88672C91.8398 8.3138 91.7396 8.6888 91.5391 9.01172C91.3385 9.33464 91.0586 9.58464 90.6992 9.76172C90.3398 9.94141 89.9206 10.0312 89.4414 10.0312C88.7878 10.0312 88.1797 9.83464 87.6172 9.44141L88.1836 8.25781C88.5221 8.58073 88.9036 8.74219 89.3281 8.74219C89.5365 8.74219 89.7201 8.70312 89.8789 8.625C90.0404 8.54688 90.1667 8.4375 90.2578 8.29688C90.3516 8.15885 90.3984 8.0013 90.3984 7.82422V7.60938C90.2474 7.75781 90.0729 7.8737 89.875 7.95703C89.6797 8.03776 89.4674 8.07812 89.2383 8.07812ZM89.6836 6.78906C89.8164 6.78906 89.9362 6.76172 90.043 6.70703C90.1523 6.64974 90.2383 6.57031 90.3008 6.46875C90.3659 6.36719 90.3984 6.2513 90.3984 6.12109V5.96094C90.3984 5.83333 90.3659 5.72005 90.3008 5.62109C90.2357 5.52214 90.1484 5.44531 90.0391 5.39062C89.9323 5.33333 89.8138 5.30469 89.6836 5.30469C89.5456 5.30469 89.4219 5.33724 89.3125 5.40234C89.2031 5.46484 89.1172 5.55208 89.0547 5.66406C88.9922 5.77604 88.9609 5.90365 88.9609 6.04688C88.9609 6.1901 88.9922 6.31771 89.0547 6.42969C89.1172 6.54167 89.2031 6.63021 89.3125 6.69531C89.4219 6.75781 89.5456 6.78906 89.6836 6.78906ZM93.3047 3.35938C93.1302 3.35938 92.9831 3.29818 92.8633 3.17578C92.7435 3.05339 92.6836 2.90495 92.6836 2.73047C92.6836 2.55599 92.7435 2.40755 92.8633 2.28516C92.9831 2.16276 93.1302 2.10156 93.3047 2.10156C93.4818 2.10156 93.6302 2.16276 93.75 2.28516C93.8724 2.40755 93.9336 2.55599 93.9336 2.73047C93.9336 2.90495 93.8724 3.05339 93.75 3.17578C93.6302 3.29818 93.4818 3.35938 93.3047 3.35938ZM94.0273 8H92.5859V4.09375H94.0273V8ZM98.5195 8H97.2578L97.1875 7.57031C97.0443 7.73438 96.8711 7.86068 96.668 7.94922C96.4648 8.03516 96.2435 8.07812 96.0039 8.07812C95.7357 8.07812 95.4974 8.02734 95.2891 7.92578C95.0807 7.82161 94.9167 7.67969 94.7969 7.5C94.6771 7.31771 94.6172 7.11068 94.6172 6.87891C94.6172 6.63411 94.6823 6.41927 94.8125 6.23438C94.9427 6.04948 95.1224 5.90495 95.3516 5.80078C95.5833 5.69401 95.8477 5.64062 96.1445 5.64062C96.306 5.64062 96.4648 5.65755 96.6211 5.69141C96.7773 5.72266 96.9297 5.76953 97.0781 5.83203V5.76953C97.0781 5.64974 97.0391 5.54427 96.9609 5.45312C96.8854 5.36198 96.7786 5.29036 96.6406 5.23828C96.5052 5.1862 96.3503 5.16016 96.1758 5.16016C95.9987 5.16016 95.8268 5.1862 95.6602 5.23828C95.4961 5.29036 95.349 5.36458 95.2188 5.46094L94.8516 4.40234C95.138 4.27474 95.4219 4.17839 95.7031 4.11328C95.9844 4.04818 96.2539 4.01562 96.5117 4.01562C96.9206 4.01562 97.2747 4.09505 97.5742 4.25391C97.8763 4.41016 98.1094 4.63281 98.2734 4.92188C98.4375 5.20833 98.5195 5.54688 98.5195 5.9375V8ZM96.3359 7.02734C96.4531 7.02734 96.5677 7.0013 96.6797 6.94922C96.7943 6.89714 96.888 6.83073 96.9609 6.75C97.0339 6.66927 97.0703 6.58724 97.0703 6.50391V6.5C96.9766 6.44531 96.8724 6.40365 96.7578 6.375C96.6432 6.34375 96.5286 6.32812 96.4141 6.32812C96.25 6.32812 96.1198 6.35938 96.0234 6.42188C95.9297 6.48177 95.8828 6.5651 95.8828 6.67188C95.8828 6.73958 95.9023 6.80078 95.9414 6.85547C95.9805 6.91016 96.0339 6.95312 96.1016 6.98438C96.1719 7.01302 96.25 7.02734 96.3359 7.02734ZM42.5547 18H41.293L41.2188 17.4922C41.0625 17.6745 40.875 17.8177 40.6562 17.9219C40.4401 18.026 40.2044 18.0781 39.9492 18.0781C39.6107 18.0781 39.3086 17.9909 39.043 17.8164C38.7799 17.6393 38.5729 17.3984 38.4219 17.0938C38.2708 16.7865 38.1953 16.4375 38.1953 16.0469C38.1953 15.6562 38.2708 15.3086 38.4219 15.0039C38.5729 14.6966 38.7799 14.4557 39.043 14.2812C39.3086 14.1042 39.6107 14.0156 39.9492 14.0156C40.1784 14.0156 40.3919 14.0573 40.5898 14.1406C40.7878 14.2214 40.9622 14.3359 41.1133 14.4844V12.1406H42.5547V18ZM40.3945 16.7891C40.5273 16.7891 40.6471 16.7604 40.7539 16.7031C40.8633 16.6458 40.9505 16.5664 41.0156 16.4648C41.0807 16.3633 41.1133 16.2461 41.1133 16.1133V15.9688C41.1133 15.8385 41.0807 15.724 41.0156 15.625C40.9505 15.526 40.8633 15.4479 40.7539 15.3906C40.6471 15.3333 40.5273 15.3047 40.3945 15.3047C40.2565 15.3047 40.1328 15.3372 40.0234 15.4023C39.9141 15.4648 39.8281 15.5521 39.7656 15.6641C39.7031 15.776 39.6719 15.9036 39.6719 16.0469C39.6719 16.1901 39.7031 16.3177 39.7656 16.4297C39.8281 16.5417 39.9141 16.6302 40.0234 16.6953C40.1328 16.7578 40.2565 16.7891 40.3945 16.7891ZM45.2734 18.0781C44.862 18.0781 44.4948 17.9909 44.1719 17.8164C43.8516 17.6393 43.599 17.3984 43.4141 17.0938C43.2318 16.7865 43.1406 16.4375 43.1406 16.0469C43.1406 15.6562 43.2318 15.3086 43.4141 15.0039C43.599 14.6966 43.8516 14.4557 44.1719 14.2812C44.4948 14.1042 44.862 14.0156 45.2734 14.0156C45.6823 14.0156 46.0456 14.1042 46.3633 14.2812C46.6836 14.4557 46.9349 14.6966 47.1172 15.0039C47.2995 15.3086 47.3906 15.6562 47.3906 16.0469C47.3906 16.4375 47.2995 16.7865 47.1172 17.0938C46.9349 17.3984 46.6836 17.6393 46.3633 17.8164C46.0456 17.9909 45.6823 18.0781 45.2734 18.0781ZM45.2656 16.7891C45.3906 16.7891 45.5013 16.7578 45.5977 16.6953C45.6966 16.6302 45.7734 16.5417 45.8281 16.4297C45.8854 16.3151 45.9141 16.1849 45.9141 16.0391C45.9141 15.8984 45.8854 15.7734 45.8281 15.6641C45.7734 15.5521 45.6966 15.4648 45.5977 15.4023C45.5013 15.3372 45.3906 15.3047 45.2656 15.3047C45.1406 15.3047 45.0286 15.3372 44.9297 15.4023C44.8333 15.4648 44.7565 15.5521 44.6992 15.6641C44.6445 15.7734 44.6172 15.8984 44.6172 16.0391C44.6172 16.1849 44.6445 16.3151 44.6992 16.4297C44.7565 16.5417 44.8333 16.6302 44.9297 16.6953C45.0286 16.7578 45.1406 16.7891 45.2656 16.7891ZM49.6953 18V12.1406H51.832C52.3346 12.1406 52.7695 12.2253 53.1367 12.3945C53.5065 12.5612 53.7904 12.7995 53.9883 13.1094C54.1888 13.4167 54.2891 13.7826 54.2891 14.207C54.2891 14.6315 54.1888 15 53.9883 15.3125C53.7904 15.6224 53.5091 15.862 53.1445 16.0312C52.7799 16.2005 52.349 16.2852 51.8516 16.2852H51.2422V18H49.6953ZM51.2422 14.9375H51.6797C52.013 14.9375 52.2669 14.875 52.4414 14.75C52.6185 14.625 52.707 14.444 52.707 14.207C52.707 13.9753 52.6185 13.7982 52.4414 13.6758C52.2669 13.5508 52.013 13.4883 51.6797 13.4883H51.2422V14.9375ZM56.6562 18.0781C56.2448 18.0781 55.8776 17.9909 55.5547 17.8164C55.2344 17.6393 54.9818 17.3984 54.7969 17.0938C54.6146 16.7865 54.5234 16.4375 54.5234 16.0469C54.5234 15.6562 54.6146 15.3086 54.7969 15.0039C54.9818 14.6966 55.2344 14.4557 55.5547 14.2812C55.8776 14.1042 56.2448 14.0156 56.6562 14.0156C57.0651 14.0156 57.4284 14.1042 57.7461 14.2812C58.0664 14.4557 58.3177 14.6966 58.5 15.0039C58.6823 15.3086 58.7734 15.6562 58.7734 16.0469C58.7734 16.4375 58.6823 16.7865 58.5 17.0938C58.3177 17.3984 58.0664 17.6393 57.7461 17.8164C57.4284 17.9909 57.0651 18.0781 56.6562 18.0781ZM56.6484 16.7891C56.7734 16.7891 56.8841 16.7578 56.9805 16.6953C57.0794 16.6302 57.1562 16.5417 57.2109 16.4297C57.2682 16.3151 57.2969 16.1849 57.2969 16.0391C57.2969 15.8984 57.2682 15.7734 57.2109 15.6641C57.1562 15.5521 57.0794 15.4648 56.9805 15.4023C56.8841 15.3372 56.7734 15.3047 56.6484 15.3047C56.5234 15.3047 56.4115 15.3372 56.3125 15.4023C56.2161 15.4648 56.1393 15.5521 56.082 15.6641C56.0273 15.7734 56 15.8984 56 16.0391C56 16.1849 56.0273 16.3151 56.082 16.4297C56.1393 16.5417 56.2161 16.6302 56.3125 16.6953C56.4115 16.7578 56.5234 16.7891 56.6484 16.7891ZM60.8008 18H59.3594V14.0938H60.6094L60.6562 14.707C60.7865 14.4883 60.9557 14.319 61.1641 14.1992C61.3724 14.0768 61.6107 14.0156 61.8789 14.0156C61.9701 14.0156 62.0625 14.0234 62.1562 14.0391C62.25 14.0521 62.3451 14.0729 62.4414 14.1016L62.2617 15.3984C62.0716 15.3359 61.8945 15.3047 61.7305 15.3047C61.5404 15.3047 61.375 15.3451 61.2344 15.4258C61.0964 15.5039 60.9896 15.6146 60.9141 15.7578C60.8385 15.901 60.8008 16.0716 60.8008 16.2695V18ZM65.8906 17.8906C65.5625 18.0156 65.2461 18.0781 64.9414 18.0781C64.6107 18.0781 64.319 18.0091 64.0664 17.8711C63.8138 17.7331 63.6159 17.5417 63.4727 17.2969C63.332 17.0495 63.2617 16.7643 63.2617 16.4414V15.3789H62.5781V14.0938H63.3398V13.1172H64.7031V14.0938H65.7305V15.3789H64.7031V16.1797C64.7031 16.3802 64.7591 16.5326 64.8711 16.6367C64.9831 16.7383 65.1146 16.7891 65.2656 16.7891C65.4193 16.7891 65.5677 16.7396 65.7109 16.6406L65.8906 17.8906ZM68.3359 18.0781C67.9245 18.0781 67.5573 17.9909 67.2344 17.8164C66.9141 17.6393 66.6615 17.3984 66.4766 17.0938C66.2943 16.7865 66.2031 16.4375 66.2031 16.0469C66.2031 15.6562 66.2943 15.3086 66.4766 15.0039C66.6615 14.6966 66.9141 14.4557 67.2344 14.2812C67.5573 14.1042 67.9245 14.0156 68.3359 14.0156C68.7448 14.0156 69.1081 14.1042 69.4258 14.2812C69.7461 14.4557 69.9974 14.6966 70.1797 15.0039C70.362 15.3086 70.4531 15.6562 70.4531 16.0469C70.4531 16.4375 70.362 16.7865 70.1797 17.0938C69.9974 17.3984 69.7461 17.6393 69.4258 17.8164C69.1081 17.9909 68.7448 18.0781 68.3359 18.0781ZM68.3281 16.7891C68.4531 16.7891 68.5638 16.7578 68.6602 16.6953C68.7591 16.6302 68.8359 16.5417 68.8906 16.4297C68.9479 16.3151 68.9766 16.1849 68.9766 16.0391C68.9766 15.8984 68.9479 15.7734 68.8906 15.6641C68.8359 15.5521 68.7591 15.4648 68.6602 15.4023C68.5638 15.3372 68.4531 15.3047 68.3281 15.3047C68.2031 15.3047 68.0911 15.3372 67.9922 15.4023C67.8958 15.4648 67.819 15.5521 67.7617 15.6641C67.707 15.7734 67.6797 15.8984 67.6797 16.0391C67.6797 16.1849 67.707 16.3151 67.7617 16.4297C67.819 16.5417 67.8958 16.6302 67.9922 16.6953C68.0911 16.7578 68.2031 16.7891 68.3281 16.7891Z" fill="black"/>
</svg>
