<svg width="100" height="20" viewBox="0 0 100 20" fill="none" xmlns="http://www.w3.org/2000/svg">
<g clip-path="url(#clip0_73_966)">
<path d="M3.00259 17.9864C3.0899 17.7653 3.1895 17.5482 3.26129 17.3204C4.57937 13.2302 5.89444 9.1387 7.20649 5.04587C7.36042 4.56629 7.52987 4.08139 7.59001 3.58583C7.65922 3.00967 7.37723 2.7419 6.80356 2.69328H6.77122C6.08696 2.64333 6.08696 2.64332 6.08696 1.9173V1.3125H6.4666C8.30899 1.3125 10.1512 1.3125 11.9931 1.3125C13.0531 1.3125 13.4315 1.60891 13.7199 2.66797C15.0932 7.71152 16.465 12.7553 17.8352 17.7993C17.8611 17.8932 17.874 17.9911 17.8999 18.1143H14.5853C14.4671 18.1053 14.3484 18.1053 14.2302 18.1143C14.0116 18.1476 13.9334 18.0351 13.879 17.8386C13.5557 16.6703 13.2116 15.5073 12.8908 14.337C12.8261 14.1019 12.7233 14.0286 12.4885 14.0306C11.0773 14.0413 9.66631 14.0413 8.25552 14.0306C7.99682 14.0306 7.90434 14.1225 7.83707 14.3636C7.5137 15.51 7.16704 16.649 6.84495 17.7953C6.78028 18.0357 6.68197 18.125 6.4278 18.1217C5.28628 18.1077 4.14411 18.1177 3 18.1217L3.00259 17.9864ZM10.5845 4.75346L10.5043 4.74813C9.84977 6.9382 9.19461 9.12827 8.53492 11.3363H12.3223C11.7338 9.11694 11.1601 6.93487 10.5845 4.75346Z" fill="black"/>
<path d="M50.4102 6.8628V5.53663C50.5279 5.52997 50.6326 5.51932 50.7374 5.51932C51.7291 5.51932 52.7208 5.51932 53.7125 5.51932C54.6516 5.51932 54.9601 5.84303 54.9646 6.8215C54.9646 6.98335 54.9646 7.14521 54.9646 7.381C55.2634 7.13722 55.5027 6.94073 55.7439 6.74623C56.6397 6.0242 57.6066 5.46803 58.7759 5.40408C59.6212 5.35812 60.4258 5.46403 61.123 6.03086C61.7697 6.55507 61.9741 7.28775 62.0666 8.06906C62.1203 8.55264 62.1462 9.03906 62.1442 9.52578C62.1513 12.2833 62.1481 15.0402 62.1481 17.7971C62.1481 17.8851 62.1397 17.9723 62.1339 18.0862H58.5327V17.7145C58.5327 15.2452 58.5317 12.7758 58.5295 10.3064C58.5313 9.95247 58.5071 9.59888 58.4571 9.24869C58.3808 8.73714 58.0968 8.49935 57.6014 8.47204C56.6727 8.42075 55.9341 8.83306 55.3054 9.48781C55.2252 9.57174 55.211 9.74958 55.211 9.88346C55.2058 12.4745 55.2045 15.0655 55.2071 17.6566V18.0829H51.5743V17.6712C51.5743 14.5154 51.5743 11.3595 51.5743 8.20361C51.5743 8.08172 51.5743 7.95983 51.5685 7.8386C51.5362 7.20583 51.2606 6.92208 50.6443 6.88011C50.5699 6.87745 50.4975 6.86879 50.4102 6.8628Z" fill="black"/>
<path d="M49.6548 16.8799V18.0981C49.5448 18.1034 49.442 18.1128 49.3392 18.1128C48.316 18.1128 47.2928 18.1128 46.2697 18.1128C45.4198 18.1128 45.1113 17.7944 45.0952 16.9138C45.0952 16.8259 45.0952 16.738 45.0952 16.5681C44.9658 16.68 44.8818 16.752 44.7983 16.8226C43.8282 17.6452 42.7468 18.204 41.4617 18.23C41.0961 18.2402 40.7304 18.2112 40.3706 18.1434C39.3248 17.9363 38.6794 17.2775 38.4304 16.2151C38.2102 15.3095 38.1959 14.3638 38.3883 13.4516C38.6923 12.0188 39.6443 11.1982 40.9463 10.8285C42.1751 10.4789 43.4369 10.2444 44.6884 9.98129C44.9186 9.93333 44.9846 9.85807 44.9807 9.62294C44.9581 8.43466 44.5927 8.05766 43.4253 8.07764C42.404 8.09496 41.4203 8.32942 40.4696 8.70042L39.8015 8.96286C39.7316 8.78368 39.6624 8.61583 39.601 8.44531C39.4231 7.94775 39.2602 7.4462 39.0674 6.95197C38.9827 6.73616 39.037 6.64757 39.2252 6.54299C40.3894 5.8929 41.6551 5.60049 42.9531 5.44263C43.9504 5.32207 44.9529 5.30276 45.9457 5.49858C47.3899 5.783 48.1718 6.62559 48.3639 8.12693C48.4414 8.73009 48.4829 9.33759 48.4881 9.94599C48.5042 11.7617 48.4939 13.5774 48.4939 15.3938C48.4919 16.5608 48.5456 16.6301 49.6548 16.8799ZM44.9729 11.9955C44.0934 12.1327 43.272 12.3159 42.4952 12.6882C41.9869 12.9314 41.7088 13.3277 41.6648 13.8925C41.6399 14.157 41.6399 14.4233 41.6648 14.6878C41.7424 15.3732 42.0774 15.6769 42.7306 15.6689C43.5921 15.6576 44.2609 15.2087 44.8708 14.6405C44.9259 14.5887 44.9599 14.5173 44.9658 14.4407C44.9755 13.6374 44.9729 12.8321 44.9729 11.9955Z" fill="black"/>
<path d="M65.4135 9.11853C65.0559 9.11853 64.7125 9.12919 64.371 9.10921C64.3063 9.10521 64.2015 8.97599 64.2009 8.90339C64.1938 8.09544 64.1847 7.28615 64.2151 6.47953C64.2345 5.95932 64.5068 5.67624 65.0016 5.575C65.1703 5.54022 65.3418 5.52193 65.5138 5.52038C67.9715 5.51705 70.4259 5.52038 72.8823 5.51172C73.1655 5.51172 73.2541 5.58632 73.2438 5.88206C73.2218 6.51283 73.2496 7.14761 73.2296 7.77572C73.2241 7.96977 73.1668 8.15852 73.064 8.32124C71.5014 10.6303 69.9326 12.9325 68.3576 15.2278C68.2606 15.3697 68.1681 15.5142 68.0342 15.7174H73.4333V18.0833H64.0974C64.0916 17.9767 64.0799 17.8608 64.0793 17.7449C64.0793 17.1021 64.0638 16.4594 64.087 15.8179C64.0941 15.6027 64.1588 15.3936 64.274 15.2138C65.8413 12.9491 67.4163 10.6918 68.9991 8.4418C69.1104 8.2826 69.219 8.12008 69.3697 7.89828C69.2106 7.89028 69.111 7.88096 69.0121 7.88029C68.258 7.88029 67.5039 7.88029 66.7484 7.88029C65.9432 7.88429 65.4924 7.92692 65.4135 9.11853Z" fill="black"/>
<path d="M23.0139 18.1023H19.4309C19.4238 17.9398 19.4115 17.7899 19.4115 17.6394C19.4115 13.1332 19.4115 8.62715 19.4115 4.12135C19.4115 4.02211 19.4115 3.92153 19.4115 3.82295C19.4012 3.00034 19.1599 2.73857 18.3625 2.68129C18.2978 2.67663 18.2364 2.66797 18.1445 2.65864V1.33182C18.2325 1.32516 18.3056 1.31516 18.3787 1.31516C19.5202 1.31516 20.6617 1.30917 21.8065 1.31516C22.6039 1.32183 23.0314 1.74811 23.0321 2.57006C23.0385 7.68509 23.0396 12.7999 23.0353 17.9145C23.0282 17.9705 23.0198 18.0237 23.0139 18.1023Z" fill="black"/>
<path d="M24.7383 2.66458V1.34242C24.8023 1.32889 24.8671 1.31977 24.9323 1.31511C26.1062 1.31511 27.28 1.30712 28.4539 1.31911C29.197 1.3271 29.6252 1.76005 29.6258 2.51805C29.6314 7.65573 29.6314 12.7927 29.6258 17.9291C29.6258 17.9724 29.618 18.0164 29.6109 18.0856H26.0137V17.682C26.0137 13.1082 26.0137 8.53562 26.0137 3.9641C26.0175 3.8205 26.0125 3.67678 25.9988 3.53382C25.929 2.96898 25.6657 2.72253 25.1063 2.68657L24.7383 2.66458Z" fill="black"/>
<path d="M36.2033 18.0976H32.6145V8.23236C32.6145 8.11046 32.6145 7.98857 32.6145 7.86668C32.5892 7.14198 32.3558 6.9042 31.6495 6.87489C31.5971 6.87489 31.5447 6.86689 31.4432 6.85957C31.4432 6.45992 31.4354 6.0656 31.4522 5.67262C31.4522 5.61866 31.5771 5.52541 31.6463 5.52475C32.8201 5.51942 33.9946 5.50143 35.1672 5.53807C35.8275 5.55872 36.2221 6.00432 36.2234 6.67906C36.2324 10.4331 36.2343 14.1869 36.2292 17.9404C36.2238 17.9934 36.2151 18.0459 36.2033 18.0976Z" fill="black"/>
<path d="M34.1865 4.58177C33.964 4.55179 33.7396 4.53314 33.5197 4.49051C32.3129 4.25472 32.0018 3.32421 32.1926 2.28513C32.2268 2.0636 32.3163 1.85504 32.4524 1.67988C32.5884 1.50473 32.7663 1.369 32.9687 1.28601C33.8787 0.903682 34.7996 0.866381 35.6605 1.4099C36.6507 2.03601 36.573 3.73385 35.5247 4.25605C35.1217 4.45588 34.6528 4.51782 34.2143 4.64238L34.1865 4.58177Z" fill="black"/>
<path d="M96.4729 9.46903C96.4795 12.8641 95.4915 15.5499 93.1692 17.6346C91.8449 18.8231 90.2842 19.5314 88.5593 19.8319C86.2276 20.2386 83.9914 19.9206 81.9094 18.7355C79.4671 17.3453 77.929 15.2221 77.2952 12.4383C76.6889 9.772 77.0067 7.2099 78.3391 4.81876C79.32 3.05939 80.7332 1.76908 82.5262 0.925436C84.1191 0.175801 85.7939 -0.100868 87.5391 0.0321086C89.6428 0.194797 91.5247 0.925436 93.1418 2.32583C94.7839 3.75008 95.7904 5.57181 96.2316 7.72232C96.3669 8.38428 96.4185 9.06426 96.4729 9.46903ZM78.6247 10.0419C78.6366 10.8738 78.734 11.7559 78.9903 12.6132C79.6676 14.8806 81.0122 16.5757 83.1008 17.6118C84.6252 18.3677 86.2418 18.5859 87.9089 18.3536C90.3291 18.0155 92.2602 16.8339 93.5698 14.6946C94.9324 12.4661 95.1973 10.0297 94.5261 7.52797C93.6791 4.36869 91.617 2.4325 88.5195 1.70917C87.2426 1.41058 85.9386 1.45637 84.6564 1.78126C82.8644 2.23571 81.3892 3.2021 80.2744 4.71599C79.1299 6.26884 78.6403 8.04916 78.6247 10.0419Z" fill="black"/>
<path d="M84.617 3.72325C85.5114 3.72325 86.3854 3.68818 87.2552 3.7364C87.7636 3.76466 87.9561 4.04035 88.0082 4.56446C88.0181 4.69409 88.0215 4.82415 88.0186 4.95414C88.0186 8.28 88.0186 11.606 88.0186 14.9322V15.2113H85.4797C85.4745 15.1056 85.4655 15.0038 85.4655 14.9025C85.4655 11.8601 85.4655 8.81743 85.4655 5.7744C85.4655 5.68526 85.4655 5.59612 85.4655 5.50747C85.4386 4.98531 85.3118 4.84697 84.8095 4.83382C84.644 4.82993 84.5872 4.77878 84.5943 4.60976C84.6057 4.33504 84.5991 4.05983 84.6019 3.78463C84.6036 3.76345 84.6087 3.74271 84.617 3.72325Z" fill="black"/>
<path d="M84.0305 15.2081H81.582V14.9061C81.582 12.4382 81.582 9.97027 81.582 7.50233C81.582 6.52376 81.8455 6.2583 82.8079 6.25781H84.0291L84.0305 15.2081Z" fill="black"/>
<path d="M89.429 6.2887C90.0401 6.2887 90.6086 6.2473 91.1681 6.30088C91.641 6.34618 91.8553 6.65353 91.8898 7.14306C91.8964 7.24048 91.896 7.3379 91.896 7.43532C91.896 9.94352 91.896 12.4516 91.896 14.9594C91.896 15.0378 91.8893 15.1168 91.8841 15.2244H91.6155C90.986 15.2244 90.356 15.2127 89.727 15.2303C89.4905 15.2366 89.4205 15.1728 89.4219 14.9229C89.4328 13.1109 89.4276 11.2984 89.4276 9.48646V6.57365L89.429 6.2887Z" fill="black"/>
</g>
<defs>
<clipPath id="clip0_73_966">
<rect width="100" height="20" fill="black"/>
</clipPath>
</defs>
</svg>
