<svg width="100" height="20" viewBox="0 0 100 20" fill="none" xmlns="http://www.w3.org/2000/svg">
<g clip-path="url(#clip0_71_923)">
<g clip-path="url(#clip1_71_923)">
<path d="M13.6587 2.78242L13.7217 1.75391C14.8102 3.22997 16.38 4.02373 16.8443 5.75312C14.8697 4.3615 12.7624 3.8312 10.4153 4.40204C8.99407 4.73381 7.75024 5.58374 6.93039 6.78333C5.0085 9.50577 5.34525 13.6789 7.66174 15.8778C10.0428 18.1443 13.5975 18.1173 16.9277 15.8947C16.7576 16.2528 16.6828 16.6783 16.431 16.9536C15.2167 18.2828 13.6298 18.9009 11.878 19.1779C8.09374 19.7791 4.46254 18.0818 2.73793 14.8898C-0.138111 9.56488 3.62405 2.86517 9.69419 2.54936C10.9766 2.4818 12.2743 2.69291 13.6587 2.78242Z" fill="black"/>
<path d="M23.3147 15.2953C23.3147 13.7753 23.3147 12.2891 23.3147 10.8063C23.3147 10.2726 23.3504 9.73555 23.3028 9.20525C23.2483 8.59895 23.2483 7.85417 22.3588 7.8795C21.5084 7.90652 21.4591 8.59895 21.4506 9.23059C21.437 10.4398 21.4506 11.6473 21.4506 12.8566C21.4301 13.2214 21.4369 13.5872 21.471 13.9509C21.4965 14.1198 21.6904 14.2668 21.8112 14.4204C21.9812 14.6451 22.1683 14.8663 22.4915 15.275H17.8245C17.8058 14.917 17.5252 14.5201 18.1936 14.3951C18.3415 14.3681 18.5337 14.0472 18.5337 13.8597C18.5587 11.8635 18.5587 9.86785 18.5337 7.87274C18.5337 7.67684 18.3551 7.46573 18.2191 7.29347C18.0334 7.07892 17.8364 6.87428 17.6289 6.68041L17.799 6.46761H21.2006L21.3468 7.42857C21.5169 7.27151 21.6564 7.16005 21.7805 7.04014C22.5884 6.26326 23.5358 6.02682 24.5903 6.41188C25.6107 6.78174 26.0785 7.6059 26.1108 8.63442C26.1618 10.178 26.1414 11.725 26.1499 13.272C26.1499 13.6098 26.1499 13.9476 26.1499 14.3309L27.15 14.4998V15.2936L23.3147 15.2953Z" fill="black"/>
<path d="M41.769 14.3587C42.3217 14.4245 42.8218 14.5124 42.5003 15.2791H38.1088V14.5191L38.8487 14.3502V7.33979C38.3385 7.30939 37.8452 7.21988 38.131 6.47003H41.57C41.5887 6.8078 41.6074 7.12699 41.6176 7.30263C42.2979 6.96486 42.9323 6.45821 43.6585 6.29945C43.9645 6.2233 44.2834 6.21386 44.5933 6.27177C44.9033 6.32968 45.1969 6.45357 45.4541 6.63492C45.7112 6.81627 45.9258 7.05078 46.0829 7.32231C46.2401 7.59384 46.3361 7.89595 46.3645 8.20786C46.5193 9.59948 46.4768 11.0131 46.5091 12.4165C46.5244 13.0583 46.5091 13.7 46.5091 14.3604L47.5193 14.4972V15.2943H43.6398V13.3825C43.6398 12.1176 43.6398 10.8492 43.6398 9.58597C43.6507 9.3327 43.6394 9.07898 43.6058 8.82767C43.5157 8.33622 43.3422 7.87009 42.7299 7.86165C42.0785 7.85151 41.8336 8.32608 41.7945 8.85638C41.7366 9.64001 41.7724 10.4304 41.7707 11.2208C41.7673 12.2561 41.769 13.2947 41.769 14.3587Z" fill="black"/>
<path d="M64.5316 14.38L65.5368 14.4831V15.2887H61.7083C61.6964 15.0353 61.6726 14.7685 61.6709 14.5033C61.6709 12.9006 61.6709 11.2945 61.6709 9.69515C61.6709 9.30503 61.6709 8.87775 61.5212 8.53997C61.3919 8.25962 61.0195 7.89483 60.7762 7.91003C60.4701 7.92861 60.164 8.27482 59.902 8.52478C59.8034 8.61935 59.8 8.84228 59.8 9.00779C59.8 10.776 59.8 12.5443 59.8 14.3463C60.3289 14.429 60.8205 14.5439 60.4667 15.2836H56.1331C56.1212 15.0235 56.1093 14.7871 56.0974 14.532L56.8814 14.3446V7.3544C56.4103 7.28853 55.8609 7.25138 56.1586 6.47619H59.601C59.6197 6.79538 59.6367 7.11627 59.6469 7.30373C60.2881 6.96596 60.9004 6.48126 61.5909 6.31068C61.9088 6.22554 62.2417 6.21145 62.5656 6.26942C62.8896 6.32739 63.1966 6.45598 63.4645 6.64594C63.7324 6.83589 63.9546 7.08248 64.115 7.36794C64.2754 7.6534 64.3701 7.97063 64.3921 8.29678C64.5333 9.77453 64.4959 11.2692 64.5299 12.7587C64.5418 13.2874 64.5316 13.816 64.5316 14.38Z" fill="black"/>
<path d="M12.4671 15.7291C9.80705 15.7172 7.97699 13.7142 8.00421 10.8432C8.03142 7.97213 9.87508 5.98265 12.5283 5.99616C15.2394 6.00967 17.0422 8.00253 17.0218 10.9445C16.9997 13.8426 15.1969 15.7392 12.4671 15.7291ZM11.2595 10.8212C11.3854 11.8193 11.4568 12.858 11.6745 13.8612C11.7443 14.1821 12.2273 14.6668 12.4688 14.6381C12.809 14.5992 13.2801 14.1905 13.36 13.8612C13.8365 11.8912 13.8411 9.83779 13.3736 7.86573C13.2937 7.51951 12.8158 7.26618 12.5232 6.97063C12.229 7.26618 11.7528 7.51951 11.6728 7.86573C11.4466 8.81656 11.3922 9.80116 11.2629 10.8212H11.2595Z" fill="black"/>
<path d="M71.8688 8.84651L71.3874 8.31452C71.4152 8.2275 71.4522 8.1437 71.498 8.06456C72.6579 6.54459 74.1682 5.94674 76.0527 6.38753C77.4831 6.7253 78.3437 7.77577 78.3624 9.23157C78.3828 10.9204 78.3624 12.6093 78.3624 14.3167L79.2808 14.5092C79.291 14.7457 79.3012 14.9838 79.3149 15.276H75.7398C75.6922 15.0615 75.6411 14.8268 75.5697 14.5076C74.5883 15.352 73.5287 15.8367 72.2668 15.2C71.265 14.6933 70.7684 13.3862 71.0371 12.0351C71.3602 10.4155 72.7039 9.75342 75.4592 9.88178C75.5952 9.14037 75.5153 8.44794 74.7788 8.08483C73.6767 7.55284 72.7566 8.01052 71.8688 8.84651ZM75.5323 12.2462C75.5596 12.0215 75.5556 11.7942 75.5204 11.5706C75.437 11.292 75.221 10.8022 75.1428 10.8174C74.7941 10.8816 74.2278 11.0538 74.1904 11.265C74.0764 11.9669 74.0764 12.6825 74.1904 13.3845C74.2193 13.577 74.7584 13.7982 75.0629 13.7965C75.221 13.7965 75.4336 13.3541 75.5153 13.0805C75.5969 12.8069 75.5306 12.535 75.5323 12.2529V12.2462Z" fill="black"/>
<path d="M55.5764 11.2757H50.8142C50.753 12.2266 51.0115 12.9815 51.7854 13.424C52.8824 14.0522 53.9046 13.7009 54.8128 12.9849C55.4183 13.2483 55.2244 13.5844 54.9829 13.9357C54.158 15.1179 52.964 15.5536 51.5915 15.4844C50.0744 15.4067 48.8702 14.7446 48.2188 13.3091C47.5802 11.9086 47.5191 10.3155 48.0487 8.87079C48.6797 7.03669 50.2274 6.09262 52.2157 6.26151C54.0644 6.42026 55.107 7.43357 55.4472 9.47034C55.5356 10.0277 55.5288 10.5833 55.5764 11.2757ZM52.731 10.33C52.6409 9.48554 52.6137 8.67151 52.4419 7.89801C52.3841 7.63624 51.9623 7.28327 51.7054 7.28327C51.4486 7.28327 51.0421 7.64468 50.9843 7.90814C50.8142 8.68164 50.7904 9.48554 50.7037 10.33H52.731Z" fill="black"/>
<path d="M80.2617 4.06993L79.3398 3.97874V3.21875H83.068V14.3517L84.1446 14.4919C84.1582 14.7266 84.1735 14.9816 84.1922 15.289H80.2617V4.06993Z" fill="black"/>
<path d="M94.0681 12.1528C93.6242 11.815 93.2177 11.511 92.8231 11.1884C92.653 11.0466 92.3996 10.8676 92.386 10.6818C92.3095 9.63131 91.3876 9.35602 90.7566 8.79532C90.0763 8.18733 89.4895 7.46281 88.8143 6.843C88.6136 6.65892 88.2463 6.65216 87.9554 6.56434C87.8789 6.90211 87.7853 7.23988 87.7326 7.57765C87.6799 7.94583 87.6748 8.32244 87.6357 8.91185C86.7394 7.83436 86.9622 6.19955 87.8806 5.61182C88.0213 5.53784 88.1827 5.51173 88.3398 5.53751C89.6188 5.7064 89.9913 5.50036 90.5508 4.20163C90.3276 4.25116 90.0992 4.27441 89.8705 4.27087C89.6545 4.24216 89.3093 4.15434 89.2769 4.02767C89.2652 3.91179 89.2797 3.79475 89.3194 3.68516C89.3592 3.57557 89.4231 3.47621 89.5066 3.39435C89.7889 3.12582 90.1682 2.96032 90.4692 2.70868C90.723 2.47022 90.9605 2.21519 91.1801 1.94531C92.2006 2.45197 92.6258 3.33693 92.4098 4.66437C92.3316 5.14739 92.0696 5.76889 92.2686 6.09315C92.7179 6.83455 93.3125 7.4789 94.0171 7.98805C95.2739 8.85105 95.4559 9.26651 94.8266 10.6902C94.725 10.9681 94.7292 11.2732 94.8385 11.5482C95.0835 12.1342 94.9304 12.5361 94.4984 12.96C94.0664 13.3839 93.7653 13.8585 93.3078 14.4361H92.2601L94.0681 12.1528Z" fill="black"/>
<path d="M32.006 14.3073C32.2595 14.9998 31.9533 15.2767 31.4261 15.3206C30.8371 15.3896 30.2423 15.3952 29.6521 15.3375C28.7507 15.2244 28.198 14.5624 28.1724 13.5625C28.1282 11.85 28.1435 10.1359 28.135 8.42166C28.135 8.08389 28.135 7.74612 28.135 7.3695L27.2846 7.22426C27.1707 6.49805 29.9668 4.10325 31.0264 4.10156V6.37814L32.0571 6.43894V7.24115L31.0366 7.33235V11.0293C31.0366 11.8163 31.0672 12.605 31.0264 13.3937C30.9805 14.1114 31.2254 14.4728 32.006 14.3073Z" fill="black"/>
<path d="M70.6158 14.6265C70.3828 14.8494 70.1702 15.2261 69.91 15.2632C69.216 15.3788 68.5083 15.389 67.8112 15.2936C66.9251 15.1433 66.4829 14.3884 66.4676 13.2096C66.4455 11.5798 66.4676 9.94838 66.4676 8.31187V7.36105L65.6172 7.22425C65.6172 6.42373 68.3861 4.09648 69.3589 4.11337V6.35955L70.6788 6.44906V7.24114L69.3691 7.32896V9.92136C69.3691 11.018 69.3691 12.1141 69.3691 13.2096C69.3691 14.2617 69.381 14.2719 70.4134 14.3918L70.6158 14.6265Z" fill="black"/>
<path d="M32.75 6.44531H36.5853V9.91761C36.5853 11.0711 36.5751 12.2263 36.5853 13.3798C36.5853 13.8425 36.3778 14.4353 37.1993 14.5113C37.2877 14.5113 37.3336 14.974 37.417 15.2899H32.9541V14.4978C33.5851 14.5079 33.7161 14.16 33.7041 13.5909C33.6684 11.7331 33.6922 9.87538 33.6905 8.01764C33.6905 7.65285 33.7484 7.28636 33.1803 7.24076C33.0357 7.23232 32.932 6.80335 32.75 6.44531Z" fill="black"/>
<path d="M35.1815 5.42134C34.1457 5.43148 33.4314 4.91469 33.4144 4.13274C33.3974 3.3508 34.076 2.79855 35.1152 2.78166C36.1544 2.76477 36.8517 3.27312 36.8619 4.07363C36.8738 4.90793 36.2479 5.40783 35.1815 5.42134Z" fill="black"/>
<path d="M98.2443 14.9492C97.8378 15.4694 85.7332 15.5099 85.0938 14.9492H98.2443Z" fill="black"/>
<path d="M96.866 12.6892C95.9425 12.4426 95.6296 12.0136 95.6398 11.2435C95.65 10.4734 95.4986 9.70496 95.4102 8.85547C97.0582 9.71848 96.5157 11.2925 96.866 12.6892Z" fill="black"/>
<path d="M93.0385 11.6719L93.6338 12.2275C92.4807 12.5653 92.2732 14.0126 90.7969 13.7475L93.0385 11.6719Z" fill="black"/>
<path d="M85.2969 6.26405L87.7358 5.23047C86.7919 6.57649 86.4007 6.75551 85.2969 6.26405Z" fill="black"/>
</g>
</g>
<defs>
<clipPath id="clip0_71_923">
<rect width="100" height="20" fill="black"/>
</clipPath>
<clipPath id="clip1_71_923">
<rect width="96.4912" height="17.5439" fill="black" transform="translate(1.75391 1.75391)"/>
</clipPath>
</defs>
</svg>
