<svg width="100" height="20" viewBox="0 0 100 20" fill="none" xmlns="http://www.w3.org/2000/svg">
<g clip-path="url(#clip0_72_945)">
<g clip-path="url(#clip1_72_945)">
<path d="M18.7036 21.9869C18.7698 21.8642 18.8201 21.7726 18.8721 21.6798C20.0974 19.503 21.3371 17.3307 22.5478 15.1432C23.1821 13.9984 24.0305 13.1226 25.2435 12.6814C25.6708 12.5223 26.1196 12.4335 26.5736 12.4181C28.1522 12.3862 29.7315 12.4046 31.3105 12.4034C32.073 12.4075 32.8145 12.1457 33.4147 11.6607C34.0149 11.1756 34.4387 10.4956 34.6172 9.73102C35.06 7.88293 33.885 5.95307 32.0685 5.56056C31.8168 5.50699 31.5604 5.4796 31.3034 5.47878C29.6451 5.47183 27.9849 5.52335 26.329 5.46038C24.9292 5.40764 23.9999 6.04711 23.3304 7.24796C21.8033 9.98738 20.2778 12.7243 18.721 15.4458C17.8203 17.0216 16.457 17.8491 14.6719 17.863C12.6239 17.8794 10.5757 17.8794 8.52718 17.863C6.48516 17.8426 4.67426 17.1344 3.11667 15.7778C1.55909 14.4211 0.575544 12.6802 0.169201 10.6142C-0.173885 8.85933 0.00740996 7.03842 0.689123 5.39211C1.37084 3.7458 2.52087 2.3516 3.98724 1.39377C5.36167 0.490583 6.86058 0.01466 8.49428 0.0130245C11.3555 0.0111165 14.2164 0.0108439 17.077 0.0122068C17.1341 0.0122068 17.1912 0.0195664 17.2752 0.0256995C17.2277 0.116059 17.1932 0.186385 17.1563 0.254666C16.2099 1.93294 15.2664 3.61189 14.3258 5.29152C14.2509 5.42604 14.1716 5.47919 14.017 5.47837C12.233 5.4721 10.4491 5.47088 8.66514 5.47469C7.81111 5.47268 6.98847 5.80662 6.36488 6.40845C5.74128 7.01028 5.36366 7.83471 5.30897 8.71373C5.25428 9.59274 5.52663 10.4602 6.07053 11.1393C6.61442 11.8184 7.38892 12.258 8.2362 12.3686C8.39303 12.3898 8.55098 12.401 8.70914 12.4022C10.3016 12.4046 11.8941 12.4079 13.4861 12.4022C14.0114 12.4001 14.5216 12.3179 14.9843 12.0227C15.4136 11.7488 15.7216 11.3685 15.9686 10.9245C17.5036 8.175 19.0384 5.42522 20.5732 2.67517C21.3787 1.23677 22.5553 0.331942 24.166 0.0682218C24.4002 0.031336 24.6368 0.0132914 24.8737 0.0142511C27.0802 0.011389 29.2875 -0.0209116 31.4941 0.0224285C35.5908 0.104202 39.0334 3.02639 39.8267 7.13306C40.5799 11.0304 38.8098 14.929 35.4322 16.8192C34.1922 17.5142 32.8665 17.8732 31.4509 17.8671C30.5458 17.863 29.6404 17.854 28.7353 17.8695C27.7189 17.8871 26.9117 18.3254 26.3789 19.2323C25.8719 20.0938 25.3823 20.9659 24.8883 21.8352C24.8316 21.9345 24.7797 21.9987 24.6505 21.9987C22.7143 21.9933 20.7784 21.9919 18.8427 21.9946C18.8082 21.9971 18.7753 21.9918 18.7036 21.9869Z" fill="black"/>
</g>
<path d="M46.5508 7.27344C46.2747 7.53906 45.9479 7.74609 45.5703 7.89453C45.1953 8.04297 44.7865 8.11719 44.3438 8.11719C43.8984 8.11719 43.4857 8.04167 43.1055 7.89062C42.7279 7.73698 42.3984 7.52344 42.1172 7.25C41.8385 6.97396 41.6211 6.65104 41.4648 6.28125C41.3112 5.91146 41.2344 5.50781 41.2344 5.07031C41.2344 4.63281 41.3112 4.22917 41.4648 3.85938C41.6211 3.48958 41.8385 3.16797 42.1172 2.89453C42.3984 2.61849 42.7279 2.40495 43.1055 2.25391C43.4857 2.10026 43.8984 2.02344 44.3438 2.02344C44.7839 2.02344 45.1901 2.09896 45.5625 2.25C45.9375 2.39844 46.263 2.60547 46.5391 2.87109L45.4609 3.95703C45.3255 3.77474 45.1589 3.63151 44.9609 3.52734C44.7656 3.42318 44.5521 3.37109 44.3203 3.37109C44.1068 3.37109 43.9089 3.41406 43.7266 3.5C43.5443 3.58594 43.3841 3.70573 43.2461 3.85938C43.1107 4.01302 43.0052 4.19271 42.9297 4.39844C42.8542 4.60417 42.8164 4.82682 42.8164 5.06641C42.8164 5.30859 42.8542 5.53255 42.9297 5.73828C43.0052 5.94401 43.1107 6.125 43.2461 6.28125C43.3841 6.4349 43.5443 6.55469 43.7266 6.64062C43.9089 6.72656 44.1068 6.76953 44.3203 6.76953C44.5521 6.76953 44.7656 6.71745 44.9609 6.61328C45.1562 6.50911 45.3216 6.36589 45.457 6.18359L46.5508 7.27344ZM50.1328 8.11719C49.6849 8.11719 49.2708 8.04167 48.8906 7.89062C48.513 7.73698 48.1836 7.52344 47.9023 7.25C47.6237 6.97396 47.4076 6.65104 47.2539 6.28125C47.1003 5.91146 47.0234 5.50781 47.0234 5.07031C47.0234 4.63281 47.1003 4.22917 47.2539 3.85938C47.4076 3.48958 47.6237 3.16797 47.9023 2.89453C48.1836 2.61849 48.513 2.40495 48.8906 2.25391C49.2708 2.10026 49.6862 2.02344 50.1367 2.02344C50.5846 2.02344 50.9974 2.10026 51.375 2.25391C51.7526 2.40495 52.0794 2.61849 52.3555 2.89453C52.6341 3.16797 52.8503 3.48958 53.0039 3.85938C53.1576 4.22917 53.2344 4.63281 53.2344 5.07031C53.2344 5.50781 53.1576 5.91146 53.0039 6.28125C52.8503 6.65104 52.6341 6.97396 52.3555 7.25C52.0794 7.52344 51.7526 7.73698 51.375 7.89062C50.9974 8.04167 50.5833 8.11719 50.1328 8.11719ZM50.1328 6.76953C50.349 6.76953 50.5495 6.72656 50.7344 6.64062C50.9193 6.55469 51.0794 6.4349 51.2148 6.28125C51.3529 6.125 51.4596 5.94401 51.5352 5.73828C51.6133 5.53255 51.6523 5.3099 51.6523 5.07031C51.6523 4.83073 51.6133 4.60807 51.5352 4.40234C51.4596 4.19661 51.3529 4.01693 51.2148 3.86328C51.0794 3.70703 50.9193 3.58594 50.7344 3.5C50.5495 3.41406 50.349 3.37109 50.1328 3.37109C49.9167 3.37109 49.7148 3.41406 49.5273 3.5C49.3424 3.58594 49.181 3.70703 49.043 3.86328C48.9049 4.01693 48.7969 4.19661 48.7188 4.40234C48.6432 4.60807 48.6055 4.83073 48.6055 5.07031C48.6055 5.3099 48.6432 5.53255 48.7188 5.73828C48.7969 5.94401 48.9049 6.125 49.043 6.28125C49.181 6.4349 49.3424 6.55469 49.5273 6.64062C49.7148 6.72656 49.9167 6.76953 50.1328 6.76953ZM60.3633 8H58.8164V4.35938L57.6797 7.01562H56.5391L55.4062 4.36719V8H53.8594V2.14062H55.8125L57.1094 5.27344L58.4102 2.14062H60.3633V8ZM61.1484 8V2.14062H63.3789C64.0534 2.14062 64.5742 2.27734 64.9414 2.55078C65.3086 2.82422 65.4922 3.21094 65.4922 3.71094C65.4922 3.98958 65.4297 4.23828 65.3047 4.45703C65.1797 4.67318 65.0104 4.84245 64.7969 4.96484C65.1146 5.06901 65.3607 5.23828 65.5352 5.47266C65.7096 5.70703 65.7969 5.99479 65.7969 6.33594C65.7969 6.67448 65.7148 6.96875 65.5508 7.21875C65.3867 7.46615 65.1536 7.65885 64.8516 7.79688C64.5495 7.93229 64.1927 8 63.7812 8H61.1484ZM62.6953 4.50391H63.2734C63.4948 4.50391 63.6654 4.45964 63.7852 4.37109C63.9076 4.27995 63.9688 4.15104 63.9688 3.98438C63.9688 3.83073 63.9076 3.70964 63.7852 3.62109C63.6628 3.53255 63.4922 3.48828 63.2734 3.48828H62.6953V4.50391ZM62.6953 6.65234H63.3789C63.556 6.65234 63.707 6.63281 63.832 6.59375C63.957 6.55208 64.0521 6.49349 64.1172 6.41797C64.1823 6.33984 64.2148 6.24609 64.2148 6.13672C64.2148 6.02734 64.1862 5.9362 64.1289 5.86328C64.0716 5.78776 63.987 5.73177 63.875 5.69531C63.7656 5.65625 63.6315 5.63672 63.4727 5.63672H62.6953V6.65234ZM69.3359 8.11719C68.888 8.11719 68.474 8.04167 68.0938 7.89062C67.7161 7.73698 67.3867 7.52344 67.1055 7.25C66.8268 6.97396 66.6107 6.65104 66.457 6.28125C66.3034 5.91146 66.2266 5.50781 66.2266 5.07031C66.2266 4.63281 66.3034 4.22917 66.457 3.85938C66.6107 3.48958 66.8268 3.16797 67.1055 2.89453C67.3867 2.61849 67.7161 2.40495 68.0938 2.25391C68.474 2.10026 68.8893 2.02344 69.3398 2.02344C69.7878 2.02344 70.2005 2.10026 70.5781 2.25391C70.9557 2.40495 71.2826 2.61849 71.5586 2.89453C71.8372 3.16797 72.0534 3.48958 72.207 3.85938C72.3607 4.22917 72.4375 4.63281 72.4375 5.07031C72.4375 5.50781 72.3607 5.91146 72.207 6.28125C72.0534 6.65104 71.8372 6.97396 71.5586 7.25C71.2826 7.52344 70.9557 7.73698 70.5781 7.89062C70.2005 8.04167 69.7865 8.11719 69.3359 8.11719ZM69.3359 6.76953C69.5521 6.76953 69.7526 6.72656 69.9375 6.64062C70.1224 6.55469 70.2826 6.4349 70.418 6.28125C70.556 6.125 70.6628 5.94401 70.7383 5.73828C70.8164 5.53255 70.8555 5.3099 70.8555 5.07031C70.8555 4.83073 70.8164 4.60807 70.7383 4.40234C70.6628 4.19661 70.556 4.01693 70.418 3.86328C70.2826 3.70703 70.1224 3.58594 69.9375 3.5C69.7526 3.41406 69.5521 3.37109 69.3359 3.37109C69.1198 3.37109 68.918 3.41406 68.7305 3.5C68.5456 3.58594 68.3841 3.70703 68.2461 3.86328C68.1081 4.01693 68 4.19661 67.9219 4.40234C67.8464 4.60807 67.8086 4.83073 67.8086 5.07031C67.8086 5.3099 67.8464 5.53255 67.9219 5.73828C68 5.94401 68.1081 6.125 68.2461 6.28125C68.3841 6.4349 68.5456 6.55469 68.7305 6.64062C68.918 6.72656 69.1198 6.76953 69.3359 6.76953ZM74.6094 2.14062V8H73.0625V2.14062H74.6094ZM78.3438 8.11719C77.8958 8.11719 77.4818 8.04167 77.1016 7.89062C76.724 7.73698 76.3945 7.52344 76.1133 7.25C75.8346 6.97396 75.6185 6.65104 75.4648 6.28125C75.3112 5.91146 75.2344 5.50781 75.2344 5.07031C75.2344 4.63281 75.3112 4.22917 75.4648 3.85938C75.6185 3.48958 75.8346 3.16797 76.1133 2.89453C76.3945 2.61849 76.724 2.40495 77.1016 2.25391C77.4818 2.10026 77.8971 2.02344 78.3477 2.02344C78.7956 2.02344 79.2083 2.10026 79.5859 2.25391C79.9635 2.40495 80.2904 2.61849 80.5664 2.89453C80.8451 3.16797 81.0612 3.48958 81.2148 3.85938C81.3685 4.22917 81.4453 4.63281 81.4453 5.07031C81.4453 5.50781 81.3685 5.91146 81.2148 6.28125C81.0612 6.65104 80.8451 6.97396 80.5664 7.25C80.2904 7.52344 79.9635 7.73698 79.5859 7.89062C79.2083 8.04167 78.7943 8.11719 78.3438 8.11719ZM78.3438 6.76953C78.5599 6.76953 78.7604 6.72656 78.9453 6.64062C79.1302 6.55469 79.2904 6.4349 79.4258 6.28125C79.5638 6.125 79.6706 5.94401 79.7461 5.73828C79.8242 5.53255 79.8633 5.3099 79.8633 5.07031C79.8633 4.83073 79.8242 4.60807 79.7461 4.40234C79.6706 4.19661 79.5638 4.01693 79.4258 3.86328C79.2904 3.70703 79.1302 3.58594 78.9453 3.5C78.7604 3.41406 78.5599 3.37109 78.3438 3.37109C78.1276 3.37109 77.9258 3.41406 77.7383 3.5C77.5534 3.58594 77.3919 3.70703 77.2539 3.86328C77.1159 4.01693 77.0078 4.19661 76.9297 4.40234C76.8542 4.60807 76.8164 4.83073 76.8164 5.07031C76.8164 5.3099 76.8542 5.53255 76.9297 5.73828C77.0078 5.94401 77.1159 6.125 77.2539 6.28125C77.3919 6.4349 77.5534 6.55469 77.7383 6.64062C77.9258 6.72656 78.1276 6.76953 78.3438 6.76953ZM81.7969 7.32812L82.5234 6.14844C82.7135 6.29688 82.8906 6.41797 83.0547 6.51172C83.2214 6.60547 83.3828 6.67448 83.5391 6.71875C83.6979 6.76042 83.8594 6.78125 84.0234 6.78125C84.1849 6.78125 84.3229 6.76302 84.4375 6.72656C84.5521 6.6875 84.6393 6.63281 84.6992 6.5625C84.7617 6.48958 84.793 6.40365 84.793 6.30469C84.793 6.17969 84.7487 6.07292 84.6602 5.98438C84.5716 5.89583 84.4531 5.81641 84.3047 5.74609C84.1589 5.67578 83.9987 5.60547 83.8242 5.53516C83.6367 5.45964 83.4453 5.3763 83.25 5.28516C83.0547 5.19141 82.875 5.07812 82.7109 4.94531C82.5469 4.8125 82.4141 4.65104 82.3125 4.46094C82.2109 4.26823 82.1602 4.03385 82.1602 3.75781C82.1602 3.39323 82.2513 3.08203 82.4336 2.82422C82.6185 2.5638 82.8698 2.36589 83.1875 2.23047C83.5078 2.09245 83.8698 2.02344 84.2734 2.02344C84.5677 2.02344 84.8789 2.0625 85.207 2.14062C85.5352 2.21875 85.8672 2.34115 86.2031 2.50781L85.6016 3.75C85.4141 3.63542 85.2083 3.54427 84.9844 3.47656C84.763 3.40625 84.5599 3.37109 84.375 3.37109C84.2474 3.37109 84.1354 3.38802 84.0391 3.42188C83.9453 3.45573 83.8724 3.50521 83.8203 3.57031C83.7682 3.63281 83.7422 3.70703 83.7422 3.79297C83.7422 3.90755 83.7865 4.00911 83.875 4.09766C83.9635 4.18359 84.0807 4.26302 84.2266 4.33594C84.3724 4.40885 84.5312 4.48307 84.7031 4.55859C84.8906 4.63932 85.082 4.72917 85.2773 4.82812C85.4753 4.92708 85.6562 5.04427 85.8203 5.17969C85.987 5.3151 86.1211 5.47786 86.2227 5.66797C86.3242 5.85547 86.375 6.08073 86.375 6.34375C86.375 6.69531 86.2786 7.00521 86.0859 7.27344C85.8958 7.53906 85.6289 7.74609 85.2852 7.89453C84.944 8.04297 84.5469 8.11719 84.0938 8.11719C83.6719 8.11719 83.2656 8.04948 82.875 7.91406C82.4844 7.77865 82.125 7.58333 81.7969 7.32812ZM88.6797 8V2.14062H90.7539C91.4544 2.14062 92.0638 2.26172 92.582 2.50391C93.1029 2.74609 93.5065 3.08724 93.793 3.52734C94.082 3.96484 94.2266 4.47917 94.2266 5.07031C94.2266 5.65885 94.082 6.17318 93.793 6.61328C93.5065 7.05339 93.1029 7.39453 92.582 7.63672C92.0638 7.87891 91.4544 8 90.7539 8H88.6797ZM90.2266 6.65234H90.8047C91.2005 6.65234 91.5352 6.59115 91.8086 6.46875C92.082 6.34635 92.2891 6.16797 92.4297 5.93359C92.5729 5.69661 92.6445 5.40885 92.6445 5.07031C92.6445 4.72917 92.5729 4.44141 92.4297 4.20703C92.2891 3.97266 92.082 3.79427 91.8086 3.67188C91.5352 3.54948 91.2005 3.48828 90.8047 3.48828H90.2266V6.65234ZM94.8516 8V2.14062H98.7578V3.48828H96.3984V4.39453H98.6016V5.74219H96.3984V6.65234H98.7969V8H94.8516ZM43.1094 18V12.1406H45.2461C45.7487 12.1406 46.1836 12.2253 46.5508 12.3945C46.9206 12.5612 47.2044 12.7995 47.4023 13.1094C47.6029 13.4167 47.7031 13.7826 47.7031 14.207C47.7031 14.6315 47.6029 15 47.4023 15.3125C47.2044 15.6224 46.9232 15.862 46.5586 16.0312C46.194 16.2005 45.763 16.2852 45.2656 16.2852H44.6562V18H43.1094ZM44.6562 14.9375H45.0938C45.4271 14.9375 45.681 14.875 45.8555 14.75C46.0326 14.625 46.1211 14.444 46.1211 14.207C46.1211 13.9753 46.0326 13.7982 45.8555 13.6758C45.681 13.5508 45.4271 13.4883 45.0938 13.4883H44.6562V14.9375ZM51.3984 18.1172C50.9505 18.1172 50.5365 18.0417 50.1562 17.8906C49.7786 17.737 49.4492 17.5234 49.168 17.25C48.8893 16.974 48.6732 16.651 48.5195 16.2812C48.3659 15.9115 48.2891 15.5078 48.2891 15.0703C48.2891 14.6328 48.3659 14.2292 48.5195 13.8594C48.6732 13.4896 48.8893 13.168 49.168 12.8945C49.4492 12.6185 49.7786 12.4049 50.1562 12.2539C50.5365 12.1003 50.9518 12.0234 51.4023 12.0234C51.8503 12.0234 52.263 12.1003 52.6406 12.2539C53.0182 12.4049 53.3451 12.6185 53.6211 12.8945C53.8997 13.168 54.1159 13.4896 54.2695 13.8594C54.4232 14.2292 54.5 14.6328 54.5 15.0703C54.5 15.5078 54.4232 15.9115 54.2695 16.2812C54.1159 16.651 53.8997 16.974 53.6211 17.25C53.3451 17.5234 53.0182 17.737 52.6406 17.8906C52.263 18.0417 51.849 18.1172 51.3984 18.1172ZM51.3984 16.7695C51.6146 16.7695 51.8151 16.7266 52 16.6406C52.1849 16.5547 52.3451 16.4349 52.4805 16.2812C52.6185 16.125 52.7253 15.944 52.8008 15.7383C52.8789 15.5326 52.918 15.3099 52.918 15.0703C52.918 14.8307 52.8789 14.6081 52.8008 14.4023C52.7253 14.1966 52.6185 14.0169 52.4805 13.8633C52.3451 13.707 52.1849 13.5859 52 13.5C51.8151 13.4141 51.6146 13.3711 51.3984 13.3711C51.1823 13.3711 50.9805 13.4141 50.793 13.5C50.6081 13.5859 50.4466 13.707 50.3086 13.8633C50.1706 14.0169 50.0625 14.1966 49.9844 14.4023C49.9089 14.6081 49.8711 14.8307 49.8711 15.0703C49.8711 15.3099 49.9089 15.5326 49.9844 15.7383C50.0625 15.944 50.1706 16.125 50.3086 16.2812C50.4466 16.4349 50.6081 16.5547 50.793 16.6406C50.9805 16.7266 51.1823 16.7695 51.3984 16.7695ZM60.1953 18H58.4844L57.3672 16.0625H56.6719V18H55.125V12.1406H57.4844C57.9922 12.1406 58.4245 12.2174 58.7812 12.3711C59.138 12.5247 59.4102 12.7487 59.5977 13.043C59.7878 13.3346 59.8828 13.6875 59.8828 14.1016C59.8828 14.4896 59.7995 14.8242 59.6328 15.1055C59.4661 15.3867 59.2253 15.6081 58.9102 15.7695L60.1953 18ZM56.6719 14.8711H57.3633C57.6732 14.8711 57.9062 14.8138 58.0625 14.6992C58.2214 14.582 58.3008 14.4089 58.3008 14.1797C58.3008 13.9505 58.2214 13.7786 58.0625 13.6641C57.9062 13.5469 57.6732 13.4883 57.3633 13.4883H56.6719V14.8711ZM63.3672 18H61.8203V13.4883H60.1953V12.1406H64.9922V13.4883H63.3672V18ZM70.6719 12.1406V15.3555C70.6719 15.9284 70.5664 16.4219 70.3555 16.8359C70.1471 17.2474 69.8464 17.5638 69.4531 17.7852C69.0625 18.0065 68.5938 18.1172 68.0469 18.1172C67.5026 18.1172 67.0339 18.0065 66.6406 17.7852C66.2474 17.5638 65.9453 17.2474 65.7344 16.8359C65.526 16.4219 65.4219 15.9284 65.4219 15.3555V12.1406H66.9688V15.1445C66.9688 15.5169 67.0065 15.8229 67.082 16.0625C67.1602 16.3021 67.2786 16.4805 67.4375 16.5977C67.5964 16.7122 67.7995 16.7695 68.0469 16.7695C68.2943 16.7695 68.4974 16.7122 68.6562 16.5977C68.8151 16.4805 68.9323 16.3021 69.0078 16.0625C69.0859 15.8229 69.125 15.5169 69.125 15.1445V12.1406H70.6719ZM75.5117 13.832C75.3711 13.6862 75.1992 13.5729 74.9961 13.4922C74.793 13.4115 74.5742 13.3711 74.3398 13.3711C74.1133 13.3711 73.9076 13.4102 73.7227 13.4883C73.5404 13.5638 73.3828 13.6745 73.25 13.8203C73.1198 13.9661 73.0182 14.1406 72.9453 14.3438C72.875 14.5469 72.8398 14.776 72.8398 15.0312C72.8398 15.2917 72.8776 15.5286 72.9531 15.7422C73.0286 15.9557 73.1367 16.1393 73.2773 16.293C73.418 16.444 73.5846 16.5612 73.7773 16.6445C73.9727 16.7279 74.1888 16.7695 74.4258 16.7695C74.6029 16.7695 74.7643 16.7461 74.9102 16.6992C75.056 16.6523 75.1849 16.5833 75.2969 16.4922C75.4089 16.401 75.5039 16.2891 75.582 16.1562C75.6602 16.0208 75.7201 15.8672 75.7617 15.6953H74.3594V14.5234H77.1211L77.1641 15.1133C77.1641 15.5586 77.0964 15.9661 76.9609 16.3359C76.8281 16.7031 76.638 17.0195 76.3906 17.2852C76.1432 17.5508 75.8477 17.7565 75.5039 17.9023C75.1628 18.0456 74.7826 18.1172 74.3633 18.1172C73.9258 18.1172 73.5182 18.0404 73.1406 17.8867C72.7656 17.7305 72.4362 17.5143 72.1523 17.2383C71.8711 16.9596 71.651 16.6341 71.4922 16.2617C71.3359 15.8893 71.2578 15.487 71.2578 15.0547C71.2578 14.6276 71.3346 14.2305 71.4883 13.8633C71.6419 13.4961 71.8568 13.1745 72.1328 12.8984C72.4089 12.6224 72.7305 12.4076 73.0977 12.2539C73.4674 12.1003 73.8672 12.0234 74.2969 12.0234C74.7005 12.0234 75.0938 12.0938 75.4766 12.2344C75.8594 12.375 76.2031 12.5755 76.5078 12.8359L75.5117 13.832ZM79.0586 18H77.4375L79.7266 12.1406H81.3477L83.6328 18H82.0117L81.6328 16.957H79.4375L79.0586 18ZM79.9297 15.6094H81.1445L80.5352 13.9375L79.9297 15.6094ZM88.0469 18H84.0625V12.1406H85.6094V16.6523H88.0469V18Z" fill="black"/>
</g>
<defs>
<clipPath id="clip0_72_945">
<rect width="100" height="20" fill="black"/>
</clipPath>
<clipPath id="clip1_72_945">
<rect width="40" height="22" fill="black"/>
</clipPath>
</defs>
</svg>
