<svg width="100" height="20" viewBox="0 0 100 20" fill="none" xmlns="http://www.w3.org/2000/svg">
<g clip-path="url(#clip0_74_1031)">
<path d="M9.75726 14.3273V8.19662C9.75726 7.00992 9.74092 5.82323 9.75726 4.63653C9.80265 2.61002 11.2241 1.06549 13.1956 1.02715C15.8497 0.974204 18.5056 1.01437 21.1597 1.01802C21.2444 1.02504 21.3282 1.0397 21.4102 1.06184C21.7497 6.67217 17.0624 13.126 9.75726 14.3273Z" fill="black"/>
<path d="M27.7623 10.0562C27.7623 11.8818 27.7623 13.7075 27.7623 15.5332C27.7623 17.3589 26.5805 18.7227 24.7996 19.0751C24.3403 19.1645 24.0971 19.0404 23.8502 18.6697C22.1001 16.0152 21.2723 13.1069 21.5138 9.93019C21.7534 6.78088 22.9933 4.04965 25.0901 1.7C25.4259 1.33486 25.7019 1.25088 26.1212 1.54481C27.1614 2.27509 27.7551 3.22992 27.7551 4.51886C27.7696 6.36462 27.7623 8.21039 27.7623 10.0562Z" fill="black"/>
<path d="M20.5877 19.133H18.9538C17.1384 19.133 15.323 19.1439 13.5077 19.133C11.6923 19.122 10.3979 18.1471 9.95312 16.5551C11.233 16.0987 12.5346 15.7117 13.7654 15.1713C15.3594 14.4738 16.7173 13.4022 17.9408 12.1497C18.3802 11.6952 18.7904 11.1511 19.5583 11.4633C20.3589 11.7883 20.2246 12.4875 20.2591 13.1447C20.3626 15.0307 20.4969 16.9148 20.6222 18.8044C20.6172 18.9145 20.6057 19.0242 20.5877 19.133Z" fill="black"/>
<path d="M36.9375 2.14062V8H35.3906V2.14062H36.9375ZM41.7773 8H40.3359V6.11719C40.3359 5.85677 40.2852 5.65625 40.1836 5.51562C40.0846 5.375 39.9427 5.30469 39.7578 5.30469C39.5677 5.30469 39.4206 5.3763 39.3164 5.51953C39.2122 5.66016 39.1602 5.85938 39.1602 6.11719V8H37.7188V4.09375H38.8594L38.9062 4.71484C39.0443 4.48568 39.224 4.3125 39.4453 4.19531C39.6693 4.07552 39.931 4.01562 40.2305 4.01562C40.7148 4.01562 41.0938 4.16667 41.3672 4.46875C41.6406 4.76823 41.7773 5.1862 41.7773 5.72266V8ZM44.1406 8H42.6992V5.37891H42.0156V4.09375H42.6992V3.64062C42.6992 3.33073 42.776 3.05469 42.9297 2.8125C43.0833 2.56771 43.2917 2.375 43.5547 2.23438C43.8203 2.09375 44.1224 2.02344 44.4609 2.02344C44.6745 2.02344 44.8932 2.05469 45.1172 2.11719C45.3438 2.17969 45.5664 2.27865 45.7852 2.41406L45.2422 3.53125C45.1615 3.45573 45.0742 3.40104 44.9805 3.36719C44.8867 3.33073 44.7943 3.3125 44.7031 3.3125C44.5521 3.3125 44.4206 3.36458 44.3086 3.46875C44.1966 3.57031 44.1406 3.72135 44.1406 3.92188V4.09375H45.2812V5.37891H44.1406V8ZM47.3867 8H45.9453V4.09375H47.1953L47.2422 4.70703C47.3724 4.48828 47.5417 4.31901 47.75 4.19922C47.9583 4.07682 48.1966 4.01562 48.4648 4.01562C48.556 4.01562 48.6484 4.02344 48.7422 4.03906C48.8359 4.05208 48.931 4.07292 49.0273 4.10156L48.8477 5.39844C48.6576 5.33594 48.4805 5.30469 48.3164 5.30469C48.1263 5.30469 47.9609 5.34505 47.8203 5.42578C47.6823 5.50391 47.5755 5.61458 47.5 5.75781C47.4245 5.90104 47.3867 6.07161 47.3867 6.26953V8ZM53.0273 8H51.7656L51.6953 7.57031C51.5521 7.73438 51.3789 7.86068 51.1758 7.94922C50.9727 8.03516 50.7513 8.07812 50.5117 8.07812C50.2435 8.07812 50.0052 8.02734 49.7969 7.92578C49.5885 7.82161 49.4245 7.67969 49.3047 7.5C49.1849 7.31771 49.125 7.11068 49.125 6.87891C49.125 6.63411 49.1901 6.41927 49.3203 6.23438C49.4505 6.04948 49.6302 5.90495 49.8594 5.80078C50.0911 5.69401 50.3555 5.64062 50.6523 5.64062C50.8138 5.64062 50.9727 5.65755 51.1289 5.69141C51.2852 5.72266 51.4375 5.76953 51.5859 5.83203V5.76953C51.5859 5.64974 51.5469 5.54427 51.4688 5.45312C51.3932 5.36198 51.2865 5.29036 51.1484 5.23828C51.013 5.1862 50.8581 5.16016 50.6836 5.16016C50.5065 5.16016 50.3346 5.1862 50.168 5.23828C50.0039 5.29036 49.8568 5.36458 49.7266 5.46094L49.3594 4.40234C49.6458 4.27474 49.9297 4.17839 50.2109 4.11328C50.4922 4.04818 50.7617 4.01562 51.0195 4.01562C51.4284 4.01562 51.7826 4.09505 52.082 4.25391C52.3841 4.41016 52.6172 4.63281 52.7812 4.92188C52.9453 5.20833 53.0273 5.54688 53.0273 5.9375V8ZM50.8438 7.02734C50.9609 7.02734 51.0755 7.0013 51.1875 6.94922C51.3021 6.89714 51.3958 6.83073 51.4688 6.75C51.5417 6.66927 51.5781 6.58724 51.5781 6.50391V6.5C51.4844 6.44531 51.3802 6.40365 51.2656 6.375C51.151 6.34375 51.0365 6.32812 50.9219 6.32812C50.7578 6.32812 50.6276 6.35938 50.5312 6.42188C50.4375 6.48177 50.3906 6.5651 50.3906 6.67188C50.3906 6.73958 50.4102 6.80078 50.4492 6.85547C50.4883 6.91016 50.5417 6.95312 50.6094 6.98438C50.6797 7.01302 50.7578 7.02734 50.8438 7.02734ZM57.4492 7.58984C56.9622 7.91536 56.4336 8.07812 55.8633 8.07812C55.4232 8.07812 55.0273 7.98698 54.6758 7.80469C54.3268 7.61979 54.0495 7.36849 53.8438 7.05078C53.6406 6.73307 53.5391 6.3763 53.5391 5.98047C53.5391 5.60547 53.6302 5.27083 53.8125 4.97656C53.9948 4.67969 54.2422 4.44531 54.5547 4.27344C54.8698 4.10156 55.2253 4.01562 55.6211 4.01562C56.0352 4.01562 56.3984 4.11068 56.7109 4.30078C57.0234 4.49089 57.2669 4.75521 57.4414 5.09375C57.6159 5.43229 57.7031 5.82552 57.7031 6.27344V6.39844H55.0859C55.1328 6.5 55.1979 6.59245 55.2812 6.67578C55.3646 6.75651 55.4688 6.82161 55.5938 6.87109C55.7188 6.92057 55.8646 6.94531 56.0312 6.94531C56.3984 6.94531 56.7461 6.82812 57.0742 6.59375L57.4492 7.58984ZM55.0195 5.8125H56.3828C56.3698 5.6901 56.332 5.58203 56.2695 5.48828C56.2096 5.39453 56.1289 5.32161 56.0273 5.26953C55.9284 5.21484 55.8177 5.1875 55.6953 5.1875C55.5703 5.1875 55.4609 5.21615 55.3672 5.27344C55.2734 5.33073 55.1966 5.40625 55.1367 5.5C55.0794 5.59375 55.0404 5.69792 55.0195 5.8125ZM58.0156 7.66797L58.3125 6.48047C58.3828 6.5638 58.487 6.64453 58.625 6.72266C58.7656 6.80078 58.918 6.86458 59.082 6.91406C59.2461 6.96094 59.3971 6.98438 59.5352 6.98438C59.6393 6.98438 59.7188 6.96875 59.7734 6.9375C59.8281 6.90625 59.8555 6.86198 59.8555 6.80469C59.8555 6.74479 59.8294 6.69401 59.7773 6.65234C59.7253 6.60807 59.6549 6.56771 59.5664 6.53125C59.4805 6.49479 59.3815 6.45703 59.2695 6.41797C59.1029 6.35807 58.9271 6.28516 58.7422 6.19922C58.5599 6.11068 58.4049 5.99089 58.2773 5.83984C58.1497 5.6862 58.0859 5.48177 58.0859 5.22656C58.0859 4.97917 58.151 4.76562 58.2812 4.58594C58.4141 4.40365 58.6003 4.26302 58.8398 4.16406C59.082 4.0651 59.3659 4.01562 59.6914 4.01562C60.2357 4.01562 60.7839 4.15234 61.3359 4.42578L60.9336 5.52344C60.8503 5.45052 60.7409 5.38151 60.6055 5.31641C60.4701 5.2513 60.3307 5.19792 60.1875 5.15625C60.0469 5.11458 59.9245 5.09375 59.8203 5.09375C59.7344 5.09375 59.6693 5.10938 59.625 5.14062C59.5833 5.16927 59.5625 5.20964 59.5625 5.26172C59.5625 5.31901 59.5872 5.36979 59.6367 5.41406C59.6888 5.45573 59.7578 5.49479 59.8438 5.53125C59.9323 5.5651 60.0286 5.60156 60.1328 5.64062C60.3073 5.70052 60.487 5.77474 60.6719 5.86328C60.8568 5.94922 61.013 6.06901 61.1406 6.22266C61.2708 6.3737 61.3359 6.57812 61.3359 6.83594C61.3359 7.08854 61.2656 7.30859 61.125 7.49609C60.987 7.68099 60.7904 7.82422 60.5352 7.92578C60.2826 8.02734 59.9831 8.07812 59.6367 8.07812C59.0586 8.07812 58.5182 7.94141 58.0156 7.66797ZM64.8438 7.89062C64.5156 8.01562 64.1992 8.07812 63.8945 8.07812C63.5638 8.07812 63.2721 8.00911 63.0195 7.87109C62.7669 7.73307 62.569 7.54167 62.4258 7.29688C62.2852 7.04948 62.2148 6.76432 62.2148 6.44141V5.37891H61.5312V4.09375H62.293V3.11719H63.6562V4.09375H64.6836V5.37891H63.6562V6.17969C63.6562 6.38021 63.7122 6.53255 63.8242 6.63672C63.9362 6.73828 64.0677 6.78906 64.2188 6.78906C64.3724 6.78906 64.5208 6.73958 64.6641 6.64062L64.8438 7.89062ZM66.6758 8H65.2344V4.09375H66.4844L66.5312 4.70703C66.6615 4.48828 66.8307 4.31901 67.0391 4.19922C67.2474 4.07682 67.4857 4.01562 67.7539 4.01562C67.8451 4.01562 67.9375 4.02344 68.0312 4.03906C68.125 4.05208 68.2201 4.07292 68.3164 4.10156L68.1367 5.39844C67.9466 5.33594 67.7695 5.30469 67.6055 5.30469C67.4154 5.30469 67.25 5.34505 67.1094 5.42578C66.9714 5.50391 66.8646 5.61458 66.7891 5.75781C66.7135 5.90104 66.6758 6.07161 66.6758 6.26953V8ZM72.707 8H71.5664L71.5195 7.37891C71.3841 7.60807 71.2044 7.78255 70.9805 7.90234C70.7565 8.01953 70.4948 8.07812 70.1953 8.07812C69.7109 8.07812 69.332 7.92708 69.0586 7.625C68.7852 7.32292 68.6484 6.90495 68.6484 6.37109V4.09375H70.0898V5.97656C70.0898 6.23698 70.1393 6.4375 70.2383 6.57812C70.3398 6.71875 70.4831 6.78906 70.668 6.78906C70.8581 6.78906 71.0052 6.71875 71.1094 6.57812C71.2135 6.4349 71.2656 6.23438 71.2656 5.97656V4.09375H72.707V8ZM76.5312 7.89062C76.2031 8.01562 75.8867 8.07812 75.582 8.07812C75.2513 8.07812 74.9596 8.00911 74.707 7.87109C74.4544 7.73307 74.2565 7.54167 74.1133 7.29688C73.9727 7.04948 73.9023 6.76432 73.9023 6.44141V5.37891H73.2188V4.09375H73.9805V3.11719H75.3438V4.09375H76.3711V5.37891H75.3438V6.17969C75.3438 6.38021 75.3997 6.53255 75.5117 6.63672C75.6237 6.73828 75.7552 6.78906 75.9062 6.78906C76.0599 6.78906 76.2083 6.73958 76.3516 6.64062L76.5312 7.89062ZM81.0195 8H79.8789L79.832 7.37891C79.6966 7.60807 79.5169 7.78255 79.293 7.90234C79.069 8.01953 78.8073 8.07812 78.5078 8.07812C78.0234 8.07812 77.6445 7.92708 77.3711 7.625C77.0977 7.32292 76.9609 6.90495 76.9609 6.37109V4.09375H78.4023V5.97656C78.4023 6.23698 78.4518 6.4375 78.5508 6.57812C78.6523 6.71875 78.7956 6.78906 78.9805 6.78906C79.1706 6.78906 79.3177 6.71875 79.4219 6.57812C79.526 6.4349 79.5781 6.23438 79.5781 5.97656V4.09375H81.0195V8ZM83.2461 8H81.8047V4.09375H83.0547L83.1016 4.70703C83.2318 4.48828 83.401 4.31901 83.6094 4.19922C83.8177 4.07682 84.056 4.01562 84.3242 4.01562C84.4154 4.01562 84.5078 4.02344 84.6016 4.03906C84.6953 4.05208 84.7904 4.07292 84.8867 4.10156L84.707 5.39844C84.5169 5.33594 84.3398 5.30469 84.1758 5.30469C83.9857 5.30469 83.8203 5.34505 83.6797 5.42578C83.5417 5.50391 83.4349 5.61458 83.3594 5.75781C83.2839 5.90104 83.2461 6.07161 83.2461 6.26953V8ZM88.8867 8H87.625L87.5547 7.57031C87.4115 7.73438 87.2383 7.86068 87.0352 7.94922C86.832 8.03516 86.6107 8.07812 86.3711 8.07812C86.1029 8.07812 85.8646 8.02734 85.6562 7.92578C85.4479 7.82161 85.2839 7.67969 85.1641 7.5C85.0443 7.31771 84.9844 7.11068 84.9844 6.87891C84.9844 6.63411 85.0495 6.41927 85.1797 6.23438C85.3099 6.04948 85.4896 5.90495 85.7188 5.80078C85.9505 5.69401 86.2148 5.64062 86.5117 5.64062C86.6732 5.64062 86.832 5.65755 86.9883 5.69141C87.1445 5.72266 87.2969 5.76953 87.4453 5.83203V5.76953C87.4453 5.64974 87.4062 5.54427 87.3281 5.45312C87.2526 5.36198 87.1458 5.29036 87.0078 5.23828C86.8724 5.1862 86.7174 5.16016 86.543 5.16016C86.3659 5.16016 86.194 5.1862 86.0273 5.23828C85.8633 5.29036 85.7161 5.36458 85.5859 5.46094L85.2188 4.40234C85.5052 4.27474 85.7891 4.17839 86.0703 4.11328C86.3516 4.04818 86.6211 4.01562 86.8789 4.01562C87.2878 4.01562 87.6419 4.09505 87.9414 4.25391C88.2435 4.41016 88.4766 4.63281 88.6406 4.92188C88.8047 5.20833 88.8867 5.54688 88.8867 5.9375V8ZM86.7031 7.02734C86.8203 7.02734 86.9349 7.0013 87.0469 6.94922C87.1615 6.89714 87.2552 6.83073 87.3281 6.75C87.401 6.66927 87.4375 6.58724 87.4375 6.50391V6.5C87.3438 6.44531 87.2396 6.40365 87.125 6.375C87.0104 6.34375 86.8958 6.32812 86.7812 6.32812C86.6172 6.32812 86.487 6.35938 86.3906 6.42188C86.2969 6.48177 86.25 6.5651 86.25 6.67188C86.25 6.73958 86.2695 6.80078 86.3086 6.85547C86.3477 6.91016 86.401 6.95312 86.4688 6.98438C86.5391 7.01302 86.6172 7.02734 86.7031 7.02734ZM89.3203 7.66797L89.6172 6.48047C89.6875 6.5638 89.7917 6.64453 89.9297 6.72266C90.0703 6.80078 90.2227 6.86458 90.3867 6.91406C90.5508 6.96094 90.7018 6.98438 90.8398 6.98438C90.944 6.98438 91.0234 6.96875 91.0781 6.9375C91.1328 6.90625 91.1602 6.86198 91.1602 6.80469C91.1602 6.74479 91.1341 6.69401 91.082 6.65234C91.0299 6.60807 90.9596 6.56771 90.8711 6.53125C90.7852 6.49479 90.6862 6.45703 90.5742 6.41797C90.4076 6.35807 90.2318 6.28516 90.0469 6.19922C89.8646 6.11068 89.7096 5.99089 89.582 5.83984C89.4544 5.6862 89.3906 5.48177 89.3906 5.22656C89.3906 4.97917 89.4557 4.76562 89.5859 4.58594C89.7188 4.40365 89.9049 4.26302 90.1445 4.16406C90.3867 4.0651 90.6706 4.01562 90.9961 4.01562C91.5404 4.01562 92.0885 4.15234 92.6406 4.42578L92.2383 5.52344C92.1549 5.45052 92.0456 5.38151 91.9102 5.31641C91.7747 5.2513 91.6354 5.19792 91.4922 5.15625C91.3516 5.11458 91.2292 5.09375 91.125 5.09375C91.0391 5.09375 90.974 5.10938 90.9297 5.14062C90.888 5.16927 90.8672 5.20964 90.8672 5.26172C90.8672 5.31901 90.8919 5.36979 90.9414 5.41406C90.9935 5.45573 91.0625 5.49479 91.1484 5.53125C91.237 5.5651 91.3333 5.60156 91.4375 5.64062C91.612 5.70052 91.7917 5.77474 91.9766 5.86328C92.1615 5.94922 92.3177 6.06901 92.4453 6.22266C92.5755 6.3737 92.6406 6.57812 92.6406 6.83594C92.6406 7.08854 92.5703 7.30859 92.4297 7.49609C92.2917 7.68099 92.0951 7.82422 91.8398 7.92578C91.5872 8.02734 91.2878 8.07812 90.9414 8.07812C90.3633 8.07812 89.8229 7.94141 89.3203 7.66797ZM39.5547 18H38.293L38.2188 17.4922C38.0625 17.6745 37.875 17.8177 37.6562 17.9219C37.4401 18.026 37.2044 18.0781 36.9492 18.0781C36.6107 18.0781 36.3086 17.9909 36.043 17.8164C35.7799 17.6393 35.5729 17.3984 35.4219 17.0938C35.2708 16.7865 35.1953 16.4375 35.1953 16.0469C35.1953 15.6562 35.2708 15.3086 35.4219 15.0039C35.5729 14.6966 35.7799 14.4557 36.043 14.2812C36.3086 14.1042 36.6107 14.0156 36.9492 14.0156C37.1784 14.0156 37.3919 14.0573 37.5898 14.1406C37.7878 14.2214 37.9622 14.3359 38.1133 14.4844V12.1406H39.5547V18ZM37.3945 16.7891C37.5273 16.7891 37.6471 16.7604 37.7539 16.7031C37.8633 16.6458 37.9505 16.5664 38.0156 16.4648C38.0807 16.3633 38.1133 16.2461 38.1133 16.1133V15.9688C38.1133 15.8385 38.0807 15.724 38.0156 15.625C37.9505 15.526 37.8633 15.4479 37.7539 15.3906C37.6471 15.3333 37.5273 15.3047 37.3945 15.3047C37.2565 15.3047 37.1328 15.3372 37.0234 15.4023C36.9141 15.4648 36.8281 15.5521 36.7656 15.6641C36.7031 15.776 36.6719 15.9036 36.6719 16.0469C36.6719 16.1901 36.7031 16.3177 36.7656 16.4297C36.8281 16.5417 36.9141 16.6302 37.0234 16.6953C37.1328 16.7578 37.2565 16.7891 37.3945 16.7891ZM44.0508 17.5898C43.5638 17.9154 43.0352 18.0781 42.4648 18.0781C42.0247 18.0781 41.6289 17.987 41.2773 17.8047C40.9284 17.6198 40.651 17.3685 40.4453 17.0508C40.2422 16.7331 40.1406 16.3763 40.1406 15.9805C40.1406 15.6055 40.2318 15.2708 40.4141 14.9766C40.5964 14.6797 40.8438 14.4453 41.1562 14.2734C41.4714 14.1016 41.8268 14.0156 42.2227 14.0156C42.6367 14.0156 43 14.1107 43.3125 14.3008C43.625 14.4909 43.8685 14.7552 44.043 15.0938C44.2174 15.4323 44.3047 15.8255 44.3047 16.2734V16.3984H41.6875C41.7344 16.5 41.7995 16.5924 41.8828 16.6758C41.9661 16.7565 42.0703 16.8216 42.1953 16.8711C42.3203 16.9206 42.4661 16.9453 42.6328 16.9453C43 16.9453 43.3477 16.8281 43.6758 16.5938L44.0508 17.5898ZM41.6211 15.8125H42.9844C42.9714 15.6901 42.9336 15.582 42.8711 15.4883C42.8112 15.3945 42.7305 15.3216 42.6289 15.2695C42.5299 15.2148 42.4193 15.1875 42.2969 15.1875C42.1719 15.1875 42.0625 15.2161 41.9688 15.2734C41.875 15.3307 41.7982 15.4062 41.7383 15.5C41.681 15.5938 41.6419 15.6979 41.6211 15.8125ZM46.6094 18V12.1406H48.7461C49.2487 12.1406 49.6836 12.2253 50.0508 12.3945C50.4206 12.5612 50.7044 12.7995 50.9023 13.1094C51.1029 13.4167 51.2031 13.7826 51.2031 14.207C51.2031 14.6315 51.1029 15 50.9023 15.3125C50.7044 15.6224 50.4232 15.862 50.0586 16.0312C49.694 16.2005 49.263 16.2852 48.7656 16.2852H48.1562V18H46.6094ZM48.1562 14.9375H48.5938C48.9271 14.9375 49.181 14.875 49.3555 14.75C49.5326 14.625 49.6211 14.444 49.6211 14.207C49.6211 13.9753 49.5326 13.7982 49.3555 13.6758C49.181 13.5508 48.9271 13.4883 48.5938 13.4883H48.1562V14.9375ZM53.5703 18.0781C53.1589 18.0781 52.7917 17.9909 52.4688 17.8164C52.1484 17.6393 51.8958 17.3984 51.7109 17.0938C51.5286 16.7865 51.4375 16.4375 51.4375 16.0469C51.4375 15.6562 51.5286 15.3086 51.7109 15.0039C51.8958 14.6966 52.1484 14.4557 52.4688 14.2812C52.7917 14.1042 53.1589 14.0156 53.5703 14.0156C53.9792 14.0156 54.3424 14.1042 54.6602 14.2812C54.9805 14.4557 55.2318 14.6966 55.4141 15.0039C55.5964 15.3086 55.6875 15.6562 55.6875 16.0469C55.6875 16.4375 55.5964 16.7865 55.4141 17.0938C55.2318 17.3984 54.9805 17.6393 54.6602 17.8164C54.3424 17.9909 53.9792 18.0781 53.5703 18.0781ZM53.5625 16.7891C53.6875 16.7891 53.7982 16.7578 53.8945 16.6953C53.9935 16.6302 54.0703 16.5417 54.125 16.4297C54.1823 16.3151 54.2109 16.1849 54.2109 16.0391C54.2109 15.8984 54.1823 15.7734 54.125 15.6641C54.0703 15.5521 53.9935 15.4648 53.8945 15.4023C53.7982 15.3372 53.6875 15.3047 53.5625 15.3047C53.4375 15.3047 53.3255 15.3372 53.2266 15.4023C53.1302 15.4648 53.0534 15.5521 52.9961 15.6641C52.9414 15.7734 52.9141 15.8984 52.9141 16.0391C52.9141 16.1849 52.9414 16.3151 52.9961 16.4297C53.0534 16.5417 53.1302 16.6302 53.2266 16.6953C53.3255 16.7578 53.4375 16.7891 53.5625 16.7891ZM57.7148 18H56.2734V14.0938H57.5234L57.5703 14.707C57.7005 14.4883 57.8698 14.319 58.0781 14.1992C58.2865 14.0768 58.5247 14.0156 58.793 14.0156C58.8841 14.0156 58.9766 14.0234 59.0703 14.0391C59.1641 14.0521 59.2591 14.0729 59.3555 14.1016L59.1758 15.3984C58.9857 15.3359 58.8086 15.3047 58.6445 15.3047C58.4544 15.3047 58.2891 15.3451 58.1484 15.4258C58.0104 15.5039 57.9036 15.6146 57.8281 15.7578C57.7526 15.901 57.7148 16.0716 57.7148 16.2695V18ZM62.8047 17.8906C62.4766 18.0156 62.1602 18.0781 61.8555 18.0781C61.5247 18.0781 61.2331 18.0091 60.9805 17.8711C60.7279 17.7331 60.5299 17.5417 60.3867 17.2969C60.2461 17.0495 60.1758 16.7643 60.1758 16.4414V15.3789H59.4922V14.0938H60.2539V13.1172H61.6172V14.0938H62.6445V15.3789H61.6172V16.1797C61.6172 16.3802 61.6732 16.5326 61.7852 16.6367C61.8971 16.7383 62.0286 16.7891 62.1797 16.7891C62.3333 16.7891 62.4818 16.7396 62.625 16.6406L62.8047 17.8906ZM67.293 18H66.1523L66.1055 17.3789C65.9701 17.6081 65.7904 17.7826 65.5664 17.9023C65.3424 18.0195 65.0807 18.0781 64.7812 18.0781C64.2969 18.0781 63.918 17.9271 63.6445 17.625C63.3711 17.3229 63.2344 16.9049 63.2344 16.3711V14.0938H64.6758V15.9766C64.6758 16.237 64.7253 16.4375 64.8242 16.5781C64.9258 16.7188 65.069 16.7891 65.2539 16.7891C65.444 16.7891 65.5911 16.7188 65.6953 16.5781C65.7995 16.4349 65.8516 16.2344 65.8516 15.9766V14.0938H67.293V18ZM69.6367 18.0781C69.2982 18.0781 68.9961 17.9909 68.7305 17.8164C68.4674 17.6393 68.2604 17.3984 68.1094 17.0938C67.9583 16.7865 67.8828 16.4375 67.8828 16.0469C67.8828 15.6536 67.9583 15.3047 68.1094 15C68.2604 14.6953 68.4674 14.4557 68.7305 14.2812C68.9961 14.1042 69.2982 14.0156 69.6367 14.0156C69.8945 14.0156 70.1315 14.0677 70.3477 14.1719C70.5664 14.276 70.7539 14.4206 70.9102 14.6055L70.9766 14.0938H72.2383V17.8867C72.2383 18.3138 72.138 18.6888 71.9375 19.0117C71.737 19.3346 71.457 19.5846 71.0977 19.7617C70.7383 19.9414 70.319 20.0312 69.8398 20.0312C69.1862 20.0312 68.5781 19.8346 68.0156 19.4414L68.582 18.2578C68.9206 18.5807 69.3021 18.7422 69.7266 18.7422C69.9349 18.7422 70.1185 18.7031 70.2773 18.625C70.4388 18.5469 70.5651 18.4375 70.6562 18.2969C70.75 18.1589 70.7969 18.0013 70.7969 17.8242V17.6094C70.6458 17.7578 70.4714 17.8737 70.2734 17.957C70.0781 18.0378 69.8659 18.0781 69.6367 18.0781ZM70.082 16.7891C70.2148 16.7891 70.3346 16.7617 70.4414 16.707C70.5508 16.6497 70.6367 16.5703 70.6992 16.4688C70.7643 16.3672 70.7969 16.2513 70.7969 16.1211V15.9609C70.7969 15.8333 70.7643 15.7201 70.6992 15.6211C70.6341 15.5221 70.5469 15.4453 70.4375 15.3906C70.3307 15.3333 70.2122 15.3047 70.082 15.3047C69.944 15.3047 69.8203 15.3372 69.7109 15.4023C69.6016 15.4648 69.5156 15.5521 69.4531 15.6641C69.3906 15.776 69.3594 15.9036 69.3594 16.0469C69.3594 16.1901 69.3906 16.3177 69.4531 16.4297C69.5156 16.5417 69.6016 16.6302 69.7109 16.6953C69.8203 16.7578 69.944 16.7891 70.082 16.7891ZM76.6914 18H75.4297L75.3594 17.5703C75.2161 17.7344 75.043 17.8607 74.8398 17.9492C74.6367 18.0352 74.4154 18.0781 74.1758 18.0781C73.9076 18.0781 73.6693 18.0273 73.4609 17.9258C73.2526 17.8216 73.0885 17.6797 72.9688 17.5C72.849 17.3177 72.7891 17.1107 72.7891 16.8789C72.7891 16.6341 72.8542 16.4193 72.9844 16.2344C73.1146 16.0495 73.2943 15.9049 73.5234 15.8008C73.7552 15.694 74.0195 15.6406 74.3164 15.6406C74.4779 15.6406 74.6367 15.6576 74.793 15.6914C74.9492 15.7227 75.1016 15.7695 75.25 15.832V15.7695C75.25 15.6497 75.2109 15.5443 75.1328 15.4531C75.0573 15.362 74.9505 15.2904 74.8125 15.2383C74.6771 15.1862 74.5221 15.1602 74.3477 15.1602C74.1706 15.1602 73.9987 15.1862 73.832 15.2383C73.668 15.2904 73.5208 15.3646 73.3906 15.4609L73.0234 14.4023C73.3099 14.2747 73.5938 14.1784 73.875 14.1133C74.1562 14.0482 74.4258 14.0156 74.6836 14.0156C75.0924 14.0156 75.4466 14.0951 75.7461 14.2539C76.0482 14.4102 76.2812 14.6328 76.4453 14.9219C76.6094 15.2083 76.6914 15.5469 76.6914 15.9375V18ZM74.5078 17.0273C74.625 17.0273 74.7396 17.0013 74.8516 16.9492C74.9661 16.8971 75.0599 16.8307 75.1328 16.75C75.2057 16.6693 75.2422 16.5872 75.2422 16.5039V16.5C75.1484 16.4453 75.0443 16.4036 74.9297 16.375C74.8151 16.3438 74.7005 16.3281 74.5859 16.3281C74.4219 16.3281 74.2917 16.3594 74.1953 16.4219C74.1016 16.4818 74.0547 16.5651 74.0547 16.6719C74.0547 16.7396 74.0742 16.8008 74.1133 16.8555C74.1523 16.9102 74.2057 16.9531 74.2734 16.9844C74.3438 17.013 74.4219 17.0273 74.5078 17.0273ZM78.9453 18H77.3984V11.9844H78.9453V18Z" fill="black"/>
</g>
<defs>
<clipPath id="clip0_74_1031">
<rect width="100" height="20" fill="black"/>
</clipPath>
</defs>
</svg>
