<svg width="100" height="20" viewBox="0 0 100 20" fill="none" xmlns="http://www.w3.org/2000/svg">
<g clip-path="url(#clip0_71_925)">
<path d="M35.0368 12.0758C35.694 9.57303 36.3517 7.0686 37.0099 4.5625H39.964C40.6218 7.06642 41.279 9.56847 41.9356 12.0687L41.984 12.0661L43.5702 4.56346H46.7283C45.7569 8.38534 44.7856 12.2052 43.8142 16.0231H40.4508C39.8043 13.5593 39.1567 11.0906 38.5081 8.61705L38.4661 8.61859C37.8185 11.085 37.171 13.5539 36.5234 16.0252H33.1602C32.1902 12.2103 31.2189 8.39036 30.2461 4.56539H33.4042C33.9332 7.06699 34.4628 9.57097 34.9927 12.0773L35.0368 12.0758Z" fill="black"/>
<path d="M25.4074 8.03619H9.04255C9.03244 8.0252 9.02798 8.02057 9.02312 8.01575C9.01826 8.01093 9.01263 8.00611 9.01185 8.00052C9.0054 7.96283 9.00144 7.92477 9 7.88657C9 5.62123 9.00078 3.35583 9.00233 1.09036C9.00489 1.07239 9.00999 1.05486 9.01748 1.0383C9.16125 0.999739 15.463 0.983157 15.811 1.02268C15.8151 1.09171 15.8228 1.16556 15.8228 1.23922C15.8237 2.0029 15.8241 2.76665 15.824 3.53046C15.824 3.60527 15.8318 3.68027 15.8366 3.76781H18.6044C18.6143 3.30235 18.6077 2.84885 18.6089 2.39554C18.61 1.94223 18.6089 1.48757 18.6089 1.01999H25.3979C25.4422 1.15399 25.4548 7.78977 25.4074 8.03619Z" fill="black"/>
<path d="M25.4147 10.8696C25.5414 14.6205 22.596 18.2817 18.6202 18.9872C18.616 18.9122 18.6082 18.8391 18.608 18.7661C18.6072 18.0089 18.6072 17.2517 18.608 16.4943V16.2579H15.8264V19.0003C14.8771 18.8263 13.9664 18.4865 13.1367 17.9965C11.6797 17.1391 10.5689 15.9581 9.81916 14.4499C9.26082 13.3267 8.99389 12.1362 9.00011 10.8984C9.01953 10.8791 9.02322 10.8743 9.02808 10.87C9.03294 10.8658 9.03779 10.8598 9.04323 10.859C9.07476 10.8529 9.10671 10.8491 9.13882 10.8477C14.5419 10.8477 19.945 10.8484 25.3481 10.85C25.3661 10.85 25.3842 10.8602 25.4147 10.8696Z" fill="black"/>
<path d="M71.0928 16.0294H67.517C67.4801 15.9648 67.441 15.899 67.4043 15.8319C66.7481 14.6307 66.0929 13.4288 65.4389 12.2263C65.3724 12.1036 65.2994 12.0527 65.156 12.056C64.7038 12.0655 64.2511 12.0595 63.7767 12.0595C63.7499 12.5016 63.7676 12.9347 63.7644 13.367C63.7613 13.8105 63.7644 14.2526 63.7644 14.6953V16.0307C62.7259 16.0435 61.7015 16.0331 60.6641 16.0369V4.56336C60.7344 4.56028 60.7973 4.55469 60.8603 4.55469C62.7043 4.55469 64.5485 4.55469 66.3928 4.55469C67.1421 4.55565 67.877 4.65322 68.5758 4.93666C69.9029 5.475 70.6015 6.47109 70.7409 7.87364C70.7969 8.43724 70.7542 8.99005 70.5702 9.52627C70.2714 10.3968 69.6765 11.0138 68.8672 11.4398C68.7596 11.4965 68.6494 11.5487 68.5249 11.6108C69.3773 13.0801 70.2257 14.5385 71.0928 16.0294ZM63.7732 9.70501C63.8068 9.71195 63.8408 9.71672 63.875 9.71928C64.6326 9.71928 65.3891 9.72603 66.146 9.7106C66.3553 9.70617 66.5711 9.65719 66.7702 9.58874C67.3418 9.39245 67.651 8.93104 67.6491 8.31847C67.6474 7.70145 67.3369 7.25797 66.7658 7.04915C66.5006 6.95275 66.2255 6.92286 65.9459 6.92228C65.2793 6.92112 64.6129 6.92112 63.9467 6.92228C63.8911 6.92228 63.8355 6.93115 63.7732 6.93636V9.70501Z" fill="black"/>
<path d="M92.9746 16.0282H89.808V11.2961C89.6466 11.2533 86.1638 11.2456 85.9362 11.2863V16.0355C84.871 16.0428 83.8277 16.038 82.7695 16.039V4.56641H85.9245V8.63483C86.0925 8.67976 89.5731 8.68709 89.801 8.64525V4.56872H92.9599C92.9991 4.70369 93.015 15.6867 92.9746 16.0282Z" fill="black"/>
<path d="M48.1468 7.80078H51.3134V8.03505C51.3134 9.17113 51.3086 10.3074 51.3171 11.4437C51.3166 11.7193 51.343 11.9943 51.396 12.2649C51.5988 13.2461 52.2566 13.7206 53.2558 13.7046C53.411 13.7006 53.5654 13.6816 53.717 13.6481C54.2328 13.5392 54.6009 13.2419 54.8243 12.7685C54.9571 12.482 55.0338 12.1731 55.0503 11.8582C55.066 11.6022 55.0712 11.3451 55.0718 11.0885C55.0741 10.0743 55.0741 9.06007 55.0718 8.04585V7.80425H58.2295C58.2358 7.84399 58.2401 7.88402 58.2423 7.92418C58.2394 9.30436 58.2447 10.6844 58.2285 12.0643C58.22 12.676 58.0931 13.2803 57.8548 13.8444C57.3986 14.9367 56.5702 15.6205 55.4551 15.987C54.8985 16.1698 54.3237 16.2583 53.7405 16.288C52.8441 16.3337 51.9532 16.288 51.0887 16.0267C50.8228 15.9466 50.5639 15.8455 50.3143 15.7244C49.2674 15.2128 48.6358 14.3658 48.3347 13.2619C48.2123 12.8221 48.1478 12.3684 48.1425 11.9122C48.1338 10.5835 48.1377 9.25481 48.1371 7.92611C48.1367 7.88851 48.1421 7.85111 48.1468 7.80078Z" fill="black"/>
<path d="M81.0206 4.56641V7.04583H78.0838C78.0643 7.65726 78.0774 8.25113 78.075 8.84481C78.0725 9.44254 78.075 10.0387 78.075 10.6357V16.002C77.9258 16.0457 75.2338 16.0612 74.9002 16.0213C74.8971 15.4308 74.9002 14.8364 74.8989 14.2421C74.8975 13.6479 74.8989 13.0482 74.8989 12.4513V7.06222H71.9863C71.9362 6.9124 71.9248 4.81379 71.9687 4.56641H81.0206Z" fill="black"/>
<path d="M51.2988 6.70265H48.1484V4.58784C48.2734 4.54716 51.0431 4.53463 51.2988 4.57762V6.70265Z" fill="black"/>
<path d="M55.0946 4.5625H58.2043C58.2486 4.70403 58.2599 6.45711 58.2179 6.69891H55.1051C55.061 6.56278 55.0507 4.80564 55.0946 4.5625Z" fill="black"/>
</g>
<defs>
<clipPath id="clip0_71_925">
<rect width="84" height="18" fill="black" transform="translate(9 1)"/>
</clipPath>
</defs>
</svg>
