<svg width="18" height="18" viewBox="0 0 18 18" fill="none" xmlns="http://www.w3.org/2000/svg">
<rect width="18" height="18" fill="white"/>
<path d="M16.7061 4.8755C16.7183 4.89359 16.7132 4.90954 16.7132 4.92444C16.7132 7.80421 16.7163 10.684 16.7112 13.5638C16.7102 14.1297 16.4606 14.5659 15.9919 14.8489C15.8153 14.9563 15.6154 14.9989 15.4085 14.9989C12.1688 14.9989 8.93018 14.9989 5.69053 14.9989C4.56635 14.9989 3.44115 14.9967 2.31696 14.9999C1.70312 15.0021 1.23539 14.5574 1.07711 14.017C1.01928 13.8201 1 13.6201 1 13.4148C1.00203 10.6574 1.00101 7.89996 1.00101 5.14252C1.00101 5.03507 1.00304 4.92656 1.00203 4.81912C1.00203 4.77869 1.0142 4.77976 1.0416 4.79678C1.5073 5.08827 1.97301 5.37975 2.43973 5.67018C2.90746 5.96167 3.3752 6.25315 3.84293 6.54464C4.57041 6.9989 5.29687 7.45208 6.02333 7.90634C6.68485 8.32017 7.34536 8.73399 8.00587 9.14782C8.27474 9.31591 8.54564 9.48293 8.81451 9.65101C8.84394 9.6691 8.86626 9.67016 8.89568 9.65101C9.24471 9.43612 9.59373 9.22123 9.94377 9.0074C10.4663 8.68719 10.9898 8.36804 11.5134 8.04783C12.2094 7.62123 12.9054 7.19464 13.6014 6.76805C14.3025 6.33932 15.0036 5.91167 15.7037 5.48294C16.0061 5.29784 16.3074 5.11167 16.6098 4.9255C16.6412 4.90635 16.6737 4.89146 16.7051 4.87444L16.7061 4.8755Z" fill="#FF0000"/>
<path d="M8.83872 4.00079C11.0812 4.00079 13.3236 4.00236 15.5661 4C16.0544 4 16.4201 4.15815 16.6957 4.45083C16.7083 4.46421 16.7314 4.4768 16.6936 4.49332C16.4411 4.60269 16.1896 4.71284 15.9381 4.82299C15.4487 5.03778 14.9594 5.25258 14.469 5.46737C13.8874 5.7223 13.3048 5.97564 12.7232 6.23057C12.1521 6.48077 11.5821 6.73254 11.011 6.98353C10.4284 7.23924 9.84363 7.49337 9.26101 7.7483C9.13212 7.80494 9.00323 7.86081 8.87539 7.91824C8.845 7.93241 8.823 7.93162 8.79156 7.91824C8.3787 7.73256 7.96374 7.54845 7.55087 7.36355C7.04998 7.1401 6.55015 6.91587 6.04926 6.69163C5.43206 6.41546 4.8159 6.1393 4.1987 5.86392C3.505 5.55392 2.81131 5.24392 2.11761 4.93471C1.76133 4.77578 1.40505 4.61606 1.04877 4.45713C0.989043 4.43038 0.9859 4.4288 1.02991 4.38789C1.29607 4.13769 1.63559 4.00157 2.06522 4.00157C2.65936 4.00157 3.25247 4.00157 3.84661 4.00157C5.51065 4.00157 7.17468 4.00157 8.83976 4.00157L8.83872 4.00079Z" fill="#FF0000"/>
</svg>
