<svg width="18" height="18" viewBox="0 0 18 18" fill="none" xmlns="http://www.w3.org/2000/svg">
<g clip-path="url(#clip0_93_24)">
<rect width="18" height="18" fill="white"/>
<path d="M9.70635 8.30668C9.76882 8.25202 9.80787 8.18955 9.85472 8.12707C10.0968 7.76785 10.3857 7.4633 10.7215 7.22902C11.2369 6.862 11.7992 6.66677 12.3927 6.6043C12.7597 6.56525 13.1189 6.56525 13.486 6.6043C14.1966 6.6902 14.8682 6.92447 15.4695 7.40083C16.0942 7.90061 16.5159 8.59562 16.758 9.44681C16.9298 10.0403 17.0001 10.6494 17.0001 11.2741C17.0001 13.2342 17.0001 15.1943 17.0001 17.1544C17.0001 17.2169 17.0001 17.2715 17.0001 17.334C17.0001 17.3965 16.9844 17.4043 16.9376 17.4043C16.5784 17.4043 16.2191 17.4043 15.8677 17.4043C15.0946 17.4043 14.3293 17.4043 13.5562 17.4043C13.4625 17.4043 13.4625 17.4043 13.4625 17.295C13.4625 15.616 13.4625 13.9449 13.4625 12.2659C13.4625 11.9535 13.4703 11.649 13.4469 11.3366C13.4235 10.9696 13.3454 10.6182 13.197 10.2902C13.0018 9.84508 12.6894 9.56395 12.2834 9.44681C11.7367 9.28282 11.1901 9.30625 10.6747 9.6108C10.2764 9.84508 9.98748 10.2121 9.80787 10.7041C9.73759 10.8915 9.72197 11.0945 9.72197 11.2976C9.72197 12.219 9.72197 13.1405 9.72197 14.0542C9.72197 15.1475 9.72197 16.2407 9.72197 17.334C9.72197 17.3887 9.70635 17.4043 9.6673 17.4043C9.33932 17.4043 9.01134 17.4043 8.68336 17.4043C7.87902 17.4043 7.07468 17.4043 6.27034 17.4043C6.17663 17.4043 6.17663 17.4043 6.17663 17.2872C6.17663 17.1466 6.17663 16.9982 6.17663 16.8577C6.18444 14.3744 6.20787 11.8911 6.20006 9.40777C6.20006 8.68152 6.20006 7.94746 6.18444 7.22122C6.18444 7.11189 6.18444 7.00256 6.16882 6.89323C6.16882 6.84638 6.17663 6.83076 6.21568 6.83076C6.24691 6.83076 6.28596 6.82295 6.3172 6.82295C7.38704 6.82295 8.4647 6.82295 9.53455 6.82295C9.58921 6.82295 9.6595 6.80733 9.69854 6.83857C9.7454 6.87761 9.70635 6.96351 9.70635 7.0338C9.70635 7.3774 9.70635 7.721 9.70635 8.0646C9.70635 8.13488 9.70635 8.21297 9.70635 8.29887V8.30668Z" fill="#FF0000"/>
<path d="M4.20098 12.1253C4.20098 13.8042 4.20098 15.491 4.20098 17.17C4.20098 17.2246 4.19317 17.2793 4.20098 17.3339C4.20098 17.3964 4.18536 17.4042 4.13851 17.4042C3.5294 17.4042 2.92809 17.4042 2.31898 17.4042C1.79577 17.4042 1.28037 17.4042 0.757161 17.4042C0.694689 17.4042 0.663452 17.3678 0.663452 17.2949C0.663452 16.9044 0.663452 16.5062 0.663452 16.1157C0.663452 13.2107 0.663452 10.3136 0.663452 7.40857C0.663452 7.23677 0.67907 7.05716 0.663452 6.88536C0.663452 6.84631 0.679071 6.8385 0.702498 6.8385C0.741543 6.8385 0.780589 6.8385 0.819634 6.8385C1.89729 6.8385 2.97495 6.8385 4.06041 6.8385C4.16974 6.8385 4.22441 6.90097 4.22441 7.02592C4.22441 8.72831 4.22441 10.4307 4.22441 12.1331L4.20098 12.1253Z" fill="#FF0000"/>
<path d="M2.41287 5.37049C2.06927 5.37049 1.7491 5.32363 1.44454 5.16745C1.09313 4.98784 0.788579 4.73014 0.60116 4.31626C0.343459 3.73057 0.374695 3.16051 0.679251 2.62168C0.882287 2.26246 1.18684 2.036 1.52264 1.89543C1.98337 1.70021 2.45973 1.67678 2.93608 1.77049C3.32654 1.84858 3.68576 2.02819 3.9747 2.36398C4.39639 2.84814 4.52914 3.59001 4.29487 4.19912C4.12307 4.64424 3.83413 4.93318 3.4671 5.1284C3.1235 5.31582 2.75647 5.37049 2.39726 5.37049H2.41287Z" fill="#FF0000"/>
</g>
<defs>
<clipPath id="clip0_93_24">
<rect width="18" height="18" fill="white"/>
</clipPath>
</defs>
</svg>
