<svg width="18" height="18" viewBox="0 0 18 18" fill="none" xmlns="http://www.w3.org/2000/svg">
<rect width="18" height="18" fill="white"/>
<path d="M9.00152 16C8.971 15.9495 8.9443 15.9099 8.92522 15.8739C7.42591 13.1496 5.9266 10.4289 4.43491 7.70094C4.10301 7.08833 4 6.41806 4 5.73698C4.00382 3.48474 5.69388 1.54241 8.02869 1.09196C10.7412 0.569437 13.4613 2.33159 13.9191 4.90816C14.1099 5.99284 13.9725 7.02707 13.4079 8.00364C13.0989 8.53697 12.8128 9.07751 12.519 9.61805C11.3745 11.7009 10.23 13.7802 9.08545 15.8631C9.06256 15.9063 9.03586 15.9459 9.00152 16ZM9.00534 8.69553C10.6038 8.69553 11.8895 7.47391 11.8857 5.9604C11.8857 4.4505 10.5924 3.23609 8.99008 3.2397C7.39157 3.2397 6.10972 4.46492 6.11353 5.97842C6.11735 7.47031 7.42209 8.69553 9.00534 8.69553Z" fill="#FF0000" stroke="#FF0000" stroke-miterlimit="10"/>
</svg>
