<svg width="18" height="18" viewBox="0 0 18 18" fill="none" xmlns="http://www.w3.org/2000/svg">
<rect width="18" height="18" fill="white"/>
<path d="M14 9.02C14 11.5539 14 14.0886 14 16.6225C14 17.2004 13.6885 17.6923 13.1915 17.8913C13.0187 17.9607 12.8354 17.9981 12.6491 17.9981C10.2193 17.9996 7.79017 18.0019 5.36033 17.9973C4.80522 17.9965 4.37826 17.7502 4.13163 17.2264C4.00943 16.9671 4.00198 16.6804 4.00123 16.399C3.999 13.8552 4.00049 11.3122 4.00049 8.76836C4.00049 6.49983 3.99825 4.23129 4.00347 1.96352C4.00347 1.66461 3.99378 1.36417 4.04296 1.06526C4.1279 0.551311 4.55113 0.081591 5.17256 0.0198259C5.28656 0.00838786 5.39982 0.000762533 5.51457 0.000762533C7.88852 0.000762533 10.2625 -0.0022876 12.6364 0.00381266C13.1483 0.00533773 13.5656 0.215034 13.8271 0.687042C13.9583 0.92419 13.9978 1.18726 13.9978 1.45491C13.9993 3.97661 13.9985 6.4983 13.9985 9.01924L14 9.02ZM13.2474 8.26662C13.2474 5.8471 13.2474 3.42682 13.2497 1.00731C13.2497 0.914277 13.2377 0.88225 13.1386 0.883013C10.4376 0.886063 7.73652 0.886063 5.03546 0.886063C4.95499 0.886063 4.87526 0.886063 4.79478 0.883013C4.7538 0.881488 4.74188 0.898264 4.74263 0.93944C4.74561 1.06297 4.74561 1.18574 4.74561 1.30927C4.74561 6.02935 4.74561 10.7494 4.74561 15.4695C4.74561 15.5879 4.80174 15.6472 4.914 15.6472C7.64561 15.6472 10.378 15.6472 13.1096 15.6472C13.1155 15.6472 13.1222 15.6472 13.1282 15.6472C13.2839 15.6456 13.2564 15.6586 13.2556 15.5183C13.2541 15.3696 13.2482 15.2209 13.2482 15.0722C13.2482 12.8044 13.2482 10.5359 13.2482 8.26814L13.2474 8.26662ZM8.8229 16.2534C8.43544 16.2114 8.22606 16.566 8.22457 16.8291C8.22234 17.112 8.43991 17.4338 8.83334 17.4323C9.14852 17.4307 9.40559 17.1585 9.40559 16.8276C9.40559 16.4913 9.16268 16.2519 8.8229 16.2534Z" fill="#FF0000"/>
</svg>
